<svg width="162" height="232" viewBox="0 0 162 232" fill="none" xmlns="http://www.w3.org/2000/svg">
<g clip-path="url(#clip0_1_5150)">
<path d="M162 0H0V232H162V0Z" fill="#86BCFC"/>
<path d="M153.12 222.52L153.12 9.47998L8.87 9.47998L8.87 222.52L153.12 222.52Z" fill="#CFE4FE"/>
<path d="M148.6 60.92C148.6 86.41 123.84 123.89 93.3 123.89C62.76 123.89 38 86.41 38 60.92C38 35.43 62.76 11.38 93.3 11.38C123.84 11.38 148.6 35.43 148.6 60.92Z" fill="#0C6ED6"/>
<path d="M148.6 60.92C148.6 57.69 148.2 54.49 147.45 51.35C142.24 75.57 119.98 104.16 93.3 104.16C66.62 104.16 44.35 75.57 39.14 51.35C38.38 54.49 37.99 57.69 37.99 60.92C37.99 86.41 62.75 123.89 93.29 123.89C93.98 123.89 94.66 123.86 95.34 123.83C94.91 125.49 94.51 127.16 94.15 128.84C93.97 129.67 93.79 130.51 93.64 131.35C93.52 132.05 93.45 132.76 93.61 133.46C93.77 134.14 94.2 134.75 94.82 135.07C95.54 135.45 96.35 135.4 97.13 135.28C98.8 135.03 100.46 134.78 102.14 134.65C103 134.59 103.9 134.63 104.75 134.49C105.67 134.33 106.22 133.38 105.71 132.53C105.3 131.86 104.7 131.26 104.22 130.64C103.74 130.02 103.28 129.38 102.83 128.74C101.9 127.41 101.02 126.03 100.2 124.62C99.96 124.21 99.73 123.79 99.5 123.37C127.13 118.78 148.6 84.65 148.6 60.92Z" fill="#0A61BD"/>
<path d="M47.63 50.9301H52.26C54.92 50.9301 56.46 52.5701 56.46 54.9101C56.46 57.2501 54.89 58.8601 52.19 58.8601H50.1V62.6601H47.62V50.9301H47.63ZM51.79 56.8701C53.21 56.8701 53.9 56.0701 53.9 54.9101C53.9 53.7401 53.21 52.9601 51.77 52.9601H50.1V56.8701H51.79Z" fill="#F0F9FF"/>
<path d="M56.08 62.6701L60.13 50.9401H63.33L67.37 62.6701H64.71L63.84 59.9901H59.61L58.74 62.6701H56.08ZM63.22 58.0501L61.78 53.6101H61.69L60.25 58.0501H63.22Z" fill="#F0F9FF"/>
<path d="M76.07 55.04C75.88 53.75 74.9 52.97 73.54 52.97C71.72 52.97 70.53 54.36 70.53 56.8C70.53 59.31 71.74 60.63 73.52 60.63C74.84 60.63 75.83 59.91 76.06 58.65L78.57 58.66C78.3 60.82 76.48 62.82 73.48 62.82C70.34 62.82 68.02 60.62 68.02 56.79C68.02 52.95 70.39 50.76 73.48 50.76C76.2 50.76 78.25 52.32 78.57 55.03H76.07V55.04Z" fill="#F0F9FF"/>
<path d="M88.19 55.04C88 53.75 87.02 52.97 85.66 52.97C83.84 52.97 82.65 54.36 82.65 56.8C82.65 59.31 83.86 60.63 85.64 60.63C86.96 60.63 87.95 59.91 88.18 58.65L90.69 58.66C90.42 60.82 88.6 62.82 85.6 62.82C82.46 62.82 80.14 60.62 80.14 56.79C80.14 52.95 82.51 50.76 85.6 50.76C88.32 50.76 90.37 52.32 90.69 55.03H88.19V55.04Z" fill="#F0F9FF"/>
<path d="M95.81 57.6601H94.96V62.6601H92.48V50.9301H94.96V55.6201H95.46L99.36 50.9301H102.45L97.87 56.3701L102.66 62.6601H99.58L95.81 57.6601Z" fill="#F0F9FF"/>
<path d="M103.26 62.6701L107.31 50.9401H110.51L114.55 62.6701H111.89L111.02 59.9901H106.79L105.92 62.6701H103.26ZM110.39 58.0501L108.95 53.6101H108.86L107.42 58.0501H110.39Z" fill="#F0F9FF"/>
<path d="M115.77 59.35H118.27C118.32 60.21 119.14 60.78 120.23 60.78C121.36 60.78 122.17 60.14 122.16 59.2C122.17 58.25 121.34 57.59 120.01 57.59H118.92V55.77H120C121.13 55.77 121.91 55.15 121.91 54.22C121.92 53.34 121.25 52.73 120.24 52.73C119.23 52.73 118.41 53.31 118.38 54.2H116C116.03 52.17 117.84 50.76 120.25 50.76C122.68 50.76 124.3 52.21 124.29 54.07C124.3 55.39 123.39 56.32 122.08 56.55V56.64C123.8 56.86 124.73 57.9 124.73 59.36C124.74 61.36 122.85 62.81 120.22 62.81C117.64 62.83 115.81 61.4 115.77 59.35Z" fill="#F0F9FF"/>
<path d="M131.01 55.2701C133.79 55.2701 135.53 56.7001 135.52 58.9201C135.53 61.1401 133.79 62.6701 131.01 62.6701H126.63V50.9301H129.1V55.2701H131.01ZM129.1 60.6701H131.01C132.34 60.6701 133.07 59.8601 133.07 58.8901C133.08 57.9601 132.35 57.2201 131.01 57.2201H129.1V60.6701ZM138.96 62.6701H136.48V50.9301H138.96V62.6701Z" fill="#F0F9FF"/>
<path d="M63.46 82.18C60.33 82.18 57.97 79.97 57.97 76.15C57.97 72.31 60.34 70.12 63.46 70.12C66.57 70.12 68.95 72.31 68.95 76.15C68.95 79.99 66.57 82.18 63.46 82.18ZM63.46 72.32C61.66 72.32 60.48 73.67 60.48 76.15C60.48 78.63 61.65 79.98 63.46 79.98C65.26 79.98 66.44 78.63 66.44 76.15C66.44 73.67 65.26 72.32 63.46 72.32Z" fill="#F0F9FF"/>
<path d="M73.89 80.04H74.69C75.5 79.46 76.16 78.32 76.36 75.25L76.69 70.29H84.45V80.05H85.73V84.84H83.35V82.02H76.28V84.85H73.9V80.04H73.89ZM82.06 80.04V72.33H78.92L78.74 75.25C78.59 77.57 78.14 79.08 77.55 80.04H82.06Z" fill="#F0F9FF"/>
<path d="M87.23 70.28H95.14V72.33H89.72V75.13H94.74V77.18H89.72V79.98H95.17V82.03H87.24V70.28H87.23Z" fill="#F0F9FF"/>
<path d="M96.66 70.28H106.29V72.33H102.7V82.02H100.25V72.33H96.66V70.28Z" fill="#F0F9FF"/>
<path d="M114.41 82.02V77.86H112.6L110.38 82.02H107.64L110.13 77.46C108.8 76.89 108.06 75.72 108.06 74.12C108.06 71.79 109.6 70.29 112.26 70.29H116.88V82.02H114.41ZM114.41 72.31H112.74C111.31 72.31 110.61 72.95 110.61 74.11C110.61 75.27 111.31 75.86 112.73 75.86H114.41V72.31Z" fill="#F0F9FF"/>
<path d="M123.62 74.28H123.71L126.09 70.28H128.89L125.31 76.15L128.97 82.02H126.12L123.71 78.02H123.62L121.21 82.02H118.37L122.04 76.15L118.44 70.28H121.25L123.62 74.28Z" fill="#F0F9FF"/>
<path d="M105.22 128.81C106.39 130.09 107.28 131.63 107.75 133.31C108.35 135.46 108.24 137.74 107.79 139.91C106.85 144.37 104.63 148.4 103.43 152.78C102.37 156.67 101.98 161.05 103.95 164.73C105.93 168.44 110.02 170.12 112.71 173.18C115.59 176.46 116.77 180.7 116.5 185.01C116.2 189.73 114.58 194.25 114.17 198.95C113.98 201.16 114.05 203.43 114.62 205.59C115.17 207.66 116.25 209.42 117.47 211.14C118.63 212.78 119.88 214.46 120.22 216.5C120.56 218.57 120.03 220.49 119.68 222.53H121.54C121.81 220.97 122.15 219.61 122.17 218.01C122.2 215.79 121.47 213.81 120.28 211.96C119.17 210.24 117.8 208.65 116.97 206.76C116.12 204.8 115.88 202.63 115.93 200.51C116.05 195.75 117.65 191.2 118.21 186.5C118.74 182.04 118.01 177.56 115.48 173.78C114.3 172.02 112.82 170.57 111.15 169.27C109.55 168.03 107.84 166.86 106.53 165.29C103.9 162.14 104.1 157.74 105.02 153.98C106.11 149.56 108.33 145.52 109.4 141.1C110.4 136.96 110.22 132.56 107.7 128.99C105.57 125.96 102.22 123.72 98.53 123.16C97.61 123.02 96.69 122.97 95.76 123.03C94.58 123.11 94.57 124.96 95.76 124.88C99.35 124.63 102.82 126.18 105.22 128.81Z" fill="#3F8CFF"/>
<path d="M18.09 154.84C17.87 156.54 18.44 158.52 19.15 159.88C20.54 162.52 23.06 165.48 25.94 166.48C29.22 167.62 31.91 165.29 32.27 162.04C32.66 158.45 30.13 154.13 26.89 152.65C24.84 151.71 21.71 150.89 19.65 152.2C18.69 152.8 18.23 153.76 18.09 154.84Z" fill="#E68D6A"/>
<path d="M91.93 154.84C92.15 156.54 91.58 158.52 90.87 159.88C89.48 162.52 86.96 165.48 84.08 166.48C80.8 167.62 78.11 165.29 77.75 162.04C77.36 158.45 79.89 154.13 83.13 152.65C85.18 151.71 88.31 150.89 90.37 152.2C91.33 152.8 91.79 153.76 91.93 154.84Z" fill="#E68D6A"/>
<path d="M65.2499 185.66C58.4199 189.97 51.5899 189.97 44.7599 185.66V172.35H65.2499V185.66Z" fill="#FAAB8C"/>
<path d="M65.2499 179.53C58.4199 183.84 51.5899 183.84 44.7599 179.53V166.22H65.2499V179.53Z" fill="#E68D6A"/>
<path d="M55.0099 179.23C71.9098 179.23 85.6099 164.276 85.6099 145.83C85.6099 127.384 71.9098 112.43 55.0099 112.43C38.11 112.43 24.4099 127.384 24.4099 145.83C24.4099 164.276 38.11 179.23 55.0099 179.23Z" fill="#FAAB8C"/>
<path d="M39.5899 157.18C41.8819 157.18 43.7399 155.322 43.7399 153.03C43.7399 150.738 41.8819 148.88 39.5899 148.88C37.298 148.88 35.4399 150.738 35.4399 153.03C35.4399 155.322 37.298 157.18 39.5899 157.18Z" fill="white"/>
<path d="M41.2 153.03C42.0891 153.03 42.81 152.309 42.81 151.42C42.81 150.531 42.0891 149.81 41.2 149.81C40.3108 149.81 39.59 150.531 39.59 151.42C39.59 152.309 40.3108 153.03 41.2 153.03Z" fill="#743501"/>
<path d="M39.59 151.58C40.076 151.58 40.47 151.186 40.47 150.7C40.47 150.214 40.076 149.82 39.59 149.82C39.104 149.82 38.71 150.214 38.71 150.7C38.71 151.186 39.104 151.58 39.59 151.58Z" fill="white"/>
<path d="M69.4 157.18C71.692 157.18 73.55 155.322 73.55 153.03C73.55 150.738 71.692 148.88 69.4 148.88C67.108 148.88 65.25 150.738 65.25 153.03C65.25 155.322 67.108 157.18 69.4 157.18Z" fill="white"/>
<path d="M71.0099 153.03C71.8991 153.03 72.6199 152.309 72.6199 151.42C72.6199 150.531 71.8991 149.81 71.0099 149.81C70.1207 149.81 69.3999 150.531 69.3999 151.42C69.3999 152.309 70.1207 153.03 71.0099 153.03Z" fill="#743501"/>
<path d="M55.9999 157.77C56.1399 158.19 56.3099 158.65 56.1299 159.05C55.9499 159.45 55.4999 159.65 55.0899 159.8C54.5899 159.99 53.9699 160.15 53.5599 159.79C54.0199 159.53 54.5099 159.24 54.7599 158.77C55.0799 158.18 54.9699 157.46 54.8899 156.8C54.7799 155.9 54.7199 154.97 54.7799 154.07C54.7999 153.74 54.8799 152.72 55.1899 153.39C55.4299 153.92 55.3399 154.71 55.4199 155.28C55.5299 156.12 55.7199 156.96 55.9999 157.77Z" fill="#E68D6A"/>
<path d="M58.1099 163.87C56.1999 164.37 53.8699 164.37 51.9599 163.87C51.0399 163.63 49.6099 163.2 49.6199 162.89C49.4299 167.25 55.5999 168.6 58.5399 166.41C59.6099 165.62 60.5099 164.27 60.4499 162.89C60.4699 163.2 59.0299 163.63 58.1099 163.87Z" fill="#F93232"/>
<path d="M33.68 141.72C34.16 141.4 34.68 141.09 35.25 141.05C35.83 141.01 36.47 141.31 36.62 141.87C36.73 142.27 36.56 142.71 36.28 143.02C36 143.33 35.63 143.55 35.27 143.75C34.09 144.42 32.91 145.1 31.73 145.77C31.37 145.98 30.66 146.21 30.5 145.64C30.39 145.24 30.86 144.62 31.04 144.29C31.68 143.2 32.64 142.41 33.68 141.72Z" fill="#743501"/>
<path d="M76.3399 141.72C75.8599 141.4 75.3399 141.09 74.7699 141.05C74.1899 141.01 73.5499 141.31 73.3999 141.87C73.2899 142.27 73.4599 142.71 73.7399 143.02C74.0199 143.33 74.3899 143.55 74.7499 143.75C75.9299 144.42 77.1099 145.1 78.2899 145.77C78.6499 145.98 79.3599 146.21 79.5199 145.64C79.6299 145.24 79.1599 144.62 78.9799 144.29C78.3299 143.2 77.3799 142.41 76.3399 141.72Z" fill="#743501"/>
<path d="M78.91 222.52C78.38 215.2 77.8599 205.62 77.2699 202.36C76.6399 198.87 75.9599 195.39 75.2299 191.93C74.66 189.23 74.52 185.11 71.9799 183.58C70.82 182.88 69.6199 182.62 68.2999 182.86C68.2599 182.86 68.2099 182.87 68.1699 182.88C66.7199 183.17 65.3799 183.88 64.0399 184.54C60.0699 186.51 55.3499 187.35 50.9999 186.58C47.7899 186.01 44.5099 184.26 41.2199 183.96C39.7899 183.83 38.3599 183.97 36.9199 184.61C35.6899 185.15 35.1599 186.4 34.8799 187.79C34.6299 189.03 34.5899 190.37 34.4299 191.42C33.4299 197.93 32.6099 212.14 31.8199 222.54H78.91V222.52Z" fill="#46B755"/>
<path d="M68.31 182.85C66.07 187.35 60.31 190.09 55.53 190.32C51.83 190.5 47.99 189.47 45.07 187.14C43.8 186.13 42.49 185.07 41.23 183.95C44.53 184.25 47.8 186 51.01 186.57C55.35 187.34 60.08 186.5 64.05 184.53C65.39 183.87 66.73 183.15 68.18 182.87C68.22 182.86 68.26 182.85 68.31 182.85Z" fill="#3A9947"/>
<path d="M33.3599 222.52C33.2799 222.04 33.1999 221.57 33.1299 221.09C32.7899 218.81 32.6499 216.5 32.5999 214.16C32.5499 212.09 32.5299 210.06 30.8299 208.99C29.4699 208.13 27.5399 208.44 26.2399 209.72C24.8299 211.11 24.2999 213.32 24.1999 215.35C24.0799 217.84 24.4799 220.24 25.1399 222.53H33.3599V222.52Z" fill="#FAAB8C"/>
<path d="M37.4299 164.81C40.0035 164.81 42.0899 163.485 42.0899 161.85C42.0899 160.215 40.0035 158.89 37.4299 158.89C34.8563 158.89 32.7699 160.215 32.7699 161.85C32.7699 163.485 34.8563 164.81 37.4299 164.81Z" fill="#FA9193"/>
<path d="M72.5899 164.81C75.1636 164.81 77.2499 163.485 77.2499 161.85C77.2499 160.215 75.1636 158.89 72.5899 158.89C70.0163 158.89 67.9299 160.215 67.9299 161.85C67.9299 163.485 70.0163 164.81 72.5899 164.81Z" fill="#FA9193"/>
<path d="M29.9099 117.87C23.2699 122.82 18.1899 129.84 15.5699 137.7C16.7499 137.43 17.9299 137.16 19.0999 136.9C18.6599 139.39 18.2299 141.89 18.2399 144.42C18.2699 151.26 21.8199 157.98 27.4499 161.86C25.7699 153.31 25.5899 144.04 29.5799 136.29C31.3999 132.76 33.9999 129.7 36.7499 126.84C38.6799 124.83 40.7499 122.8 41.6299 120.16C42.4099 117.82 42.0199 113.62 38.8599 113.69C35.8399 113.74 32.2099 116.15 29.9099 117.87Z" fill="#743501"/>
<path d="M57.9199 136.82C62.8899 136.67 67.8499 135.86 72.5899 134.35C70.0399 132.22 67.4499 130.07 64.4799 128.59C69.7199 131.21 75.9599 131.98 79.3399 137.32C82.6599 142.59 84.5399 148.76 84.6599 154.99C88.0699 150.69 89.8599 145.2 90.0399 139.72C90.3899 128.85 84.4099 116.45 73.1999 113.18C76.2399 114.06 79.2699 114.95 82.3099 115.83C81.2799 111.36 77.0399 108.2 72.5899 107.08C68.1399 105.97 63.4599 106.52 58.8999 107.07C59.2999 106.77 59.6899 106.47 60.0899 106.17C58.3899 104.96 56.1299 104.89 54.0599 105.14C48.9299 105.74 45.4799 108.78 40.6699 110.11C40.3199 110.21 39.9599 110.3 39.6099 110.22C38.8599 110.05 38.4899 109.17 38.4499 108.4C38.4099 107.63 38.5599 106.83 38.3299 106.09C36.7599 108.2 35.1899 110.31 33.6199 112.42C32.3399 110.8 31.4899 108.84 31.1899 106.8C31.0699 108.92 30.8499 111.04 30.5299 113.14C30.4999 113.37 30.4499 113.62 30.2799 113.77C30.0599 113.96 29.7399 113.93 29.4599 113.89C28.3999 113.74 27.3399 113.58 26.2799 113.43C27.7299 114.56 29.2399 115.75 30.0199 117.41C31.6399 120.85 28.5299 124.61 30.1499 127.67C31.9099 130.99 35.6599 133.02 39.0799 134.13C45.1199 136.09 51.5399 137.01 57.9199 136.82Z" fill="#743501"/>
<path d="M78.23 131.24C75.31 128.33 71.6899 126.07 67.7799 124.74C65.6199 124.01 63.3699 123.48 61.0999 123.28C59.8299 123.17 58.2099 122.88 56.82 123.08C57.9899 124.92 59.85 126.28 60.56 128.47C60.75 129.04 60.34 129.89 59.7 129.98C56.9 130.39 53.9799 129.71 51.4 128.61C50.11 128.06 48.9499 127.27 47.7299 126.58C47.2299 126.3 46.7199 126 46.1799 125.8C46.1399 125.78 46.07 125.77 45.99 125.75C46.4499 126.92 46.2199 128.56 45.2299 129.27C43.8499 130.27 41.75 129.69 40.24 129.38C38.91 129.11 37.6399 128.73 36.3499 128.3C35.1599 127.9 33.3599 127 32.1199 127.3C30.8999 127.6 30.0899 129.03 29.3799 129.98C28.5599 131.07 27.7899 132.2 27.1099 133.38C23.7399 139.24 23.6999 145.59 24.7999 152.1C25.3199 155.17 25.8799 158.34 26.8199 161.36C27.0299 161.52 27.2399 161.68 27.4599 161.83C25.7799 153.28 25.5999 144.01 29.5899 136.26C30.5499 134.4 31.7299 132.67 33.0399 131.02C34.8299 132.43 37 133.43 39.0599 134.1C45.1299 136.07 51.5499 136.98 57.93 136.79C62.9 136.64 67.8599 135.83 72.5999 134.32C70.0499 132.19 67.4599 130.04 64.4899 128.56C69.7299 131.18 75.9699 131.95 79.3499 137.29C82.6699 142.56 84.5499 148.73 84.6699 154.96C84.8399 154.75 85 154.53 85.16 154.31C87.19 146 84.32 137.3 78.23 131.24Z" fill="#632D01"/>
<path d="M29.9899 117.41C31.0199 119.6 30.1399 121.91 29.7799 124.1C29.9599 124.1 30.1299 124.07 30.2599 123.96C30.4299 123.81 30.4799 123.56 30.5099 123.33C30.8299 121.23 31.0499 119.11 31.1699 116.99C31.4699 119.03 32.3199 120.99 33.5999 122.61C35.1699 120.5 36.7399 118.39 38.3099 116.28C38.5499 117.02 38.3899 117.81 38.4299 118.59C38.4699 119.36 38.8399 120.24 39.5899 120.41C39.9399 120.49 40.3099 120.4 40.6499 120.3C45.4599 118.97 48.8999 115.93 54.0399 115.33C56.1099 115.09 58.3699 115.15 60.0699 116.36C59.6699 116.66 59.2799 116.96 58.8799 117.26C63.4399 116.7 68.1099 116.15 72.5699 117.27C77.0199 118.38 81.2699 121.55 82.2999 126.02C79.2599 125.14 76.2299 124.25 73.1899 123.37C82.3399 126.03 88.0099 134.79 89.5899 143.84C89.8399 142.48 89.9899 141.1 90.0299 139.72C90.3799 128.85 84.3999 116.45 73.1899 113.18C76.2299 114.06 79.2599 114.95 82.2999 115.83C81.2699 111.36 77.0299 108.2 72.5699 107.08C68.1199 105.97 63.4399 106.52 58.8799 107.07C59.2799 106.77 59.6699 106.47 60.0699 106.17C58.3699 104.96 56.1099 104.89 54.0399 105.14C48.9099 105.74 45.4599 108.78 40.6499 110.11C40.2999 110.21 39.9399 110.3 39.5899 110.22C38.8399 110.05 38.4699 109.17 38.4299 108.4C38.3899 107.63 38.5399 106.83 38.3099 106.09C36.7399 108.2 35.1699 110.31 33.5999 112.42C32.3199 110.8 31.4699 108.84 31.1699 106.8C31.0499 108.92 30.8299 111.04 30.5099 113.14C30.4799 113.37 30.4299 113.62 30.2599 113.77C30.0399 113.96 29.7199 113.93 29.4399 113.89C28.3799 113.74 27.3199 113.58 26.2599 113.43C27.6999 114.55 29.1999 115.74 29.9899 117.41Z" fill="#823B01"/>
<path d="M42.97 149.64C41.62 148.4 39.57 148 37.82 148.71C36.98 149.05 36.26 149.62 35.76 150.33C35.24 151.07 35.03 151.99 34.33 152.62C34.01 152.91 34.5 153.37 34.82 153.08C35.42 152.54 35.7 151.84 36.06 151.16C36.44 150.45 36.99 149.87 37.74 149.47C39.29 148.66 41.23 148.94 42.48 150.1C42.8 150.39 43.29 149.93 42.97 149.64Z" fill="#743501"/>
<path d="M66.2699 149.64C67.6199 148.4 69.6699 148 71.4199 148.71C72.2599 149.05 72.98 149.62 73.48 150.33C74 151.07 74.21 151.99 74.91 152.62C75.23 152.91 74.7399 153.37 74.4199 153.08C73.8199 152.54 73.54 151.84 73.18 151.16C72.8 150.45 72.25 149.87 71.5 149.47C69.95 148.66 68.01 148.94 66.76 150.1C66.44 150.39 65.9499 149.93 66.2699 149.64Z" fill="#743501"/>
<path d="M69.21 151.58C69.696 151.58 70.09 151.186 70.09 150.7C70.09 150.214 69.696 149.82 69.21 149.82C68.7239 149.82 68.33 150.214 68.33 150.7C68.33 151.186 68.7239 151.58 69.21 151.58Z" fill="white"/>
<path d="M24.12 191.29C22.48 193.41 21.49 195.95 21.1 198.8C20.71 201.63 20.85 204.51 21.03 207.36C21.23 210.54 21.5 213.87 23.19 216.58C23.32 216.79 23.47 217.01 23.7 217.1C23.94 217.2 24.22 217.14 24.47 217.08C27.55 216.35 30.57 215.36 33.48 214.13C33.74 214.02 34 213.9 34.17 213.68C34.3 213.51 34.36 213.3 34.42 213.09C34.98 211.03 35.54 208.98 36.1 206.92C36.57 205.2 37.25 203.61 37.72 201.91C38.46 199.21 39.65 196.35 39.83 193.57C40.04 190.2 43.51 183.68 39.05 183.92C35.03 184.13 30.9 185.92 27.58 188.11C26.21 189.01 25.06 190.08 24.12 191.29Z" fill="#46B755"/>
<path d="M84.02 222.52C85.03 220.62 85.84 218.58 86.25 216.38C86.62 214.39 86.62 212.11 85.57 210.43C84.6 208.88 82.8 208.14 81.28 208.66C79.37 209.31 78.88 211.28 78.36 213.28C77.77 215.55 77.09 217.76 76.23 219.9C75.88 220.79 75.49 221.66 75.09 222.52H84.02Z" fill="#FAAB8C"/>
<path d="M86.01 191.2C88.58 194.42 89.3 198.07 89.68 202.04C89.89 204.18 90.03 206.34 89.99 208.49C89.95 210.5 89.55 212.26 89.17 214.21C89.12 214.45 89.07 214.7 88.91 214.88C88.62 215.2 88.11 215.16 87.68 215.1C83.59 214.47 79.54 213.64 75.53 212.63C75.39 212.59 74.66 208.72 74.53 208.29C74.12 207.04 73.71 205.84 73.35 204.59C72.46 201.45 71.61 198.3 70.72 195.15C70.03 192.7 69.36 190.28 68.66 187.83C68.3 186.55 67.37 183.92 68.85 183C69.21 182.78 69.67 182.75 70.08 182.77C74.85 183.01 83.09 187.56 86.01 191.2Z" fill="#46B755"/>
<path d="M64.68 204.96C63.92 204.92 63.3 204.89 62.63 204.47C62.02 204.09 61.56 203.53 61.31 202.86C61.1 202.3 60.95 201.67 60.48 201.26C59.91 200.76 59.09 200.88 58.39 200.89C57.49 200.91 56.58 200.92 55.68 200.94C55.2 200.95 54.72 200.96 54.23 200.97C53.77 200.98 53.27 200.93 52.82 201.05C52.01 201.26 51.59 202.25 51.17 202.89C50.88 203.33 50.59 203.76 50.3 204.2C50.02 204.62 49.78 205.2 49.25 205.29C48.76 205.38 48.22 205.35 47.72 205.37C47.18 205.39 46.63 205.42 46.09 205.44C45.94 205.45 45.84 205.53 45.78 205.64C45.68 205.67 45.59 205.75 45.55 205.87C45.31 206.55 45.16 207.27 45.14 208C45.13 208.5 45.22 209 45.77 209.17C46.37 209.35 47.13 209.22 47.75 209.2C48.42 209.19 49.1 209.18 49.77 209.16C50.06 210.28 51.25 210.99 52.4 210.49C52.67 210.37 52.91 210.2 53.09 209.98C53.31 209.72 53.42 209.25 53.72 209.11C54.06 208.95 54.62 209.05 55 209.04C55.49 209.03 55.97 209.03 56.46 209.02C56.92 209.01 57.37 209.01 57.83 209C58 209 58.24 208.95 58.39 209.03C58.53 209.11 58.56 209.28 58.63 209.42C58.9 209.99 59.42 210.35 60.06 210.39C60.7 210.44 61.32 210.13 61.77 209.69C61.99 209.47 62.15 209.21 62.34 208.96C62.64 208.56 62.96 208.5 63.44 208.49C64.07 208.47 64.66 208.36 65.05 207.81C65.41 207.32 65.51 206.68 65.55 206.08C65.61 205.47 65.37 204.99 64.68 204.96Z" fill="#3A9947"/>
<path d="M153.12 222.52L153.12 9.47998L8.87 9.47998L8.87 222.52L153.12 222.52Z" stroke="white" stroke-width="5.1781" stroke-miterlimit="10"/>
</g>
<defs>
<clipPath id="clip0_1_5150">
<rect width="162" height="232" fill="white"/>
</clipPath>
</defs>
</svg>
