<svg width="162" height="232" viewBox="0 0 162 232" fill="none" xmlns="http://www.w3.org/2000/svg">
<g clip-path="url(#clip0_1_4201)">
<path d="M162 0H0V232H162V0Z" fill="#3F8CFF"/>
<path d="M9.05996 222.34H7.20996V224.19H9.05996V222.34Z" fill="#C5DFFC"/>
<path d="M9.05996 220.49H7.20996V218.64H9.05996V220.49ZM9.05996 216.79H7.20996V214.94H9.05996V216.79ZM9.05996 213.09H7.20996V211.24H9.05996V213.09ZM9.05996 209.39H7.20996V207.54H9.05996V209.39ZM9.05996 205.69H7.20996V203.84H9.05996V205.69ZM9.05996 201.99H7.20996V200.14H9.05996V201.99ZM9.05996 198.29H7.20996V196.44H9.05996V198.29ZM9.05996 194.6H7.20996V192.75H9.05996V194.6ZM9.05996 190.9H7.20996V189.05H9.05996V190.9ZM9.05996 187.2H7.20996V185.35H9.05996V187.2ZM9.05996 183.5H7.20996V181.65H9.05996V183.5ZM9.05996 179.8H7.20996V177.95H9.05996V179.8ZM9.05996 176.1H7.20996V174.25H9.05996V176.1ZM9.05996 172.4H7.20996V170.55H9.05996V172.4ZM9.05996 168.71H7.20996V166.86H9.05996V168.71ZM9.05996 165.01H7.20996V163.16H9.05996V165.01ZM9.05996 161.31H7.20996V159.46H9.05996V161.31ZM9.05996 157.61H7.20996V155.76H9.05996V157.61ZM9.05996 153.91H7.20996V152.06H9.05996V153.91ZM9.05996 150.21H7.20996V148.36H9.05996V150.21ZM9.05996 146.51H7.20996V144.66H9.05996V146.51ZM9.05996 142.81H7.20996V140.96H9.05996V142.81ZM9.05996 139.12H7.20996V137.27H9.05996V139.12ZM9.05996 135.42H7.20996V133.57H9.05996V135.42ZM9.05996 131.72H7.20996V129.87H9.05996V131.72ZM9.05996 128.02H7.20996V126.17H9.05996V128.02ZM9.05996 124.32H7.20996V122.47H9.05996V124.32ZM9.05996 120.62H7.20996V118.77H9.05996V120.62ZM9.05996 116.92H7.20996V115.07H9.05996V116.92ZM9.05996 113.23H7.20996V111.38H9.05996V113.23ZM9.05996 109.53H7.20996V107.68H9.05996V109.53ZM9.05996 105.83H7.20996V103.98H9.05996V105.83ZM9.05996 102.13H7.20996V100.28H9.05996V102.13ZM9.05996 98.43H7.20996V96.58H9.05996V98.43ZM9.05996 94.73H7.20996V92.88H9.05996V94.73ZM9.05996 91.03H7.20996V89.18H9.05996V91.03ZM9.05996 87.34H7.20996V85.49H9.05996V87.34ZM9.05996 83.64H7.20996V81.79H9.05996V83.64ZM9.05996 79.94H7.20996V78.09H9.05996V79.94ZM9.05996 76.24H7.20996V74.39H9.05996V76.24ZM9.05996 72.54H7.20996V70.69H9.05996V72.54ZM9.05996 68.84H7.20996V66.99H9.05996V68.84ZM9.05996 65.14H7.20996V63.29H9.05996V65.14ZM9.05996 61.44H7.20996V59.6H9.05996V61.44ZM9.05996 57.75H7.20996V55.9H9.05996V57.75ZM9.05996 54.05H7.20996V52.2H9.05996V54.05ZM9.05996 50.35H7.20996V48.5H9.05996V50.35ZM9.05996 46.65H7.20996V44.8H9.05996V46.65ZM9.05996 42.95H7.20996V41.1H9.05996V42.95ZM9.05996 39.25H7.20996V37.4H9.05996V39.25ZM9.05996 35.55H7.20996V33.7H9.05996V35.55ZM9.05996 31.86H7.20996V30.01H9.05996V31.86ZM9.05996 28.16H7.20996V26.31H9.05996V28.16ZM9.05996 24.46H7.20996V22.61H9.05996V24.46ZM9.05996 20.76H7.20996V18.91H9.05996V20.76ZM9.05996 17.06H7.20996V15.21H9.05996V17.06ZM9.05996 13.36H7.20996V11.51H9.05996V13.36Z" fill="#C5DFFC"/>
<path d="M9.05996 7.81006H7.20996V9.66006H9.05996V7.81006Z" fill="#C5DFFC"/>
<path d="M151.07 9.66006H149.2V7.81006H151.07V9.66006ZM147.33 9.66006H145.46V7.81006H147.33V9.66006ZM143.6 9.66006H141.73V7.81006H143.6V9.66006ZM139.86 9.66006H137.99V7.81006H139.86V9.66006ZM136.12 9.66006H134.25V7.81006H136.12V9.66006ZM132.38 9.66006H130.51V7.81006H132.38V9.66006ZM128.65 9.66006H126.78V7.81006H128.65V9.66006ZM124.91 9.66006H123.04V7.81006H124.91V9.66006ZM121.17 9.66006H119.3V7.81006H121.17V9.66006ZM117.44 9.66006H115.57V7.81006H117.44V9.66006ZM113.7 9.66006H111.83V7.81006H113.7V9.66006ZM109.96 9.66006H108.09V7.81006H109.96V9.66006ZM106.23 9.66006H104.36V7.81006H106.23V9.66006ZM102.49 9.66006H100.62V7.81006H102.49V9.66006ZM98.7499 9.66006H96.8799V7.81006H98.7499V9.66006ZM95.0099 9.66006H93.1399V7.81006H95.0099V9.66006ZM91.2799 9.66006H89.4099V7.81006H91.2799V9.66006ZM87.5399 9.66006H85.6699V7.81006H87.5399V9.66006ZM83.7999 9.66006H81.9299V7.81006H83.7999V9.66006ZM80.0699 9.66006H78.1999V7.81006H80.0699V9.66006ZM76.3299 9.66006H74.4599V7.81006H76.3299V9.66006ZM72.5899 9.66006H70.7199V7.81006H72.5899V9.66006ZM68.8499 9.66006H66.9799V7.81006H68.8499V9.66006ZM65.1199 9.66006H63.2499V7.81006H65.1199V9.66006ZM61.3799 9.66006H59.5099V7.81006H61.3799V9.66006ZM57.6399 9.66006H55.7699V7.81006H57.6399V9.66006ZM53.9099 9.66006H52.0399V7.81006H53.9099V9.66006ZM50.1699 9.66006H48.2999V7.81006H50.1699V9.66006ZM46.4299 9.66006H44.5599V7.81006H46.4299V9.66006ZM42.6899 9.66006H40.8199V7.81006H42.6899V9.66006ZM38.9599 9.66006H37.0899V7.81006H38.9599V9.66006ZM35.2199 9.66006H33.3499V7.81006H35.2199V9.66006ZM31.4799 9.66006H29.6099V7.81006H31.4799V9.66006ZM27.7499 9.66006H25.8799V7.81006H27.7499V9.66006ZM24.0099 9.66006H22.1399V7.81006H24.0099V9.66006ZM20.2699 9.66006H18.3999V7.81006H20.2699V9.66006ZM16.5399 9.66006H14.6699V7.81006H16.5399V9.66006ZM12.7999 9.66006H10.9299V7.81006H12.7999V9.66006Z" fill="#C5DFFC"/>
<path d="M154.79 7.81006H152.94V9.66006H154.79V7.81006Z" fill="#C5DFFC"/>
<path d="M154.79 220.49H152.94V218.64H154.79V220.49ZM154.79 216.79H152.94V214.94H154.79V216.79ZM154.79 213.09H152.94V211.24H154.79V213.09ZM154.79 209.39H152.94V207.54H154.79V209.39ZM154.79 205.69H152.94V203.84H154.79V205.69ZM154.79 201.99H152.94V200.14H154.79V201.99ZM154.79 198.29H152.94V196.44H154.79V198.29ZM154.79 194.6H152.94V192.75H154.79V194.6ZM154.79 190.9H152.94V189.05H154.79V190.9ZM154.79 187.2H152.94V185.35H154.79V187.2ZM154.79 183.5H152.94V181.65H154.79V183.5ZM154.79 179.8H152.94V177.95H154.79V179.8ZM154.79 176.1H152.94V174.25H154.79V176.1ZM154.79 172.4H152.94V170.55H154.79V172.4ZM154.79 168.71H152.94V166.86H154.79V168.71ZM154.79 165.01H152.94V163.16H154.79V165.01ZM154.79 161.31H152.94V159.46H154.79V161.31ZM154.79 157.61H152.94V155.76H154.79V157.61ZM154.79 153.91H152.94V152.06H154.79V153.91ZM154.79 150.21H152.94V148.36H154.79V150.21ZM154.79 146.51H152.94V144.66H154.79V146.51ZM154.79 142.81H152.94V140.96H154.79V142.81ZM154.79 139.12H152.94V137.27H154.79V139.12ZM154.79 135.42H152.94V133.57H154.79V135.42ZM154.79 131.72H152.94V129.87H154.79V131.72ZM154.79 128.02H152.94V126.17H154.79V128.02ZM154.79 124.32H152.94V122.47H154.79V124.32ZM154.79 120.62H152.94V118.77H154.79V120.62ZM154.79 116.92H152.94V115.07H154.79V116.92ZM154.79 113.23H152.94V111.38H154.79V113.23ZM154.79 109.53H152.94V107.68H154.79V109.53ZM154.79 105.83H152.94V103.98H154.79V105.83ZM154.79 102.13H152.94V100.28H154.79V102.13ZM154.79 98.43H152.94V96.58H154.79V98.43ZM154.79 94.73H152.94V92.88H154.79V94.73ZM154.79 91.03H152.94V89.18H154.79V91.03ZM154.79 87.34H152.94V85.49H154.79V87.34ZM154.79 83.64H152.94V81.79H154.79V83.64ZM154.79 79.94H152.94V78.09H154.79V79.94ZM154.79 76.24H152.94V74.39H154.79V76.24ZM154.79 72.54H152.94V70.69H154.79V72.54ZM154.79 68.84H152.94V66.99H154.79V68.84ZM154.79 65.14H152.94V63.29H154.79V65.14ZM154.79 61.45H152.94V59.6H154.79V61.45ZM154.79 57.75H152.94V55.9H154.79V57.75ZM154.79 54.05H152.94V52.2H154.79V54.05ZM154.79 50.35H152.94V48.5H154.79V50.35ZM154.79 46.65H152.94V44.8H154.79V46.65ZM154.79 42.95H152.94V41.1H154.79V42.95ZM154.79 39.25H152.94V37.4H154.79V39.25ZM154.79 35.55H152.94V33.7H154.79V35.55ZM154.79 31.86H152.94V30.01H154.79V31.86ZM154.79 28.16H152.94V26.31H154.79V28.16ZM154.79 24.46H152.94V22.61H154.79V24.46ZM154.79 20.76H152.94V18.91H154.79V20.76ZM154.79 17.06H152.94V15.21H154.79V17.06ZM154.79 13.36H152.94V11.51H154.79V13.36Z" fill="#C5DFFC"/>
<path d="M154.79 222.34H152.94V224.19H154.79V222.34Z" fill="#C5DFFC"/>
<path d="M151.07 224.18H149.2V222.33H151.07V224.18ZM147.33 224.18H145.46V222.33H147.33V224.18ZM143.6 224.18H141.73V222.33H143.6V224.18ZM139.86 224.18H137.99V222.33H139.86V224.18ZM136.12 224.18H134.25V222.33H136.12V224.18ZM132.38 224.18H130.51V222.33H132.38V224.18ZM128.65 224.18H126.78V222.33H128.65V224.18ZM124.91 224.18H123.04V222.33H124.91V224.18ZM121.17 224.18H119.3V222.33H121.17V224.18ZM117.44 224.18H115.57V222.33H117.44V224.18ZM113.7 224.18H111.83V222.33H113.7V224.18ZM109.96 224.18H108.09V222.33H109.96V224.18ZM106.23 224.18H104.36V222.33H106.23V224.18ZM102.49 224.18H100.62V222.33H102.49V224.18ZM98.7499 224.18H96.8799V222.33H98.7499V224.18ZM95.0099 224.18H93.1399V222.33H95.0099V224.18ZM91.2799 224.18H89.4099V222.33H91.2799V224.18ZM87.5399 224.18H85.6699V222.33H87.5399V224.18ZM83.7999 224.18H81.9299V222.33H83.7999V224.18ZM80.0699 224.18H78.1999V222.33H80.0699V224.18ZM76.3299 224.18H74.4599V222.33H76.3299V224.18ZM72.5899 224.18H70.7199V222.33H72.5899V224.18ZM68.8499 224.18H66.9799V222.33H68.8499V224.18ZM65.1199 224.18H63.2499V222.33H65.1199V224.18ZM61.3799 224.18H59.5099V222.33H61.3799V224.18ZM57.6399 224.18H55.7699V222.33H57.6399V224.18ZM53.9099 224.18H52.0399V222.33H53.9099V224.18ZM50.1699 224.18H48.2999V222.33H50.1699V224.18ZM46.4299 224.18H44.5599V222.33H46.4299V224.18ZM42.6999 224.18H40.8299V222.33H42.6999V224.18ZM38.9599 224.18H37.0899V222.33H38.9599V224.18ZM35.2199 224.18H33.3499V222.33H35.2199V224.18ZM31.4799 224.18H29.6099V222.33H31.4799V224.18ZM27.7499 224.18H25.8799V222.33H27.7499V224.18ZM24.0099 224.18H22.1399V222.33H24.0099V224.18ZM20.2699 224.18H18.3999V222.33H20.2699V224.18ZM16.5399 224.18H14.6699V222.33H16.5399V224.18ZM12.7999 224.18H10.9299V222.33H12.7999V224.18Z" fill="#C5DFFC"/>
<path d="M146.84 216.24L146.84 15.7699L15.17 15.7699L15.17 216.24L146.84 216.24Z" fill="#86BCFC"/>
<path d="M137.9 107.93C137.9 99.7 127.94 93.04 115.66 93.04C115.1 93.04 114.55 93.06 114 93.09C114.02 92.86 114.03 92.62 114.03 92.39C114.03 84.16 104.07 77.5 91.79 77.5C87.88 77.5 84.2 78.18 81.01 79.37C77.82 78.18 74.14 77.5 70.23 77.5C57.95 77.5 47.99 84.17 47.99 92.39C47.99 92.63 48 92.86 48.02 93.09C47.47 93.06 46.92 93.04 46.36 93.04C34.08 93.04 24.12 99.71 24.12 107.93C24.12 112.73 27.52 117 32.78 119.72C32.52 120.62 32.38 121.56 32.38 122.51C32.38 129.49 39.56 135.35 49.24 136.96C52.28 142.76 60.53 146.92 70.23 146.92C74.14 146.92 77.82 146.24 81.01 145.05C84.2 146.24 87.88 146.92 91.79 146.92C101.49 146.92 109.74 142.76 112.78 136.96C122.46 135.35 129.64 129.49 129.64 122.51C129.64 121.56 129.5 120.62 129.24 119.72C134.5 117 137.9 112.74 137.9 107.93Z" fill="#F0F9FF"/>
<path d="M47.38 93.06C47.59 93.07 47.8 93.07 48.01 93.09C47.99 92.86 47.98 92.62 47.98 92.39C47.98 92.33 47.99 92.28 47.99 92.22C47.77 92.49 47.56 92.78 47.38 93.06Z" fill="#C5DFFC"/>
<path d="M114.62 93.06C114.43 92.77 114.23 92.49 114.01 92.21C114.01 92.27 114.02 92.32 114.02 92.38C114.02 92.62 114.01 92.85 113.99 93.08C114.21 93.08 114.41 93.07 114.62 93.06Z" fill="#C5DFFC"/>
<path d="M141.85 113.36C141.85 110.28 140.23 107.42 137.49 105.08C137.76 106 137.9 106.96 137.9 107.94C137.9 112.74 134.5 117.01 129.24 119.73C129.5 120.63 129.64 121.57 129.64 122.52C129.64 129.5 122.46 135.36 112.78 136.97C109.74 142.77 101.49 146.93 91.79 146.93C87.88 146.93 84.2001 146.25 81.01 145.06C77.82 146.25 74.14 146.93 70.23 146.93C60.53 146.93 52.28 142.77 49.24 136.97C39.56 135.36 32.38 129.5 32.38 122.52C32.38 121.57 32.52 120.63 32.78 119.73C27.51 117.01 24.12 112.74 24.12 107.94C24.12 106.96 24.26 106.01 24.53 105.08C21.78 107.42 20.17 110.27 20.17 113.36C20.17 117.99 23.8 122.1 29.43 124.72C29.16 125.59 29.01 126.49 29.01 127.41C29.01 134.14 36.69 139.78 47.04 141.34C50.29 146.93 59.1101 150.94 69.48 150.94C73.67 150.94 77.6 150.29 81.01 149.14C84.43 150.29 88.36 150.94 92.54 150.94C102.91 150.94 111.73 146.93 114.98 141.34C125.34 139.79 133.01 134.14 133.01 127.41C133.01 126.49 132.86 125.59 132.59 124.72C138.22 122.1 141.85 117.98 141.85 113.36Z" fill="#C5DFFC"/>
<path d="M63.97 108.77H61.52V99.05H56.78V108.77H54.33V97.04H63.98V108.77H63.97Z" fill="#183B59"/>
<path d="M68.81 97.04V104.42H68.91L73.98 97.04H76.15V108.77H73.67V101.39H73.58L68.48 108.77H66.33V97.04H68.81Z" fill="#183B59"/>
<path d="M77.74 97.04H87.38V99.09H83.79V108.78H81.34V99.09H77.75V97.04H77.74Z" fill="#183B59"/>
<path d="M88.96 97.04H96.87V99.09H91.45V101.89H96.47V103.94H91.45V106.74H96.9V108.79H88.97V97.04H88.96Z" fill="#183B59"/>
<path d="M98.84 97.04H103.47C106.13 97.04 107.67 98.68 107.67 101.02C107.67 103.36 106.1 104.97 103.4 104.97H101.31V108.77H98.83V97.04H98.84ZM103 102.98C104.42 102.98 105.11 102.18 105.11 101.02C105.11 99.85 104.42 99.07 102.98 99.07H101.31V102.98H103Z" fill="#183B59"/>
<path d="M75.6599 128.12H73.2099V118.4H68.4699V128.12H66.0199V116.39H75.6699V128.12H75.6599Z" fill="#183B59"/>
<path d="M80.2899 124.28C80.3799 125.63 81.1099 126.31 82.5999 126.31C84.2299 126.31 84.8999 125.23 85.0199 123.38H81.3099V121.39H85.0299C84.9399 119.35 84.1499 118.24 82.5799 118.24C80.9199 118.24 80.3799 119.02 80.2799 120.34H77.8099C78.0299 118.03 79.5599 116.23 82.5799 116.23C85.5599 116.23 87.4799 118.39 87.4799 121.8V122.75C87.4799 126.16 85.6399 128.28 82.5999 128.28C79.6999 128.28 77.9899 126.65 77.8199 124.28H80.2899Z" fill="#183B59"/>
<path d="M89.3099 116.39H91.7899V121.23H96.8299V116.39H99.2999V128.12H96.8299V123.27H91.7899V128.12H89.3099V116.39Z" fill="#183B59"/>
<path d="M52.68 42.09C52.76 42.15 52.83 42.21 52.91 42.28C54.18 43.46 55.18 46.44 54.37 48.33C53.63 50.07 51.39 50.26 49.72 50.09C49.41 50.06 45.87 49.58 45.87 49.55C45.15 52.63 40.15 54.5 37.55 52.46C37.37 52.32 36.36 51.46 36.46 51.22C34.73 55.18 30.53 54.6 27.94 52.57C26.9 51.76 25.93 50.65 25.58 49.17C24.85 50.24 24.04 51.38 22.95 51.67C21.35 52.1 19.67 50.1 19.91 48.04C18.8 48.67 17.62 49.17 16.41 49.11C15.2 49.05 13.96 48.34 13.36 47.01C12.86 45.91 12.87 44.47 13.39 43.38C14.29 41.47 15.7 41.74 17.17 41.75C18.43 41.76 19.69 41.77 20.95 41.78C23.91 41.81 26.87 41.83 29.83 41.86C33.96 41.9 38.09 41.93 42.23 41.97C44.32 41.99 46.42 42.01 48.51 42.02C48.94 42.02 49.49 42.15 49.91 42.05C50.24 41.97 50.52 41.69 50.87 41.62C51.46 41.48 52.13 41.68 52.68 42.09Z" fill="#3F8CFF"/>
<path d="M35.4799 26.44C34.3599 25.64 32.7599 25.45 31.6299 26.37C31.5399 25.33 30.6099 24.44 29.6299 24.45C28.6499 24.46 27.7599 25.38 27.7199 26.42C27.4499 25.53 26.1999 25.36 25.5199 25.94C24.8399 26.53 24.6499 27.55 24.6499 28.48C24.6499 27.58 23.7899 26.46 22.9899 26.06C21.9899 25.56 20.9799 25.93 20.1799 26.6C19.6999 27.01 18.9399 28.02 18.9399 28.02C18.9399 28.02 17.6199 28.04 16.9699 27.99C15.5199 27.87 13.8199 28.09 13.1699 29.53C12.5599 30.89 12.8499 32.87 14.1499 33.78C13.2499 33.83 12.3299 33.89 11.5199 34.29C10.7099 34.69 10.0199 35.52 10.0199 36.48C10.0199 36.96 10.1899 37.42 10.4199 37.84C11.0999 39.11 12.3199 40.04 13.6699 40.31C12.7399 40.72 11.7899 41.15 11.0399 41.87C10.2899 42.59 9.78995 43.69 9.98995 44.75C10.2099 45.94 11.2499 46.78 12.3299 47.17C14.8699 48.09 17.9199 46.84 19.1999 44.35C22.0399 47.25 27.0099 47.28 29.8099 44.41C30.2799 47.09 32.3599 49.38 34.8499 49.97C37.3399 50.56 40.0899 49.41 41.5199 47.18C43.1099 48.72 45.4099 49.37 47.4799 48.85C48.8099 48.52 50.0999 47.65 50.6199 46.31C51.1399 44.97 50.6399 43.14 49.3699 42.57C50.3999 43.58 51.7299 44.24 53.1099 44.42C54.1499 44.55 55.3099 44.37 55.9899 43.53C56.6699 42.69 56.4999 41.1 55.5099 40.74C57.7999 41.06 60.1999 40 61.5999 38.05C62.3299 37.04 62.7899 35.76 62.6599 34.48C62.5199 33.2 61.6899 31.97 60.5199 31.65C58.8499 31.19 57.3699 32.95 56.2099 33.84C56.2699 32.21 56.1899 31.07 55.2399 29.69C54.1399 28.09 52.5199 26.7 50.5499 26.21C48.5399 25.71 46.2399 26.12 45.4599 28.13C44.7199 27.27 44.0099 26.5 42.8099 26.3C40.6599 25.95 39.2799 27.41 38.0499 28.84C37.6699 29.28 37.2199 30.01 36.5599 30.03C36.2899 29.48 36.8799 28.88 36.74 28.25C36.59 27.55 36.0999 26.89 35.4799 26.44Z" fill="#C5DFFC"/>
<path d="M41.86 30.64C42.27 30.23 43.45 30.35 43.96 30.93C44.44 29.56 44.88 28.83 46.16 28.51C47.44 28.19 48.7 28.6 49.35 29.82C50.08 29.03 51.38 29.24 52.18 30.08C52.78 30.71 53.1 32.2 51.73 32.65C51.44 32.74 51.13 32.71 50.83 32.69C48.91 32.51 46.98 32.49 45.06 32.62C44.34 32.67 43.05 33.06 42.4 32.78C41.71 32.47 41.45 31.05 41.86 30.64Z" fill="#A5CBF2"/>
<path d="M35.28 43.51C35.16 43.63 35.13 43.75 35.01 43.88C34.53 44.35 34.11 44.81 33.28 45.05C31.64 45.53 30.32 44.89 29.57 44.01C29.2 44.17 28.98 44.37 28.57 44.52C27.49 44.91 26.35 44.56 25.6 44.05C25.22 43.8 24.92 43.51 24.69 43.18C24.56 43 24.45 42.81 24.35 42.61C24.29 42.48 23.97 42.02 24.05 41.89C23.8 42.24 23.75 42.62 23.77 43C23.81 43.58 24.1 44.15 24.63 44.61C25.18 45.08 25.93 45.24 26.87 45.2C27.4 45.18 28.06 45.12 28.51 44.91C29.2 45.66 30.36 46.07 31.72 45.88C32.92 45.71 34.14 45.2 34.84 44.52C35.13 44.24 35.52 43.84 35.28 43.51Z" fill="#3F8CFF"/>
<path d="M44.5 44.0201C44.28 43.4701 44.22 42.7801 44.28 42.2001C44.48 42.6801 44.96 42.9001 45.41 42.9901C45.74 43.0601 46.11 43.0901 46.39 42.8701C46.68 42.6501 46.81 42.2301 46.92 41.8501C47.53 42.4901 48.37 42.8101 49.18 42.7201C49.54 42.6801 49.9 42.5501 50.17 42.2601C50.52 41.8701 50.63 41.2701 50.71 40.7201C51.08 41.9401 51.29 43.9701 49.72 44.0201C48.99 44.0401 48.19 43.6901 47.6 43.2801C47.71 43.3501 47.19 43.9901 47.14 44.0601C46.87 44.4101 46.52 44.7001 46.05 44.7901C45.56 44.8901 44.9 44.7801 44.61 44.2601C44.58 44.1901 44.54 44.1001 44.5 44.0201Z" fill="#3F8CFF"/>
<path d="M32.18 30.09C31.6 29.42 30.26 28.87 29.22 28.81C28.21 28.76 27.1 29.46 26.48 29.98C25.92 29.63 24.84 29.36 24.13 29.59C23.42 29.82 22.82 30.48 22.54 31.15C21.83 30.52 20.98 29.9 18.96 30.27C16.94 30.64 16.27 31.61 16.1 32.42L23.32 34.19L26.56 31.47L29.19 32.65C29.2 32.66 32.79 30.45 32.18 30.09Z" fill="#A5CBF2"/>
<path d="M44.28 33.45C43.5 32.99 42.76 33.52 42.14 34.13C42.08 34.19 41.38 34.89 41.32 34.82C40.78 34.23 40.51 32.3 41.68 32.03C42.28 31.89 42.94 32.2 43.35 32.58C43.52 31.69 44.09 30.91 44.83 30.4C46.68 29.13 48.52 29.19 49 31.49C48.98 31.41 49.58 30.98 49.67 30.92C50.55 30.29 51.44 30.43 52.05 31.2C52.46 31.71 52.55 32.37 52.5 33.04C52.49 33.17 52.43 34.41 52.24 34.42C53.25 34.41 54.43 34.62 55.18 35.27C55.83 35.83 55.88 36.79 55.47 37.61C55.03 38.48 54.18 39.36 53.23 39.61C53.15 39.63 53.09 39.63 53.02 39.64C53.56 38.43 53.46 36.69 52.47 35.92C51.79 35.39 51.01 35.68 50.23 35.83C50.41 35.18 50.81 34.48 50.37 33.86C49.29 32.32 46.09 32.55 44.9 34.26C45.04 34.06 44.45 33.55 44.32 33.47C44.29 33.45 44.29 33.45 44.28 33.45Z" fill="#E6F2FF"/>
<path d="M14.44 35.9701C14.5 35.9901 14.58 35.8701 14.62 35.8301C14.79 35.6601 14.96 35.4701 15.14 35.3301C16.29 34.4201 17.77 34.0601 19.37 34.3701C20 34.4901 20.65 34.7301 21.28 35.1201C21.97 35.5501 22.57 36.2201 23.09 36.9601C23.36 36.4001 23.64 35.8401 23.93 35.2901C24.44 34.3201 25.06 33.1401 26.12 32.9301C26.65 32.8301 27.26 32.9101 27.82 33.3101C28.47 33.7701 28.81 34.6501 29.29 35.3301C29.64 34.0901 30.12 32.7701 31.17 32.3001C31.85 32.0001 33.01 31.9101 33.77 32.6801C34.62 33.5501 35.04 34.7201 35.25 35.8801C35.23 35.7501 35.69 35.4401 35.76 35.3701C35.97 35.1501 36.13 34.8901 36.23 34.5601C36.61 33.3301 36.05 31.6201 34.91 30.6801C33.88 29.8201 32.57 29.7101 31.55 30.1201C30.53 30.5301 29.76 31.3801 29.1 32.3101C28.47 30.5501 26.28 29.5401 25.13 30.5001C24.35 31.1501 24.15 32.3801 23.98 33.5301C23.09 32.4501 21.84 31.9201 20.66 31.6401C19.09 31.2801 17.52 31.4201 16.27 32.1101C15.7 32.4201 15.2 32.7401 14.84 33.3601C14.64 33.7201 14.48 34.1401 14.4 34.6001C14.34 34.9501 14.26 35.3301 14.33 35.7301C14.34 35.7801 14.36 35.9501 14.4 35.9801C14.43 35.9601 14.44 35.9701 14.44 35.9701Z" fill="#E6F2FF"/>
<path d="M146.95 78.9201C146.99 78.9501 147.03 78.9801 147.07 79.0201C147.72 79.6301 148.23 81.1501 147.82 82.1101C147.44 83.0001 146.3 83.1001 145.44 83.0101C145.28 82.9901 143.47 82.7501 143.47 82.7301C143.1 84.3101 140.54 85.2601 139.21 84.2201C139.12 84.1501 138.6 83.7101 138.65 83.5801C137.76 85.6101 135.62 85.3101 134.29 84.2701C133.76 83.8501 133.26 83.2901 133.08 82.5301C132.71 83.0801 132.29 83.6601 131.73 83.8101C130.91 84.0301 130.05 83.0001 130.17 81.9501C129.6 82.2701 129 82.5301 128.38 82.5001C127.76 82.4701 127.13 82.1101 126.82 81.4301C126.57 80.8701 126.57 80.1301 126.83 79.5701C127.29 78.5901 128.01 78.7301 128.76 78.7401C129.4 78.7501 130.05 78.7501 130.69 78.7601C132.2 78.7701 133.72 78.7901 135.23 78.8001C137.34 78.8201 139.46 78.8401 141.57 78.8501C142.64 78.8601 143.71 78.8701 144.78 78.8801C145 78.8801 145.28 78.9501 145.49 78.8901C145.66 78.8501 145.8 78.7101 145.98 78.6701C146.33 78.6101 146.67 78.7101 146.95 78.9201Z" fill="#3F8CFF"/>
<path d="M138.15 70.9201C137.58 70.5101 136.76 70.4101 136.18 70.8801C136.13 70.3501 135.66 69.8901 135.16 69.9001C134.66 69.9101 134.21 70.3701 134.18 70.9101C134.04 70.4501 133.4 70.3701 133.06 70.6701C132.71 70.9701 132.61 71.4901 132.61 71.9701C132.61 71.5101 132.17 70.9401 131.76 70.7301C131.25 70.4801 130.73 70.6601 130.32 71.0101C130.08 71.2201 129.69 71.7401 129.69 71.7401C129.69 71.7401 129.01 71.7501 128.68 71.7201C127.94 71.6601 127.07 71.7701 126.73 72.5101C126.42 73.2101 126.57 74.2201 127.23 74.6901C126.77 74.7201 126.3 74.7501 125.88 74.9501C125.46 75.1501 125.11 75.5801 125.11 76.0701C125.11 76.3101 125.2 76.5501 125.31 76.7701C125.66 77.4201 126.28 77.8901 126.97 78.0301C126.49 78.2401 126.01 78.4601 125.63 78.8301C125.25 79.2001 124.99 79.7601 125.09 80.3001C125.21 80.9101 125.74 81.3401 126.29 81.5401C127.59 82.0101 129.15 81.3701 129.81 80.0901C131.26 81.5801 133.81 81.5901 135.24 80.1201C135.48 81.4901 136.55 82.6601 137.82 82.9601C139.09 83.2601 140.5 82.6701 141.24 81.5301C142.05 82.3201 143.23 82.6501 144.29 82.3901C144.97 82.2201 145.63 81.7801 145.89 81.0901C146.16 80.4001 145.9 79.4701 145.25 79.1801C145.78 79.7001 146.46 80.0301 147.16 80.1201C147.69 80.1901 148.29 80.0901 148.63 79.6601C148.98 79.2301 148.89 78.4201 148.38 78.2301C149.55 78.3901 150.78 77.8501 151.5 76.8501C151.87 76.3301 152.11 75.6801 152.04 75.0301C151.97 74.3801 151.54 73.7501 150.94 73.5801C150.08 73.3501 149.33 74.2401 148.74 74.7001C148.77 73.8701 148.73 73.2801 148.24 72.5801C147.68 71.7601 146.85 71.0501 145.84 70.8001C144.81 70.5401 143.64 70.7501 143.24 71.7801C142.86 71.3401 142.5 70.9401 141.88 70.8501C140.78 70.6701 140.07 71.4201 139.45 72.1501C139.26 72.3801 139.03 72.7501 138.69 72.7601C138.55 72.4801 138.85 72.1701 138.78 71.8501C138.72 71.4801 138.47 71.1501 138.15 70.9201Z" fill="#C5DFFC"/>
<path d="M141.42 73.0601C141.63 72.8501 142.24 72.9101 142.49 73.2101C142.74 72.5101 142.96 72.1401 143.62 71.9701C144.28 71.8101 144.92 72.0201 145.25 72.6401C145.63 72.2401 146.29 72.3401 146.7 72.7701C147.01 73.0901 147.17 73.8501 146.47 74.0801C146.32 74.1301 146.16 74.1101 146.01 74.1001C145.03 74.0101 144.04 74.0001 143.06 74.0601C142.69 74.0801 142.03 74.2901 141.7 74.1401C141.34 74.0001 141.21 73.2701 141.42 73.0601Z" fill="#A5CBF2"/>
<path d="M138.05 79.6501C137.99 79.7101 137.98 79.7701 137.91 79.8401C137.66 80.0801 137.45 80.3101 137.03 80.4401C136.19 80.6901 135.52 80.3601 135.13 79.9101C134.94 79.9901 134.83 80.1001 134.62 80.1701C134.07 80.3701 133.49 80.1901 133.1 79.9301C132.91 79.8001 132.75 79.6501 132.63 79.4901C132.56 79.4001 132.51 79.3001 132.46 79.2001C132.43 79.1301 132.26 78.9001 132.31 78.8301C132.18 79.0101 132.15 79.2001 132.17 79.4001C132.19 79.7001 132.34 79.9901 132.61 80.2201C132.89 80.4601 133.27 80.5401 133.76 80.5201C134.03 80.5101 134.37 80.4801 134.6 80.3701C134.95 80.7501 135.54 80.9601 136.24 80.8701C136.85 80.7801 137.48 80.5201 137.84 80.1701C137.97 80.0201 138.17 79.8201 138.05 79.6501Z" fill="#3F8CFF"/>
<path d="M142.77 79.9101C142.66 79.6301 142.63 79.2801 142.66 78.9801C142.76 79.2301 143.01 79.3401 143.24 79.3901C143.41 79.4301 143.6 79.4401 143.74 79.3301C143.89 79.2201 143.95 79.0001 144.01 78.8101C144.32 79.1401 144.75 79.3001 145.17 79.2601C145.35 79.2401 145.54 79.1801 145.67 79.0301C145.85 78.8301 145.9 78.5201 145.95 78.2401C146.14 78.8601 146.24 79.9101 145.44 79.9301C145.06 79.9401 144.66 79.7601 144.36 79.5501C144.41 79.5901 144.15 79.9101 144.12 79.9501C143.98 80.1301 143.8 80.2801 143.56 80.3201C143.31 80.3701 142.97 80.3201 142.83 80.0501C142.81 80.0001 142.79 79.9501 142.77 79.9101Z" fill="#3F8CFF"/>
<path d="M136.46 72.7801C136.16 72.4401 135.48 72.1501 134.95 72.1301C134.43 72.1001 133.86 72.4601 133.55 72.7301C133.26 72.5501 132.71 72.4101 132.35 72.5301C131.99 72.6501 131.68 72.9801 131.53 73.3301C131.17 73.0101 130.73 72.6901 129.7 72.8801C128.67 73.0701 128.32 73.5701 128.24 73.9801L131.94 74.8801L133.6 73.4901L134.95 74.1001C134.94 74.1001 136.77 72.9701 136.46 72.7801Z" fill="#A5CBF2"/>
<path d="M142.66 74.5001C142.26 74.2601 141.88 74.5401 141.56 74.8501C141.53 74.8801 141.17 75.2401 141.14 75.2001C140.86 74.9001 140.72 73.9101 141.32 73.7701C141.63 73.7001 141.97 73.8601 142.17 74.0501C142.25 73.6001 142.55 73.1901 142.93 72.9301C143.88 72.2801 144.82 72.3101 145.06 73.4901C145.05 73.4501 145.36 73.2301 145.4 73.2001C145.85 72.8801 146.3 72.9501 146.62 73.3401C146.83 73.6001 146.87 73.9401 146.85 74.2801C146.84 74.3501 146.81 74.9801 146.72 74.9801C147.24 74.9701 147.84 75.0801 148.23 75.4101C148.56 75.7001 148.59 76.1901 148.38 76.6101C148.16 77.0501 147.72 77.5101 147.23 77.6301C147.19 77.6401 147.16 77.6401 147.12 77.6501C147.4 77.0301 147.35 76.1401 146.84 75.7401C146.49 75.4701 146.09 75.6201 145.7 75.6901C145.79 75.3601 146 75.0001 145.77 74.6801C145.21 73.8901 143.58 74.0101 142.97 74.8901C143.04 74.7901 142.74 74.5301 142.67 74.4901C142.66 74.5001 142.66 74.5001 142.66 74.5001Z" fill="#E6F2FF"/>
<path d="M127.39 75.79C127.42 75.8 127.46 75.74 127.48 75.72C127.57 75.63 127.65 75.54 127.75 75.46C128.34 74.99 129.1 74.81 129.92 74.97C130.24 75.03 130.58 75.15 130.9 75.35C131.25 75.57 131.56 75.91 131.82 76.29C131.96 76 132.1 75.72 132.25 75.44C132.51 74.94 132.83 74.34 133.37 74.23C133.64 74.18 133.95 74.22 134.24 74.42C134.57 74.66 134.75 75.11 134.99 75.45C135.17 74.82 135.41 74.14 135.95 73.9C136.3 73.75 136.89 73.7 137.28 74.1C137.71 74.54 137.93 75.14 138.04 75.74C138.03 75.67 138.27 75.52 138.3 75.48C138.41 75.37 138.49 75.24 138.54 75.07C138.73 74.44 138.45 73.57 137.86 73.08C137.33 72.64 136.66 72.58 136.14 72.79C135.62 73 135.22 73.44 134.89 73.91C134.57 73.01 133.45 72.49 132.86 72.98C132.46 73.31 132.36 73.94 132.27 74.53C131.82 73.98 131.18 73.7 130.57 73.57C129.77 73.39 128.97 73.46 128.32 73.81C128.03 73.97 127.77 74.13 127.59 74.45C127.49 74.63 127.41 74.85 127.37 75.08C127.34 75.26 127.3 75.45 127.34 75.66C127.35 75.68 127.36 75.77 127.39 75.79C127.38 75.79 127.38 75.79 127.39 75.79Z" fill="#E6F2FF"/>
<path d="M80.6699 54.96C80.6199 55 80.5699 55.05 80.5199 55.1C79.6999 55.95 79.1599 57.96 79.8099 59.17C80.4099 60.28 81.9599 60.3 83.0999 60.1C83.3099 60.06 85.7299 59.57 85.7199 59.55C86.3599 61.55 89.8999 62.54 91.5899 61.06C91.7099 60.96 92.3599 60.34 92.2799 60.18C93.6699 62.71 96.5299 62.12 98.2099 60.65C98.8799 60.06 99.4999 59.28 99.6699 58.28C100.22 58.95 100.84 59.66 101.6 59.8C102.72 60 103.78 58.6 103.52 57.25C104.31 57.61 105.15 57.88 105.99 57.79C106.83 57.7 107.64 57.16 107.99 56.25C108.28 55.5 108.2 54.55 107.8 53.85C107.09 52.63 106.13 52.88 105.12 52.96C104.25 53.03 103.39 53.1 102.52 53.17C100.48 53.33 98.4499 53.5 96.4099 53.66C93.5699 53.89 90.7199 54.11 87.8799 54.34C86.4399 54.46 84.9999 54.57 83.5599 54.69C83.2699 54.71 82.8899 54.83 82.5999 54.78C82.3699 54.74 82.1599 54.57 81.9199 54.54C81.4799 54.5 81.0299 54.66 80.6699 54.96Z" fill="#3F8CFF"/>
<path d="M93.5099 44.92C94.1599 44.34 95.1299 44.14 95.8699 44.7C95.8799 44.01 96.3999 43.38 97.0099 43.34C97.6099 43.3 98.1999 43.87 98.2799 44.56C98.3999 43.96 99.1599 43.79 99.6099 44.15C100.05 44.51 100.22 45.17 100.27 45.79C100.23 45.19 100.7 44.42 101.17 44.12C101.76 43.75 102.4 43.94 102.92 44.35C103.23 44.6 103.75 45.23 103.75 45.23C103.75 45.23 104.56 45.18 104.96 45.12C105.85 44.98 106.9 45.05 107.37 45.97C107.81 46.84 107.73 48.17 106.97 48.83C107.52 48.82 108.09 48.82 108.61 49.05C109.13 49.28 109.59 49.8 109.63 50.43C109.65 50.75 109.57 51.06 109.45 51.35C109.09 52.22 108.39 52.89 107.57 53.13C108.16 53.36 108.77 53.6 109.26 54.05C109.75 54.5 110.12 55.2 110.04 55.91C109.96 56.71 109.36 57.31 108.72 57.62C107.2 58.34 105.27 57.65 104.36 56.06C102.76 58.11 99.7099 58.35 97.8499 56.57C97.6899 58.36 96.5199 59.97 95.0199 60.47C93.5199 60.97 91.7699 60.33 90.7899 58.92C89.8899 60.01 88.4999 60.54 87.2099 60.29C86.3799 60.13 85.5499 59.62 85.1599 58.75C84.7799 57.88 84.9899 56.65 85.7499 56.22C85.1699 56.94 84.3799 57.43 83.5399 57.61C82.9099 57.74 82.1899 57.67 81.7299 57.15C81.2699 56.63 81.2999 55.57 81.8899 55.28C80.4999 55.59 78.9699 55 78.0199 53.77C77.5299 53.13 77.1799 52.31 77.1999 51.46C77.2199 50.61 77.6799 49.76 78.3799 49.49C79.3799 49.11 80.3799 50.21 81.1299 50.75C81.0199 49.68 81.0099 48.92 81.5299 47.96C82.1299 46.86 83.0599 45.86 84.2399 45.45C85.4499 45.03 86.8799 45.2 87.4599 46.49C87.8699 45.89 88.2699 45.35 88.9999 45.16C90.2999 44.84 91.2199 45.74 92.0399 46.63C92.2899 46.91 92.5999 47.36 93.0099 47.35C93.1499 46.97 92.7599 46.61 92.8099 46.18C92.8799 45.7 93.1499 45.24 93.5099 44.92Z" fill="#C5DFFC"/>
<path d="M90.3499 56.15C90.4599 56.26 90.4999 56.37 90.6199 56.48C91.0799 56.9 91.4899 57.31 92.2299 57.48C93.7199 57.83 94.8399 57.14 95.4499 56.25C95.7899 56.38 95.9999 56.56 96.3699 56.68C97.3499 56.99 98.3399 56.57 98.9699 56.05C99.2899 55.79 99.5399 55.49 99.7199 55.17C99.8199 54.99 99.9099 54.8 99.9799 54.61C100.03 54.48 100.28 54.02 100.19 53.91C100.43 54.22 100.51 54.59 100.51 54.95C100.51 55.51 100.3 56.07 99.8599 56.54C99.3999 57.03 98.7499 57.22 97.9199 57.25C97.4499 57.26 96.8599 57.25 96.4499 57.07C95.8899 57.83 94.8999 58.3 93.6799 58.2C92.5999 58.12 91.4899 57.71 90.8199 57.1C90.5399 56.84 90.1599 56.48 90.3499 56.15Z" fill="#3F8CFF"/>
<path d="M89.3499 47.64C89.6699 47.17 90.4699 46.75 91.0999 46.66C91.7199 46.58 92.4399 46.99 92.8399 47.31C93.1699 47.05 93.8199 46.83 94.2599 46.95C94.7099 47.07 95.1099 47.48 95.3099 47.91C95.7199 47.46 96.2099 47.02 97.4699 47.17C98.7299 47.32 99.1899 47.94 99.3299 48.46L94.9799 49.95L92.8599 48.3L91.2999 49.2C91.2999 49.21 88.9899 47.91 89.3499 47.64Z" fill="#A5CBF2"/>
<path d="M100.52 50.7399C100.48 50.7599 100.43 50.6799 100.4 50.6599C100.29 50.5599 100.18 50.4399 100.05 50.3499C99.2999 49.7999 98.3699 49.6299 97.4099 49.8999C97.0299 50.0099 96.6399 50.1899 96.2799 50.4799C95.8799 50.7999 95.5399 51.2599 95.2599 51.7699C95.0699 51.4099 94.8699 51.0499 94.6599 50.6999C94.2999 50.0799 93.8599 49.3299 93.1999 49.2399C92.8699 49.1899 92.4999 49.2799 92.1699 49.5699C91.7899 49.9099 91.6199 50.4999 91.3599 50.9699C91.0899 50.1699 90.7299 49.3099 90.0599 49.0499C89.6299 48.8799 88.9099 48.8699 88.4799 49.4199C87.9999 50.0299 87.7999 50.8199 87.7199 51.5999C87.7299 51.5099 87.4299 51.3299 87.3799 51.2899C87.2399 51.1499 87.1299 50.9899 87.0499 50.7799C86.7599 49.9899 87.0199 48.8299 87.6699 48.1599C88.2599 47.5499 89.0599 47.4099 89.7099 47.6399C90.3499 47.8599 90.8699 48.3999 91.3199 48.9799C91.6199 47.7899 92.9199 47.0299 93.6699 47.5999C94.1799 47.9899 94.3599 48.7999 94.5199 49.5499C95.0099 48.7999 95.7599 48.3899 96.4699 48.1599C97.4099 47.8499 98.3899 47.8699 99.1899 48.2699C99.5499 48.4499 99.8799 48.6399 100.13 49.0299C100.27 49.2599 100.39 49.5299 100.46 49.8299C100.51 50.0599 100.58 50.3099 100.55 50.5799C100.56 50.5999 100.56 50.7099 100.52 50.7399C100.53 50.7399 100.52 50.7399 100.52 50.7399Z" fill="#E6F2FF"/>
<path d="M107.48 25.68C107.42 25.73 107.36 25.78 107.3 25.83C106.29 26.77 105.49 29.14 106.14 30.64C106.73 32.02 108.51 32.18 109.84 32.04C110.08 32.01 112.91 31.63 112.9 31.61C113.47 34.06 117.45 35.54 119.52 33.92C119.66 33.81 120.47 33.12 120.39 32.93C121.77 36.08 125.11 35.61 127.17 34C127.99 33.35 128.77 32.47 129.05 31.29C129.63 32.14 130.27 33.05 131.14 33.28C132.41 33.62 133.75 32.03 133.56 30.4C134.44 30.9 135.39 31.3 136.35 31.25C137.31 31.2 138.3 30.64 138.78 29.58C139.18 28.71 139.17 27.56 138.76 26.69C138.05 25.17 136.92 25.39 135.75 25.4C134.75 25.41 133.75 25.42 132.74 25.43C130.39 25.45 128.03 25.47 125.68 25.49C122.39 25.52 119.11 25.55 115.82 25.58C114.16 25.59 112.49 25.61 110.83 25.62C110.49 25.62 110.05 25.73 109.72 25.64C109.46 25.57 109.23 25.35 108.96 25.3C108.45 25.2 107.91 25.35 107.48 25.68Z" fill="#3F8CFF"/>
<path d="M121.16 13.24C122.05 12.6 123.32 12.45 124.23 13.18C124.31 12.35 125.04 11.64 125.82 11.65C126.6 11.66 127.3 12.39 127.34 13.22C127.56 12.51 128.55 12.37 129.09 12.84C129.63 13.31 129.79 14.12 129.78 14.86C129.78 14.14 130.46 13.25 131.1 12.94C131.9 12.55 132.7 12.83 133.33 13.37C133.71 13.69 134.32 14.5 134.32 14.5C134.32 14.5 135.37 14.52 135.89 14.47C137.04 14.38 138.4 14.55 138.91 15.7C139.4 16.78 139.16 18.36 138.13 19.08C138.84 19.12 139.58 19.17 140.22 19.49C140.87 19.81 141.41 20.47 141.41 21.23C141.41 21.61 141.27 21.98 141.09 22.31C140.55 23.32 139.58 24.06 138.51 24.27C139.25 24.6 140.01 24.94 140.6 25.51C141.19 26.09 141.6 26.96 141.44 27.8C141.26 28.75 140.43 29.42 139.58 29.73C137.56 30.46 135.13 29.46 134.11 27.48C131.85 29.79 127.9 29.81 125.67 27.53C125.29 29.66 123.64 31.48 121.66 31.95C119.68 32.42 117.49 31.5 116.35 29.73C115.09 30.95 113.25 31.47 111.61 31.06C110.55 30.8 109.53 30.11 109.12 29.04C108.71 27.97 109.1 26.52 110.11 26.07C109.29 26.88 108.23 27.4 107.14 27.54C106.31 27.65 105.39 27.5 104.85 26.83C104.31 26.16 104.44 24.9 105.23 24.61C103.41 24.86 101.5 24.02 100.39 22.47C99.81 21.67 99.44 20.65 99.55 19.63C99.66 18.62 100.32 17.63 101.25 17.38C102.58 17.02 103.76 18.41 104.68 19.13C104.63 17.83 104.7 16.92 105.45 15.83C106.33 14.56 107.62 13.45 109.18 13.06C110.78 12.66 112.61 12.99 113.23 14.59C113.82 13.91 114.38 13.29 115.34 13.14C117.05 12.87 118.15 14.03 119.12 15.16C119.42 15.51 119.78 16.09 120.31 16.11C120.52 15.67 120.06 15.2 120.16 14.7C120.28 14.11 120.66 13.59 121.16 13.24Z" fill="#C5DFFC"/>
<path d="M116.08 16.58C115.76 16.26 114.81 16.35 114.41 16.81C114.03 15.72 113.68 15.14 112.66 14.89C111.64 14.64 110.64 14.96 110.12 15.93C109.54 15.3 108.51 15.47 107.87 16.14C107.39 16.64 107.13 17.82 108.23 18.18C108.46 18.25 108.7 18.23 108.94 18.21C110.46 18.07 112 18.05 113.53 18.15C114.1 18.19 115.13 18.5 115.65 18.28C116.2 18.03 116.41 16.9 116.08 16.58Z" fill="#A5CBF2"/>
<path d="M121.32 26.81C121.41 26.9 121.44 27 121.54 27.1C121.92 27.47 122.26 27.84 122.92 28.03C124.22 28.41 125.27 27.91 125.87 27.2C126.16 27.33 126.34 27.49 126.67 27.61C127.53 27.92 128.43 27.64 129.03 27.24C129.33 27.04 129.57 26.81 129.76 26.55C129.86 26.4 129.95 26.25 130.03 26.1C130.08 26 130.34 25.63 130.27 25.53C130.46 25.8 130.51 26.11 130.49 26.41C130.46 26.87 130.23 27.33 129.81 27.69C129.37 28.07 128.78 28.19 128.03 28.16C127.61 28.14 127.08 28.1 126.73 27.93C126.18 28.52 125.26 28.85 124.18 28.7C123.22 28.57 122.25 28.16 121.69 27.62C121.44 27.39 121.12 27.08 121.32 26.81Z" fill="#3F8CFF"/>
<path d="M113.98 27.22C114.16 26.78 114.2 26.24 114.16 25.77C114 26.15 113.62 26.32 113.26 26.4C113 26.46 112.71 26.48 112.48 26.31C112.25 26.13 112.15 25.8 112.06 25.5C111.58 26.01 110.91 26.27 110.26 26.19C109.98 26.16 109.68 26.06 109.48 25.83C109.2 25.52 109.12 25.04 109.05 24.6C108.76 25.57 108.59 27.19 109.84 27.23C110.42 27.25 111.05 26.96 111.52 26.64C111.43 26.7 111.85 27.21 111.89 27.26C112.1 27.54 112.38 27.77 112.75 27.84C113.14 27.92 113.66 27.83 113.89 27.42C113.92 27.35 113.95 27.28 113.98 27.22Z" fill="#3F8CFF"/>
<path d="M123.78 16.1399C124.24 15.5999 125.3 15.1699 126.13 15.1199C126.93 15.0799 127.82 15.6399 128.31 16.0499C128.76 15.7699 129.61 15.5599 130.18 15.7399C130.75 15.9199 131.23 16.4499 131.45 16.9799C132.02 16.4799 132.69 15.9899 134.3 16.2799C135.91 16.5699 136.44 17.3499 136.58 17.9899L130.83 19.3999L128.25 17.2399L126.16 18.1799C126.16 18.1799 123.3 16.4299 123.78 16.1399Z" fill="#A5CBF2"/>
<path d="M114.16 18.81C114.78 18.44 115.37 18.87 115.87 19.35C115.92 19.4 116.47 19.95 116.52 19.9C116.95 19.43 117.17 17.9 116.23 17.68C115.75 17.57 115.22 17.82 114.91 18.12C114.78 17.41 114.32 16.79 113.73 16.38C112.26 15.37 110.8 15.42 110.41 17.25C110.42 17.19 109.95 16.85 109.88 16.8C109.18 16.3 108.47 16.41 107.99 17.02C107.67 17.43 107.59 17.95 107.63 18.48C107.64 18.59 107.69 19.57 107.83 19.57C107.03 19.56 106.09 19.73 105.49 20.24C104.97 20.69 104.93 21.45 105.26 22.1C105.61 22.79 106.29 23.49 107.04 23.69C107.11 23.71 107.15 23.71 107.21 23.72C106.78 22.76 106.86 21.37 107.65 20.76C108.19 20.34 108.81 20.57 109.43 20.69C109.28 20.17 108.97 19.62 109.32 19.12C110.18 17.9 112.73 18.08 113.67 19.44C113.56 19.28 114.03 18.88 114.13 18.81C114.15 18.81 114.15 18.81 114.16 18.81Z" fill="#E6F2FF"/>
<path d="M137.89 20.81C137.84 20.83 137.78 20.73 137.75 20.7C137.61 20.57 137.48 20.42 137.33 20.3C136.42 19.57 135.24 19.29 133.96 19.54C133.46 19.64 132.94 19.82 132.44 20.13C131.89 20.47 131.41 21.01 131 21.59C130.78 21.14 130.56 20.7 130.33 20.26C129.92 19.49 129.43 18.55 128.59 18.38C128.17 18.3 127.69 18.36 127.24 18.68C126.72 19.05 126.45 19.75 126.07 20.29C125.79 19.31 125.41 18.25 124.58 17.88C124.04 17.64 123.12 17.57 122.52 18.18C121.85 18.87 121.51 19.8 121.34 20.72C121.36 20.62 120.99 20.37 120.93 20.32C120.76 20.15 120.63 19.94 120.55 19.68C120.25 18.7 120.7 17.34 121.6 16.59C122.42 15.91 123.46 15.82 124.27 16.14C125.08 16.46 125.69 17.15 126.22 17.88C126.72 16.48 128.46 15.68 129.37 16.44C129.99 16.96 130.15 17.94 130.28 18.85C130.99 17.99 131.98 17.57 132.92 17.35C134.17 17.06 135.41 17.17 136.41 17.72C136.86 17.97 137.26 18.22 137.55 18.71C137.71 18.99 137.84 19.33 137.9 19.69C137.95 19.97 138.01 20.27 137.95 20.59C137.94 20.63 137.93 20.76 137.89 20.79C137.9 20.81 137.9 20.81 137.89 20.81Z" fill="#E6F2FF"/>
<path d="M42.87 81.5599C42.91 81.5899 42.95 81.6199 42.99 81.6599C43.69 82.2799 44.23 83.8499 43.79 84.8499C43.38 85.7699 42.15 85.8699 41.23 85.7799C41.06 85.7599 39.11 85.5099 39.12 85.4999C38.73 87.1299 35.98 88.1099 34.55 87.0399C34.45 86.9699 33.89 86.5099 33.95 86.3899C33 88.4799 30.69 88.1699 29.27 87.0999C28.7 86.6699 28.17 86.0899 27.97 85.3099C27.57 85.8799 27.12 86.4799 26.52 86.6299C25.64 86.8599 24.72 85.7999 24.85 84.7199C24.24 85.0499 23.59 85.3199 22.92 85.2899C22.26 85.2599 21.57 84.8799 21.24 84.1799C21 83.5899 21 82.8299 21.29 82.2499C21.78 81.2399 22.56 81.3799 23.37 81.3899C24.06 81.3999 24.75 81.3999 25.44 81.4099C27.07 81.4199 28.69 81.4299 30.32 81.4499C32.59 81.4699 34.86 81.4799 37.13 81.4999C38.28 81.5099 39.43 81.5199 40.58 81.5299C40.82 81.5299 41.12 81.5999 41.35 81.5399C41.53 81.4999 41.69 81.3499 41.88 81.3099C42.21 81.2399 42.57 81.3399 42.87 81.5599Z" fill="#3F8CFF"/>
<path d="M32.11 74.3299C31.56 73.9099 30.78 73.8099 30.22 74.2899C30.17 73.7399 29.72 73.2699 29.24 73.2799C28.76 73.2899 28.33 73.7699 28.3 74.3199C28.17 73.8499 27.56 73.7599 27.22 74.0699C26.89 74.3799 26.79 74.9199 26.79 75.4099C26.79 74.9299 26.37 74.3399 25.98 74.1399C25.49 73.8799 24.99 74.0699 24.6 74.4199C24.38 74.6299 24 75.1599 24 75.1599C24 75.1599 23.35 75.1699 23.03 75.1399C22.32 75.0799 21.49 75.1899 21.17 75.9499C20.87 76.6699 21.01 77.7099 21.65 78.1899C21.21 78.2199 20.76 78.2499 20.36 78.4599C19.96 78.6699 19.63 79.1099 19.63 79.6199C19.63 79.8699 19.71 80.1199 19.82 80.3399C20.15 81.0099 20.75 81.4999 21.41 81.6399C20.95 81.8599 20.49 82.0799 20.12 82.4699C19.75 82.8599 19.51 83.4299 19.6 83.9899C19.71 84.6199 20.22 85.0599 20.75 85.2699C22 85.7499 23.49 85.0899 24.12 83.7799C25.51 85.3099 27.94 85.3299 29.32 83.8099C29.55 85.2199 30.57 86.4299 31.79 86.7399C33.01 87.0499 34.36 86.4399 35.06 85.2699C35.84 86.0799 36.97 86.4199 37.98 86.1499C38.63 85.9799 39.26 85.5199 39.52 84.8099C39.78 84.0999 39.53 83.1399 38.91 82.8399C39.41 83.3699 40.06 83.7199 40.74 83.8099C41.25 83.8799 41.82 83.7799 42.15 83.3399C42.48 82.8999 42.4 82.0599 41.92 81.8699C43.04 82.0399 44.22 81.4799 44.9 80.4499C45.26 79.9199 45.48 79.2399 45.42 78.5699C45.35 77.8999 44.94 77.2499 44.37 77.0799C43.55 76.8399 42.83 77.7599 42.26 78.2399C42.29 77.3799 42.25 76.7799 41.78 76.0499C41.24 75.2099 40.45 74.4699 39.48 74.2199C38.5 73.9599 37.37 74.1699 36.99 75.2299C36.63 74.7799 36.28 74.3699 35.69 74.2699C34.64 74.0899 33.96 74.8599 33.36 75.6099C33.17 75.8399 32.95 76.2199 32.63 76.2399C32.5 75.9499 32.78 75.6299 32.72 75.2999C32.65 74.9099 32.42 74.5599 32.11 74.3299Z" fill="#C5DFFC"/>
<path d="M35.26 83.06C35.18 83.15 35.16 83.25 35.07 83.34C34.73 83.7 34.43 84.04 33.85 84.23C32.69 84.6 31.76 84.11 31.22 83.44C30.96 83.56 30.8 83.72 30.51 83.83C29.75 84.13 28.94 83.86 28.41 83.48C28.14 83.29 27.93 83.07 27.76 82.82C27.67 82.68 27.59 82.53 27.52 82.39C27.48 82.29 27.25 81.94 27.31 81.84C27.14 82.1 27.09 82.4 27.11 82.68C27.14 83.12 27.34 83.56 27.72 83.9C28.11 84.26 28.64 84.38 29.3 84.35C29.67 84.33 30.14 84.29 30.46 84.13C30.95 84.7 31.76 85.01 32.73 84.87C33.58 84.74 34.44 84.35 34.94 83.84C35.15 83.61 35.43 83.31 35.26 83.06Z" fill="#3F8CFF"/>
<path d="M35.57 76.25C35.2899 75.89 34.6299 75.6 34.1199 75.58C33.6299 75.55 33.0799 75.92 32.7799 76.2C32.4999 76.02 31.9799 75.87 31.6299 75.99C31.2799 76.11 30.99 76.46 30.85 76.81C30.5 76.48 30.09 76.15 29.1 76.35C28.11 76.55 27.78 77.06 27.7 77.48L31.24 78.41L32.83 76.98L34.1199 77.6C34.1099 77.6 35.87 76.44 35.57 76.25Z" fill="#A5CBF2"/>
<path d="M26.8801 79.35C26.9101 79.36 26.9501 79.3 26.9701 79.28C27.0501 79.19 27.1301 79.09 27.2301 79.01C27.7901 78.53 28.5201 78.34 29.3001 78.5C29.6101 78.57 29.9301 78.69 30.2301 78.89C30.5701 79.12 30.8601 79.47 31.1101 79.86C31.2401 79.56 31.3801 79.27 31.5201 78.98C31.7701 78.47 32.0701 77.84 32.5901 77.73C32.8501 77.68 33.1501 77.72 33.4201 77.93C33.7401 78.17 33.9101 78.64 34.1401 78.99C34.3101 78.34 34.5501 77.64 35.0601 77.39C35.3901 77.23 35.9601 77.18 36.3301 77.59C36.7401 78.05 36.9501 78.66 37.0601 79.28C37.0501 79.21 37.2801 79.05 37.3101 79.01C37.4101 78.89 37.4901 78.76 37.5401 78.58C37.7301 77.93 37.4501 77.03 36.8901 76.53C36.3801 76.08 35.7401 76.02 35.2401 76.23C34.7401 76.45 34.3601 76.9 34.0401 77.39C33.7301 76.46 32.6601 75.93 32.1001 76.43C31.7201 76.77 31.6201 77.42 31.5401 78.03C31.1001 77.46 30.4901 77.18 29.9101 77.04C29.1401 76.85 28.3701 76.92 27.7601 77.29C27.4801 77.45 27.2301 77.62 27.0601 77.95C26.9601 78.14 26.8801 78.36 26.8501 78.6C26.8201 78.79 26.7801 78.99 26.8201 79.2C26.8401 79.24 26.8501 79.33 26.8801 79.35C26.8701 79.35 26.8801 79.35 26.8801 79.35Z" fill="#E6F2FF"/>
<path d="M140.35 165.75C140.4 165.79 140.45 165.84 140.5 165.89C141.32 166.74 141.86 168.75 141.21 169.96C140.61 171.07 139.06 171.09 137.92 170.89C137.71 170.85 135.29 170.36 135.3 170.34C134.66 172.34 131.12 173.33 129.43 171.85C129.31 171.75 128.66 171.13 128.74 170.97C127.35 173.5 124.49 172.91 122.81 171.44C122.14 170.85 121.52 170.07 121.35 169.07C120.8 169.74 120.18 170.45 119.42 170.59C118.3 170.79 117.24 169.39 117.5 168.04C116.71 168.4 115.87 168.67 115.03 168.58C114.19 168.49 113.38 167.95 113.03 167.04C112.74 166.29 112.82 165.34 113.22 164.64C113.93 163.42 114.89 163.67 115.9 163.75C116.77 163.82 117.63 163.89 118.5 163.96C120.54 164.12 122.57 164.29 124.61 164.45C127.45 164.68 130.3 164.9 133.14 165.13C134.58 165.25 136.02 165.36 137.46 165.48C137.75 165.5 138.13 165.62 138.42 165.57C138.65 165.53 138.86 165.36 139.1 165.33C139.55 165.29 140 165.45 140.35 165.75Z" fill="#3F8CFF"/>
<path d="M127.51 155.71C126.86 155.13 125.89 154.93 125.15 155.49C125.14 154.8 124.62 154.17 124.01 154.13C123.41 154.09 122.82 154.66 122.74 155.35C122.62 154.75 121.86 154.58 121.41 154.94C120.97 155.3 120.8 155.96 120.75 156.58C120.79 155.98 120.32 155.21 119.85 154.91C119.26 154.54 118.62 154.73 118.1 155.14C117.79 155.39 117.27 156.02 117.27 156.02C117.27 156.02 116.46 155.97 116.06 155.91C115.17 155.77 114.12 155.84 113.65 156.76C113.21 157.63 113.29 158.96 114.05 159.62C113.5 159.61 112.93 159.61 112.41 159.84C111.89 160.07 111.43 160.59 111.39 161.22C111.37 161.54 111.45 161.85 111.57 162.14C111.93 163.01 112.63 163.68 113.45 163.92C112.86 164.15 112.25 164.39 111.76 164.84C111.27 165.29 110.9 165.99 110.98 166.7C111.06 167.5 111.66 168.1 112.3 168.41C113.82 169.13 115.75 168.44 116.66 166.85C118.26 168.9 121.31 169.14 123.17 167.36C123.33 169.15 124.5 170.76 126 171.26C127.5 171.76 129.25 171.12 130.23 169.71C131.13 170.8 132.52 171.33 133.81 171.08C134.64 170.92 135.47 170.41 135.86 169.54C136.25 168.67 136.03 167.44 135.27 167.01C135.85 167.73 136.64 168.22 137.48 168.4C138.11 168.53 138.83 168.46 139.29 167.94C139.75 167.42 139.72 166.36 139.13 166.07C140.52 166.38 142.05 165.79 143 164.56C143.49 163.92 143.84 163.1 143.82 162.25C143.8 161.4 143.34 160.55 142.64 160.28C141.64 159.9 140.64 161 139.89 161.54C140 160.47 140.01 159.71 139.49 158.75C138.89 157.65 137.96 156.65 136.78 156.24C135.57 155.82 134.14 155.99 133.56 157.28C133.15 156.68 132.75 156.14 132.02 155.95C130.72 155.63 129.8 156.53 128.98 157.42C128.73 157.7 128.42 158.15 128.01 158.14C127.87 157.76 128.26 157.4 128.21 156.97C128.14 156.48 127.88 156.03 127.51 155.71Z" fill="#C5DFFC"/>
<path d="M130.67 166.94C130.56 167.05 130.52 167.16 130.4 167.27C129.94 167.69 129.53 168.1 128.79 168.27C127.3 168.62 126.18 167.93 125.57 167.04C125.23 167.17 125.02 167.35 124.65 167.47C123.67 167.78 122.68 167.36 122.05 166.84C121.73 166.58 121.48 166.28 121.3 165.96C121.2 165.78 121.11 165.59 121.04 165.4C120.99 165.27 120.74 164.81 120.83 164.7C120.59 165.01 120.51 165.38 120.51 165.74C120.51 166.3 120.72 166.86 121.16 167.33C121.62 167.82 122.27 168.01 123.1 168.04C123.57 168.05 124.16 168.04 124.57 167.86C125.13 168.62 126.12 169.09 127.34 168.99C128.42 168.91 129.53 168.5 130.2 167.89C130.49 167.63 130.87 167.27 130.67 166.94Z" fill="#3F8CFF"/>
<path d="M131.68 158.43C131.36 157.96 130.56 157.54 129.93 157.45C129.31 157.37 128.59 157.78 128.19 158.1C127.86 157.84 127.21 157.62 126.77 157.74C126.32 157.86 125.92 158.27 125.72 158.7C125.31 158.25 124.82 157.81 123.56 157.96C122.3 158.11 121.84 158.73 121.7 159.25L126.05 160.74L128.17 159.09L129.73 159.99C129.72 160 132.03 158.7 131.68 158.43Z" fill="#A5CBF2"/>
<path d="M120.5 161.53C120.54 161.55 120.59 161.47 120.62 161.45C120.73 161.35 120.84 161.23 120.97 161.14C121.72 160.59 122.65 160.42 123.61 160.69C123.99 160.8 124.38 160.98 124.74 161.27C125.14 161.59 125.48 162.05 125.76 162.56C125.95 162.2 126.15 161.84 126.36 161.49C126.72 160.87 127.16 160.12 127.82 160.03C128.15 159.98 128.52 160.07 128.85 160.36C129.23 160.7 129.4 161.29 129.66 161.76C129.93 160.96 130.29 160.1 130.96 159.84C131.39 159.67 132.11 159.66 132.54 160.21C133.02 160.82 133.22 161.61 133.3 162.39C133.29 162.3 133.59 162.12 133.64 162.08C133.78 161.94 133.89 161.78 133.97 161.57C134.26 160.78 134 159.62 133.35 158.95C132.76 158.34 131.96 158.2 131.31 158.43C130.67 158.65 130.15 159.19 129.7 159.77C129.4 158.58 128.1 157.82 127.35 158.39C126.84 158.78 126.66 159.59 126.5 160.34C126.01 159.59 125.26 159.18 124.55 158.95C123.61 158.64 122.63 158.66 121.83 159.06C121.47 159.24 121.14 159.43 120.89 159.82C120.75 160.05 120.63 160.32 120.56 160.62C120.51 160.85 120.44 161.1 120.47 161.37C120.46 161.39 120.47 161.5 120.5 161.53C120.5 161.52 120.5 161.53 120.5 161.53Z" fill="#E6F2FF"/>
<path d="M54.4 170.45C54.46 170.5 54.52 170.55 54.58 170.6C55.59 171.54 56.39 173.91 55.74 175.41C55.15 176.79 53.37 176.95 52.04 176.81C51.8 176.78 48.97 176.4 48.98 176.38C48.41 178.83 44.43 180.31 42.36 178.69C42.22 178.58 41.41 177.89 41.49 177.7C40.11 180.85 36.77 180.38 34.71 178.77C33.89 178.12 33.11 177.24 32.83 176.06C32.25 176.91 31.61 177.82 30.74 178.05C29.47 178.39 28.13 176.8 28.32 175.17C27.44 175.67 26.49 176.07 25.53 176.02C24.57 175.97 23.58 175.41 23.1 174.35C22.7 173.48 22.71 172.33 23.12 171.46C23.83 169.94 24.96 170.16 26.13 170.17C27.13 170.18 28.13 170.19 29.14 170.2C31.49 170.22 33.85 170.24 36.2 170.26C39.49 170.29 42.77 170.32 46.06 170.35C47.72 170.36 49.39 170.38 51.05 170.39C51.39 170.39 51.83 170.5 52.16 170.41C52.42 170.34 52.65 170.12 52.92 170.07C53.43 169.97 53.97 170.12 54.4 170.45Z" fill="#3F8CFF"/>
<path d="M40.72 158C39.83 157.36 38.56 157.21 37.65 157.94C37.57 157.11 36.84 156.4 36.06 156.41C35.28 156.42 34.58 157.15 34.54 157.98C34.32 157.27 33.33 157.13 32.79 157.6C32.25 158.07 32.09 158.88 32.1 159.62C32.1 158.9 31.42 158.01 30.78 157.7C29.98 157.31 29.18 157.59 28.55 158.13C28.17 158.45 27.56 159.26 27.56 159.26C27.56 159.26 26.51 159.28 25.99 159.23C24.84 159.14 23.48 159.31 22.97 160.46C22.48 161.54 22.72 163.12 23.75 163.84C23.04 163.88 22.3 163.93 21.66 164.25C21.01 164.57 20.47 165.23 20.47 165.99C20.47 166.37 20.61 166.74 20.79 167.07C21.33 168.08 22.3 168.82 23.37 169.03C22.63 169.36 21.87 169.7 21.28 170.27C20.69 170.85 20.28 171.72 20.44 172.56C20.62 173.51 21.45 174.18 22.3 174.49C24.32 175.22 26.75 174.22 27.77 172.24C30.03 174.55 33.98 174.57 36.21 172.29C36.59 174.42 38.24 176.24 40.22 176.71C42.2 177.18 44.39 176.26 45.53 174.49C46.79 175.71 48.63 176.23 50.27 175.82C51.33 175.56 52.35 174.87 52.76 173.8C53.17 172.73 52.78 171.28 51.77 170.83C52.59 171.64 53.65 172.16 54.74 172.3C55.57 172.41 56.49 172.26 57.03 171.59C57.57 170.92 57.44 169.66 56.65 169.37C58.47 169.62 60.38 168.78 61.49 167.23C62.07 166.43 62.44 165.41 62.33 164.39C62.22 163.38 61.56 162.39 60.63 162.14C59.3 161.78 58.12 163.17 57.2 163.89C57.25 162.59 57.18 161.68 56.43 160.59C55.55 159.32 54.26 158.21 52.7 157.82C51.1 157.42 49.27 157.75 48.65 159.35C48.06 158.67 47.5 158.05 46.54 157.9C44.83 157.63 43.73 158.79 42.76 159.92C42.46 160.27 42.1 160.85 41.57 160.87C41.36 160.43 41.82 159.96 41.72 159.46C41.6 158.88 41.21 158.36 40.72 158Z" fill="#C5DFFC"/>
<path d="M45.79 161.34C46.11 161.02 47.06 161.11 47.46 161.57C47.84 160.48 48.19 159.9 49.21 159.65C50.23 159.4 51.23 159.72 51.75 160.69C52.33 160.06 53.36 160.23 54 160.9C54.48 161.4 54.74 162.58 53.64 162.94C53.41 163.01 53.17 162.99 52.93 162.97C51.41 162.83 49.87 162.81 48.34 162.91C47.77 162.95 46.74 163.26 46.22 163.04C45.68 162.8 45.47 161.67 45.79 161.34Z" fill="#A5CBF2"/>
<path d="M40.56 171.58C40.47 171.67 40.44 171.77 40.34 171.87C39.96 172.24 39.62 172.61 38.96 172.8C37.66 173.18 36.61 172.68 36.01 171.97C35.72 172.1 35.54 172.26 35.21 172.38C34.35 172.69 33.45 172.41 32.85 172.01C32.55 171.81 32.31 171.58 32.12 171.32C32.02 171.17 31.93 171.02 31.85 170.87C31.8 170.77 31.54 170.4 31.61 170.3C31.42 170.57 31.37 170.88 31.39 171.18C31.42 171.64 31.65 172.1 32.07 172.46C32.51 172.84 33.1 172.96 33.85 172.93C34.27 172.91 34.8 172.87 35.15 172.7C35.7 173.29 36.62 173.62 37.7 173.47C38.66 173.34 39.63 172.93 40.19 172.39C40.44 172.16 40.75 171.84 40.56 171.58Z" fill="#3F8CFF"/>
<path d="M47.9 171.98C47.72 171.54 47.68 171 47.72 170.53C47.88 170.91 48.26 171.08 48.62 171.16C48.88 171.22 49.17 171.24 49.4 171.07C49.63 170.89 49.73 170.56 49.82 170.26C50.3 170.77 50.97 171.03 51.62 170.95C51.9 170.92 52.2 170.82 52.4 170.59C52.68 170.28 52.76 169.8 52.83 169.36C53.12 170.33 53.29 171.95 52.04 171.99C51.46 172.01 50.83 171.72 50.36 171.4C50.45 171.46 50.03 171.97 49.99 172.02C49.78 172.3 49.5 172.53 49.13 172.6C48.74 172.68 48.22 172.59 47.99 172.18C47.96 172.12 47.93 172.05 47.9 171.98Z" fill="#3F8CFF"/>
<path d="M38.1 160.91C37.64 160.37 36.58 159.94 35.75 159.89C34.95 159.85 34.06 160.41 33.57 160.82C33.12 160.54 32.2701 160.33 31.7001 160.51C31.1301 160.69 30.65 161.22 30.43 161.75C29.86 161.25 29.19 160.76 27.58 161.05C25.97 161.34 25.44 162.12 25.3 162.76L31.05 164.17L33.6301 162.01L35.7201 162.95C35.7201 162.95 38.58 161.19 38.1 160.91Z" fill="#A5CBF2"/>
<path d="M47.7201 163.58C47.1001 163.21 46.5101 163.64 46.0101 164.12C45.9601 164.17 45.4101 164.72 45.3601 164.67C44.9301 164.2 44.7101 162.67 45.6501 162.45C46.1301 162.34 46.6601 162.59 46.9701 162.89C47.1001 162.18 47.5601 161.56 48.1501 161.15C49.6201 160.14 51.0801 160.19 51.4701 162.02C51.4601 161.96 51.9301 161.62 52.0001 161.57C52.7001 161.07 53.4101 161.18 53.8901 161.79C54.2101 162.2 54.2901 162.72 54.2501 163.25C54.2401 163.36 54.1901 164.34 54.0501 164.34C54.8501 164.33 55.7901 164.5 56.3901 165.01C56.9101 165.46 56.9501 166.22 56.6201 166.87C56.2701 167.56 55.5901 168.26 54.8401 168.46C54.7701 168.48 54.7301 168.48 54.6701 168.49C55.1001 167.53 55.0201 166.14 54.2301 165.53C53.6901 165.11 53.0701 165.34 52.4501 165.46C52.6001 164.94 52.9101 164.39 52.5601 163.89C51.7001 162.67 49.1501 162.85 48.2101 164.21C48.3201 164.05 47.8501 163.65 47.7501 163.58C47.7301 163.58 47.7201 163.58 47.7201 163.58Z" fill="#E6F2FF"/>
<path d="M23.98 165.58C24.03 165.6 24.09 165.5 24.12 165.47C24.26 165.34 24.39 165.19 24.54 165.07C25.45 164.34 26.63 164.06 27.91 164.31C28.41 164.41 28.93 164.59 29.43 164.9C29.98 165.24 30.46 165.78 30.87 166.36C31.09 165.91 31.31 165.47 31.54 165.03C31.95 164.26 32.44 163.32 33.28 163.15C33.7 163.07 34.18 163.13 34.63 163.45C35.15 163.82 35.42 164.52 35.8 165.06C36.08 164.08 36.46 163.02 37.29 162.65C37.83 162.41 38.75 162.34 39.35 162.95C40.02 163.64 40.36 164.57 40.53 165.49C40.51 165.39 40.88 165.14 40.94 165.09C41.11 164.92 41.24 164.71 41.32 164.45C41.62 163.47 41.17 162.11 40.27 161.36C39.45 160.68 38.41 160.59 37.6 160.91C36.79 161.23 36.18 161.92 35.65 162.65C35.15 161.25 33.41 160.45 32.5 161.21C31.88 161.73 31.72 162.71 31.59 163.62C30.88 162.76 29.89 162.34 28.95 162.12C27.7 161.83 26.46 161.94 25.46 162.49C25.01 162.74 24.61 162.99 24.32 163.48C24.16 163.76 24.03 164.1 23.97 164.46C23.92 164.74 23.86 165.04 23.92 165.36C23.93 165.4 23.94 165.53 23.98 165.56C23.98 165.58 23.98 165.58 23.98 165.58Z" fill="#E6F2FF"/>
<path d="M68.4399 193.49C68.3699 193.53 68.2999 193.58 68.2399 193.62C67.1099 194.45 66.1999 196.55 66.8999 197.89C67.5699 199.17 69.1299 199.26 70.3899 199.19C70.8099 199.17 75.0499 198.25 74.8899 197.78C75.4199 199.38 76.6299 200.78 78.2099 201.31C79.7899 201.84 81.6899 201.37 82.7099 200.04C84.2099 202.85 87.9199 202.46 90.2299 201.04C91.1499 200.47 92.0199 199.69 92.3499 198.65C92.9899 199.41 93.6899 200.22 94.6499 200.43C96.0599 200.74 97.5599 199.34 97.3699 197.88C98.3399 198.33 99.3899 198.69 100.46 198.66C101.53 198.63 102.63 198.13 103.18 197.19C103.63 196.42 103.63 195.4 103.19 194.62C102.41 193.26 101.16 193.45 99.8599 193.45C98.7499 193.45 97.6299 193.45 96.5199 193.45C93.8999 193.45 91.2899 193.45 88.6699 193.45C85.0199 193.45 81.3699 193.45 77.7099 193.45C75.8599 193.45 74.0099 193.45 72.1599 193.45C71.7799 193.45 71.2899 193.54 70.9299 193.46C70.6399 193.4 70.3899 193.2 70.0899 193.15C69.5199 193.07 68.9199 193.2 68.4399 193.49Z" fill="#3F8CFF"/>
<path d="M87.06 183.58C87.9 182.97 89.14 182.76 90.09 183.37C90.11 182.63 90.8 181.96 91.57 181.93C92.34 181.9 93.08 182.51 93.17 183.24C93.34 182.6 94.31 182.43 94.87 182.81C95.43 183.2 95.64 183.91 95.68 184.57C95.77 183.97 95.91 183.34 96.3 182.86C96.69 182.38 97.4 182.08 97.98 182.33C98.08 180.6 99.91 179.14 101.7 179.38C102.26 179.45 102.84 179.69 103.13 180.16C103.37 180.55 103.39 181.02 103.35 181.47C103.24 182.55 102.8 183.59 102.09 184.44C103.02 184.03 104.24 184.4 104.76 185.25C105.28 186.1 105.03 187.3 104.2 187.89C104.91 187.89 105.64 187.89 106.29 188.14C106.95 188.39 107.53 188.95 107.58 189.63C107.6 189.97 107.49 190.3 107.34 190.61C106.87 191.53 105.95 192.24 104.91 192.49C105.66 192.74 106.43 193 107.05 193.49C107.67 193.97 108.13 194.72 108.02 195.48C107.9 196.33 107.13 196.97 106.3 197.29C104.35 198.04 101.89 197.29 100.76 195.58C98.68 197.75 94.77 197.98 92.43 196.07C92.19 197.98 90.67 199.68 88.74 200.2C86.81 200.72 84.59 200.02 83.35 198.51C82.18 199.66 80.4 200.22 78.75 199.94C77.69 199.76 76.63 199.2 76.16 198.27C75.69 197.34 75.98 196.03 76.95 195.58C76.19 196.34 75.18 196.86 74.1 197.04C73.29 197.18 72.37 197.09 71.79 196.53C71.21 195.97 71.27 194.84 72.03 194.54C70.24 194.86 68.3 194.21 67.11 192.89C66.49 192.21 66.06 191.32 66.1 190.42C66.14 189.51 66.74 188.61 67.64 188.33C69.02 187.91 70.49 189.15 70.73 190.52C69.98 189.09 69.9 187.11 71.21 186.12C72.37 185.24 74.34 185.7 74.95 186.99C74.61 185.98 74.42 184.89 74.64 183.84C74.86 182.8 75.57 181.8 76.6 181.42C78.16 180.84 80.13 182.06 80.22 183.67C81.13 182.24 83.49 182.24 84.18 183.86C84.46 184.53 84.44 185.27 84.42 185.99C84.41 185.68 84.7 185.42 85.01 185.37C85.32 185.32 85.65 185.45 85.89 185.64C86.14 185.83 86.32 186.09 86.5 186.34C85.77 185.26 86.2 184.21 87.06 183.58Z" fill="#C5DFFC"/>
<path d="M84.02 185.83C84 185.8 83.97 185.78 83.94 185.76C83.76 185.63 83.52 185.6 83.3 185.65C83.08 185.7 82.89 185.82 82.71 185.95C82.32 186.23 81.97 186.56 81.67 186.93C81.56 186.61 81.44 186.29 81.23 186.02C81.02 185.75 80.72 185.53 80.37 185.51C80.02 185.48 79.65 185.7 79.57 186.03C78.84 185.45 77.73 185.34 76.89 185.78C76.05 186.22 75.55 187.17 75.66 188.08C75.14 187.75 74.47 187.63 73.86 187.77C73.7 187.81 73.54 187.86 73.42 187.97C73.07 188.32 73.56 188.59 73.85 188.73H77.57C77.59 188.68 77.62 188.62 77.66 188.57C77.97 188.19 78.43 187.97 78.91 187.87V187.85H78.99C79.02 187.84 79.05 187.84 79.08 187.84C79.38 187.79 79.69 187.8 79.99 187.85H84.2C84.2 187.85 84.2 186.9 84.2 186.84C84.2 186.51 84.27 186.1 84.02 185.83Z" fill="#A5CBF2"/>
<path d="M91.41 186.76C91.3601 186.79 91.23 186.74 91.18 186.72C90.94 186.66 90.71 186.59 90.47 186.55C88.99 186.29 87.45 186.49 86.11 187.15C85.58 187.41 85.08 187.75 84.68 188.18C84.23 188.66 83.98 189.26 83.83 189.88C83.32 189.6 82.81 189.32 82.29 189.05C81.37 188.57 80.27 187.99 79.2 188.16C78.66 188.24 78.13 188.47 77.79 188.89C77.39 189.37 77.47 190.04 77.33 190.61C76.45 189.92 75.4 189.2 74.22 189.2C73.46 189.2 72.33 189.48 71.98 190.19C71.58 190.99 71.72 191.86 72.04 192.66C72 192.57 71.43 192.51 71.34 192.48C71.05 192.4 70.78 192.28 70.54 192.1C69.64 191.42 69.39 190.17 70.02 189.23C70.59 188.38 71.76 187.94 72.89 187.91C74.02 187.88 75.12 188.21 76.15 188.61C75.94 187.3 77.53 186.03 79.02 186.31C80.04 186.5 80.78 187.23 81.45 187.92C81.79 186.98 82.71 186.27 83.68 185.76C84.97 185.08 86.49 184.72 87.97 184.8C88.64 184.84 89.25 184.89 89.86 185.19C90.21 185.36 90.54 185.59 90.82 185.86C91.03 186.07 91.28 186.29 91.39 186.57C91.39 186.6 91.4501 186.72 91.41 186.76C91.42 186.75 91.42 186.76 91.41 186.76Z" fill="#E6F2FF"/>
<path d="M79.99 196.45C80.09 196.57 80.12 196.7 80.22 196.83C80.62 197.3 80.98 197.76 81.64 197.97C82.95 198.38 83.96 197.62 84.51 196.62C84.81 196.77 84.99 196.97 85.32 197.11C86.19 197.46 87.06 197.01 87.63 196.43C87.91 196.14 88.14 195.81 88.3 195.45C88.39 195.25 88.47 195.03 88.54 194.82C88.58 194.68 88.81 194.16 88.74 194.04C88.95 194.39 89.02 194.8 89.01 195.2C89.01 195.82 88.81 196.45 88.41 196.97C88 197.51 87.42 197.72 86.68 197.74C86.26 197.75 85.74 197.73 85.38 197.53C84.87 198.37 83.99 198.89 82.91 198.77C81.96 198.67 80.97 198.2 80.39 197.51C80.14 197.22 79.81 196.82 79.99 196.45Z" fill="#3F8CFF"/>
<path d="M96.96 194.42C97.11 194.02 97.12 193.54 97.04 193.13C96.91 193.48 96.54 193.65 96.2 193.74C95.94 193.8 95.66 193.84 95.42 193.7C95.18 193.56 95.06 193.27 94.95 193C94.5 193.48 93.86 193.74 93.21 193.71C92.93 193.7 92.63 193.62 92.41 193.43C92.11 193.17 92 192.75 91.91 192.36C91.68 193.24 91.62 194.68 92.85 194.65C93.43 194.64 94.03 194.35 94.48 194.04C94.4 194.1 94.84 194.52 94.88 194.57C95.11 194.81 95.4 194.99 95.77 195.04C96.16 195.09 96.67 194.99 96.87 194.61C96.91 194.55 96.94 194.49 96.96 194.42Z" fill="#3F8CFF"/>
<path d="M103.64 187.45C103.62 187 103.52 186.55 103.33 186.14C103.13 185.68 102.83 185.44 102.31 185.33C101.81 185.22 101.28 185.32 100.84 185.57C100.6 185.27 100.3 185 99.94 184.86C99.58 184.72 99.11 184.77 98.84 185.04C98.51 184.7 98.06 184.32 97.54 184.4C97.01 184.48 96.51 184.72 96.14 185.08C95.84 185.36 95.63 185.71 95.5 186.08C95.35 186.51 95.3 186.99 95.33 187.45H103.64Z" fill="#A5CBF2"/>
<path d="M102.65 190.45C103.59 190.45 103.93 191.21 104.14 191.98C104.16 192.05 104.38 192.93 104.47 192.9C105.27 192.69 106.59 191.31 105.72 190.54C105.28 190.15 104.52 190.09 103.96 190.2C104.31 189.43 104.25 188.55 103.89 187.8C102.99 185.94 101.35 185.14 99.6399 186.72C99.6999 186.66 99.4099 186.05 99.3799 185.97C98.9699 185.07 98.1099 184.76 97.1499 185.08C96.5099 185.29 96.0599 185.76 95.7299 186.31C95.6599 186.42 95.0299 187.42 95.1799 187.51C94.3099 187.03 93.1599 186.65 92.1399 186.8C91.2599 186.94 90.6699 187.67 90.5699 188.5C90.4699 189.38 90.7099 190.47 91.3999 191.11C91.4599 191.17 91.5099 191.19 91.5699 191.24C91.7799 190.04 92.8399 188.72 94.1399 188.58C95.0299 188.48 95.5499 189.07 96.1399 189.55C96.3399 188.96 96.3899 188.23 97.1199 187.94C98.9299 187.24 101.59 188.9 101.66 190.8C101.65 190.58 102.45 190.45 102.61 190.45C102.63 190.45 102.64 190.45 102.65 190.45Z" fill="#E6F2FF"/>
<path d="M14.7999 212.43C14.7599 212.46 14.7199 212.49 14.6799 212.53C13.9799 213.15 13.4399 214.72 13.8799 215.72C14.2899 216.64 15.5199 216.74 16.4399 216.65C16.6099 216.63 18.5599 216.38 18.5499 216.37C18.9399 218 21.6899 218.98 23.1199 217.91C23.2199 217.84 23.7799 217.38 23.7199 217.26C24.6699 219.35 26.9799 219.04 28.3999 217.97C28.9699 217.54 29.4999 216.96 29.6999 216.18C30.0999 216.75 30.5499 217.35 31.1499 217.5C32.0299 217.73 32.9499 216.67 32.8199 215.59C33.4299 215.92 34.0799 216.19 34.7499 216.16C35.4099 216.13 36.0999 215.75 36.4299 215.05C36.6999 214.47 36.6999 213.71 36.4099 213.14C35.9199 212.13 35.1399 212.27 34.3299 212.28C33.6399 212.29 32.9499 212.29 32.2599 212.3C30.6299 212.31 29.0099 212.32 27.3799 212.34C25.1099 212.36 22.8399 212.37 20.5699 212.39C19.4199 212.4 18.2699 212.41 17.1199 212.42C16.8799 212.42 16.5799 212.49 16.3499 212.43C16.1699 212.39 16.0099 212.24 15.8199 212.2C15.4699 212.11 15.0999 212.21 14.7999 212.43Z" fill="#3F8CFF"/>
<path d="M25.5599 205.2C26.1099 204.78 26.8899 204.68 27.4499 205.16C27.4999 204.61 27.9499 204.14 28.4299 204.15C28.9099 204.16 29.3399 204.64 29.3699 205.19C29.4999 204.72 30.1099 204.63 30.4499 204.94C30.7799 205.25 30.8799 205.79 30.8799 206.28C30.8799 205.8 31.2999 205.21 31.6899 205.01C32.1799 204.75 32.6799 204.94 33.0699 205.29C33.2999 205.5 33.6799 206.04 33.6799 206.04C33.6799 206.04 34.3299 206.05 34.6499 206.02C35.3599 205.96 36.1899 206.07 36.5099 206.83C36.8099 207.55 36.6699 208.59 36.0299 209.07C36.4699 209.1 36.9199 209.13 37.3199 209.34C37.7199 209.55 38.0499 209.99 38.0499 210.5C38.0499 210.75 37.9699 211 37.8599 211.22C37.5299 211.89 36.9299 212.38 36.2699 212.52C36.7299 212.74 37.1899 212.96 37.5599 213.35C37.9199 213.73 38.1699 214.31 38.0799 214.87C37.9699 215.5 37.4599 215.94 36.9299 216.15C35.6799 216.63 34.1899 215.97 33.5599 214.66C32.1699 216.19 29.7399 216.21 28.3599 214.69C28.1299 216.1 27.1099 217.31 25.8899 217.62C24.6699 217.93 23.3199 217.32 22.6199 216.15C21.8399 216.96 20.7099 217.3 19.6999 217.03C19.0499 216.86 18.4199 216.4 18.1599 215.69C17.9099 214.98 18.1499 214.02 18.7699 213.72C18.2699 214.25 17.6199 214.6 16.9399 214.69C16.4299 214.76 15.8599 214.66 15.5299 214.22C15.1999 213.78 15.2799 212.94 15.7599 212.75C14.6399 212.92 13.4599 212.36 12.7799 211.33C12.4199 210.8 12.1999 210.12 12.2599 209.45C12.3299 208.78 12.7399 208.13 13.3099 207.96C14.1299 207.72 14.8499 208.64 15.4199 209.12C15.3899 208.26 15.4299 207.66 15.8999 206.93C16.4399 206.09 17.2299 205.35 18.1999 205.1C19.1799 204.84 20.3099 205.05 20.6899 206.11C21.0499 205.66 21.3999 205.25 21.9899 205.15C23.0399 204.97 23.7199 205.74 24.3199 206.49C24.5099 206.72 24.7299 207.1 25.0499 207.12C25.1799 206.83 24.8999 206.51 24.9599 206.18C25.0199 205.78 25.2599 205.43 25.5599 205.2Z" fill="#C5DFFC"/>
<path d="M22.42 213.93C22.5 214.02 22.52 214.12 22.61 214.21C22.95 214.57 23.25 214.91 23.83 215.1C24.99 215.47 25.92 214.98 26.46 214.31C26.72 214.43 26.88 214.59 27.17 214.7C27.93 215 28.74 214.73 29.27 214.35C29.54 214.16 29.75 213.94 29.92 213.69C30.01 213.55 30.09 213.4 30.16 213.26C30.2 213.16 30.43 212.81 30.37 212.71C30.54 212.97 30.59 213.27 30.57 213.55C30.54 213.99 30.34 214.43 29.96 214.77C29.57 215.13 29.04 215.25 28.38 215.22C28.01 215.2 27.54 215.16 27.22 215C26.73 215.57 25.92 215.88 24.95 215.74C24.1 215.61 23.24 215.22 22.74 214.71C22.52 214.48 22.24 214.18 22.42 213.93Z" fill="#3F8CFF"/>
<path d="M22.0999 207.12C22.3799 206.76 23.0399 206.47 23.5499 206.45C24.0399 206.42 24.5899 206.79 24.8899 207.07C25.1699 206.89 25.6899 206.74 26.0399 206.86C26.3899 206.98 26.6799 207.33 26.8199 207.68C27.1699 207.35 27.5799 207.02 28.5699 207.22C29.5599 207.42 29.8899 207.93 29.9699 208.35L26.4299 209.28L24.8399 207.85L23.5499 208.47C23.5699 208.47 21.8099 207.31 22.0999 207.12Z" fill="#A5CBF2"/>
<path d="M30.79 210.22C30.76 210.23 30.72 210.17 30.7 210.15C30.62 210.06 30.54 209.96 30.44 209.88C29.88 209.4 29.15 209.21 28.37 209.37C28.06 209.44 27.74 209.56 27.44 209.76C27.1 209.99 26.81 210.34 26.56 210.73C26.43 210.43 26.29 210.14 26.15 209.85C25.9 209.34 25.6 208.71 25.08 208.6C24.82 208.55 24.52 208.59 24.25 208.8C23.93 209.04 23.76 209.51 23.53 209.86C23.36 209.21 23.12 208.51 22.61 208.26C22.28 208.1 21.71 208.05 21.34 208.46C20.93 208.92 20.72 209.53 20.61 210.15C20.62 210.08 20.39 209.92 20.36 209.88C20.26 209.76 20.18 209.63 20.13 209.45C19.94 208.8 20.22 207.9 20.78 207.4C21.29 206.95 21.93 206.89 22.43 207.1C22.93 207.32 23.31 207.77 23.63 208.26C23.94 207.33 25.01 206.8 25.57 207.3C25.95 207.64 26.05 208.29 26.13 208.9C26.57 208.33 27.18 208.05 27.76 207.91C28.53 207.72 29.3 207.79 29.91 208.16C30.19 208.32 30.44 208.49 30.61 208.82C30.71 209.01 30.79 209.23 30.82 209.47C30.85 209.66 30.89 209.86 30.85 210.07C30.83 210.11 30.82 210.2 30.79 210.22C30.8 210.22 30.8 210.22 30.79 210.22Z" fill="#E6F2FF"/>
</g>
<defs>
<clipPath id="clip0_1_4201">
<rect width="162" height="232" fill="white"/>
</clipPath>
</defs>
</svg>
