<svg width="162" height="232" viewBox="0 0 162 232" fill="none" xmlns="http://www.w3.org/2000/svg">
<g clip-path="url(#clip0_1_4400)">
<path d="M162 0H0V232H162V0Z" fill="#A6351C"/>
<path d="M9.24996 223.08C9.00996 223.08 8.76996 222.98 8.59996 222.81C8.55996 222.77 8.51996 222.72 8.48996 222.67C8.45996 222.62 8.42996 222.57 8.39996 222.51C8.37996 222.45 8.35996 222.4 8.34996 222.34C8.33996 222.28 8.32996 222.22 8.32996 222.16C8.32996 221.92 8.42996 221.68 8.59996 221.51C8.63996 221.47 8.68996 221.43 8.73996 221.4C8.78996 221.37 8.83996 221.34 8.89996 221.32C8.95996 221.29 9.00996 221.28 9.06996 221.26C9.18996 221.24 9.30996 221.24 9.42996 221.26C9.48996 221.27 9.53996 221.29 9.59996 221.32C9.65996 221.34 9.70996 221.37 9.75996 221.4C9.80996 221.43 9.85996 221.47 9.89996 221.51C10.07 221.68 10.17 221.92 10.17 222.16C10.17 222.22 10.16 222.28 10.15 222.34C10.14 222.4 10.12 222.46 10.1 222.51C10.07 222.57 10.05 222.62 10.01 222.67C9.97996 222.72 9.93996 222.77 9.89996 222.81C9.72996 222.98 9.48996 223.08 9.24996 223.08Z" fill="#FFB546"/>
<path d="M8.31995 218.07C8.31995 217.56 8.72995 217.15 9.23995 217.15C9.74995 217.15 10.1599 217.56 10.1599 218.07C10.1599 218.58 9.74995 218.99 9.23995 218.99C8.73995 218.99 8.31995 218.58 8.31995 218.07ZM8.31995 213.99C8.31995 213.48 8.72995 213.07 9.23995 213.07C9.74995 213.07 10.1599 213.48 10.1599 213.99C10.1599 214.5 9.74995 214.91 9.23995 214.91C8.73995 214.91 8.31995 214.5 8.31995 213.99ZM8.31995 209.9C8.31995 209.39 8.72995 208.98 9.23995 208.98C9.74995 208.98 10.1599 209.39 10.1599 209.9C10.1599 210.41 9.74995 210.82 9.23995 210.82C8.73995 210.83 8.31995 210.41 8.31995 209.9ZM8.31995 205.82C8.31995 205.31 8.72995 204.9 9.23995 204.9C9.74995 204.9 10.1599 205.31 10.1599 205.82C10.1599 206.33 9.74995 206.74 9.23995 206.74C8.73995 206.74 8.31995 206.33 8.31995 205.82ZM8.31995 201.74C8.31995 201.23 8.72995 200.82 9.23995 200.82C9.74995 200.82 10.1599 201.23 10.1599 201.74C10.1599 202.25 9.74995 202.66 9.23995 202.66C8.73995 202.66 8.31995 202.25 8.31995 201.74ZM8.31995 197.66C8.31995 197.15 8.72995 196.74 9.23995 196.74C9.74995 196.74 10.1599 197.15 10.1599 197.66C10.1599 198.17 9.74995 198.58 9.23995 198.58C8.73995 198.58 8.31995 198.16 8.31995 197.66ZM8.31995 193.57C8.31995 193.06 8.72995 192.65 9.23995 192.65C9.74995 192.65 10.1599 193.06 10.1599 193.57C10.1599 194.08 9.74995 194.49 9.23995 194.49C8.73995 194.5 8.31995 194.08 8.31995 193.57ZM8.31995 189.49C8.31995 188.98 8.72995 188.57 9.23995 188.57C9.74995 188.57 10.1599 188.98 10.1599 189.49C10.1599 190 9.74995 190.41 9.23995 190.41C8.73995 190.41 8.31995 190 8.31995 189.49ZM8.31995 185.41C8.31995 184.9 8.72995 184.49 9.23995 184.49C9.74995 184.49 10.1599 184.9 10.1599 185.41C10.1599 185.92 9.74995 186.33 9.23995 186.33C8.73995 186.33 8.31995 185.92 8.31995 185.41ZM8.31995 181.32C8.31995 180.81 8.72995 180.4 9.23995 180.4C9.74995 180.4 10.1599 180.81 10.1599 181.32C10.1599 181.83 9.74995 182.24 9.23995 182.24C8.73995 182.25 8.31995 181.83 8.31995 181.32ZM8.31995 177.24C8.31995 176.73 8.72995 176.32 9.23995 176.32C9.74995 176.32 10.1599 176.73 10.1599 177.24C10.1599 177.75 9.74995 178.16 9.23995 178.16C8.73995 178.16 8.31995 177.75 8.31995 177.24ZM8.31995 173.16C8.31995 172.65 8.72995 172.24 9.23995 172.24C9.74995 172.24 10.1599 172.65 10.1599 173.16C10.1599 173.67 9.74995 174.08 9.23995 174.08C8.73995 174.08 8.31995 173.67 8.31995 173.16ZM8.31995 169.08C8.31995 168.57 8.72995 168.16 9.23995 168.16C9.74995 168.16 10.1599 168.57 10.1599 169.08C10.1599 169.59 9.74995 170 9.23995 170C8.73995 170 8.31995 169.59 8.31995 169.08ZM8.31995 164.99C8.31995 164.48 8.72995 164.07 9.23995 164.07C9.74995 164.07 10.1599 164.48 10.1599 164.99C10.1599 165.5 9.74995 165.91 9.23995 165.91C8.73995 165.92 8.31995 165.5 8.31995 164.99ZM8.31995 160.91C8.31995 160.4 8.72995 159.99 9.23995 159.99C9.74995 159.99 10.1599 160.4 10.1599 160.91C10.1599 161.42 9.74995 161.83 9.23995 161.83C8.73995 161.83 8.31995 161.42 8.31995 160.91ZM8.31995 156.83C8.31995 156.32 8.72995 155.91 9.23995 155.91C9.74995 155.91 10.1599 156.32 10.1599 156.83C10.1599 157.34 9.74995 157.75 9.23995 157.75C8.73995 157.75 8.31995 157.34 8.31995 156.83ZM8.31995 152.74C8.31995 152.23 8.72995 151.82 9.23995 151.82C9.74995 151.82 10.1599 152.23 10.1599 152.74C10.1599 153.25 9.74995 153.66 9.23995 153.66C8.73995 153.67 8.31995 153.25 8.31995 152.74ZM8.31995 148.66C8.31995 148.15 8.72995 147.74 9.23995 147.74C9.74995 147.74 10.1599 148.15 10.1599 148.66C10.1599 149.17 9.74995 149.58 9.23995 149.58C8.73995 149.58 8.31995 149.17 8.31995 148.66ZM8.31995 144.58C8.31995 144.07 8.72995 143.66 9.23995 143.66C9.74995 143.66 10.1599 144.07 10.1599 144.58C10.1599 145.09 9.74995 145.5 9.23995 145.5C8.73995 145.5 8.31995 145.09 8.31995 144.58ZM8.31995 140.5C8.31995 139.99 8.72995 139.58 9.23995 139.58C9.74995 139.58 10.1599 139.99 10.1599 140.5C10.1599 141.01 9.74995 141.42 9.23995 141.42C8.73995 141.42 8.31995 141.01 8.31995 140.5ZM8.31995 136.41C8.31995 135.9 8.72995 135.49 9.23995 135.49C9.74995 135.49 10.1599 135.9 10.1599 136.41C10.1599 136.92 9.74995 137.33 9.23995 137.33C8.73995 137.34 8.31995 136.92 8.31995 136.41ZM8.31995 132.33C8.31995 131.82 8.72995 131.41 9.23995 131.41C9.74995 131.41 10.1599 131.82 10.1599 132.33C10.1599 132.84 9.74995 133.25 9.23995 133.25C8.73995 133.26 8.31995 132.84 8.31995 132.33ZM8.31995 128.25C8.31995 127.74 8.72995 127.33 9.23995 127.33C9.74995 127.33 10.1599 127.74 10.1599 128.25C10.1599 128.76 9.74995 129.17 9.23995 129.17C8.73995 129.17 8.31995 128.76 8.31995 128.25ZM8.31995 124.16C8.31995 123.65 8.72995 123.24 9.23995 123.24C9.74995 123.24 10.1599 123.65 10.1599 124.16C10.1599 124.67 9.74995 125.08 9.23995 125.08C8.73995 125.09 8.31995 124.67 8.31995 124.16ZM8.31995 120.08C8.31995 119.57 8.72995 119.16 9.23995 119.16C9.74995 119.16 10.1599 119.57 10.1599 120.08C10.1599 120.59 9.74995 121 9.23995 121C8.73995 121.01 8.31995 120.59 8.31995 120.08ZM8.31995 116C8.31995 115.49 8.72995 115.08 9.23995 115.08C9.74995 115.08 10.1599 115.49 10.1599 116C10.1599 116.51 9.74995 116.92 9.23995 116.92C8.73995 116.93 8.31995 116.51 8.31995 116ZM8.31995 111.92C8.31995 111.41 8.72995 111 9.23995 111C9.74995 111 10.1599 111.41 10.1599 111.92C10.1599 112.43 9.74995 112.84 9.23995 112.84C8.73995 112.84 8.31995 112.43 8.31995 111.92ZM8.31995 107.83C8.31995 107.32 8.72995 106.91 9.23995 106.91C9.74995 106.91 10.1599 107.32 10.1599 107.83C10.1599 108.34 9.74995 108.75 9.23995 108.75C8.73995 108.76 8.31995 108.34 8.31995 107.83ZM8.31995 103.75C8.31995 103.24 8.72995 102.83 9.23995 102.83C9.74995 102.83 10.1599 103.24 10.1599 103.75C10.1599 104.26 9.74995 104.67 9.23995 104.67C8.73995 104.68 8.31995 104.26 8.31995 103.75ZM8.31995 99.67C8.31995 99.16 8.72995 98.75 9.23995 98.75C9.74995 98.75 10.1599 99.16 10.1599 99.67C10.1599 100.18 9.74995 100.59 9.23995 100.59C8.73995 100.59 8.31995 100.18 8.31995 99.67ZM8.31995 95.58C8.31995 95.07 8.72995 94.66 9.23995 94.66C9.74995 94.66 10.1599 95.07 10.1599 95.58C10.1599 96.09 9.74995 96.5 9.23995 96.5C8.73995 96.51 8.31995 96.1 8.31995 95.58ZM8.31995 91.5C8.31995 90.99 8.72995 90.58 9.23995 90.58C9.74995 90.58 10.1599 90.99 10.1599 91.5C10.1599 92.01 9.74995 92.42 9.23995 92.42C8.73995 92.43 8.31995 92.02 8.31995 91.5ZM8.31995 87.42C8.31995 86.91 8.72995 86.5 9.23995 86.5C9.74995 86.5 10.1599 86.91 10.1599 87.42C10.1599 87.93 9.74995 88.34 9.23995 88.34C8.73995 88.35 8.31995 87.93 8.31995 87.42ZM8.31995 83.34C8.31995 82.83 8.72995 82.42 9.23995 82.42C9.74995 82.42 10.1599 82.83 10.1599 83.34C10.1599 83.85 9.74995 84.26 9.23995 84.26C8.73995 84.26 8.31995 83.85 8.31995 83.34ZM8.31995 79.26C8.31995 78.75 8.72995 78.34 9.23995 78.34C9.74995 78.34 10.1599 78.75 10.1599 79.26C10.1599 79.77 9.74995 80.18 9.23995 80.18C8.73995 80.18 8.31995 79.77 8.31995 79.26ZM8.31995 75.17C8.31995 74.66 8.72995 74.25 9.23995 74.25C9.74995 74.25 10.1599 74.66 10.1599 75.17C10.1599 75.68 9.74995 76.09 9.23995 76.09C8.73995 76.1 8.31995 75.68 8.31995 75.17ZM8.31995 71.09C8.31995 70.58 8.72995 70.17 9.23995 70.17C9.74995 70.17 10.1599 70.58 10.1599 71.09C10.1599 71.6 9.74995 72.01 9.23995 72.01C8.73995 72.01 8.31995 71.6 8.31995 71.09ZM8.31995 67.01C8.31995 66.5 8.72995 66.09 9.23995 66.09C9.74995 66.09 10.1599 66.5 10.1599 67.01C10.1599 67.52 9.74995 67.93 9.23995 67.93C8.73995 67.93 8.31995 67.52 8.31995 67.01ZM8.31995 62.93C8.31995 62.42 8.72995 62.01 9.23995 62.01C9.74995 62.01 10.1599 62.42 10.1599 62.93C10.1599 63.44 9.74995 63.85 9.23995 63.85C8.73995 63.85 8.31995 63.44 8.31995 62.93ZM8.31995 58.84C8.31995 58.33 8.72995 57.92 9.23995 57.92C9.74995 57.92 10.1599 58.33 10.1599 58.84C10.1599 59.35 9.74995 59.76 9.23995 59.76C8.73995 59.77 8.31995 59.35 8.31995 58.84ZM8.31995 54.76C8.31995 54.25 8.72995 53.84 9.23995 53.84C9.74995 53.84 10.1599 54.25 10.1599 54.76C10.1599 55.27 9.74995 55.68 9.23995 55.68C8.73995 55.68 8.31995 55.27 8.31995 54.76ZM8.31995 50.68C8.31995 50.17 8.72995 49.76 9.23995 49.76C9.74995 49.76 10.1599 50.17 10.1599 50.68C10.1599 51.19 9.74995 51.6 9.23995 51.6C8.73995 51.6 8.31995 51.19 8.31995 50.68ZM8.31995 46.59C8.31995 46.08 8.72995 45.67 9.23995 45.67C9.74995 45.67 10.1599 46.08 10.1599 46.59C10.1599 47.1 9.74995 47.51 9.23995 47.51C8.73995 47.52 8.31995 47.1 8.31995 46.59ZM8.31995 42.51C8.31995 42 8.72995 41.59 9.23995 41.59C9.74995 41.59 10.1599 42 10.1599 42.51C10.1599 43.02 9.74995 43.43 9.23995 43.43C8.73995 43.43 8.31995 43.02 8.31995 42.51ZM8.31995 38.43C8.31995 37.92 8.72995 37.51 9.23995 37.51C9.74995 37.51 10.1599 37.92 10.1599 38.43C10.1599 38.94 9.74995 39.35 9.23995 39.35C8.73995 39.35 8.31995 38.94 8.31995 38.43ZM8.31995 34.35C8.31995 33.84 8.72995 33.43 9.23995 33.43C9.74995 33.43 10.1599 33.84 10.1599 34.35C10.1599 34.86 9.74995 35.27 9.23995 35.27C8.73995 35.27 8.31995 34.86 8.31995 34.35ZM8.31995 30.26C8.31995 29.75 8.72995 29.34 9.23995 29.34C9.74995 29.34 10.1599 29.75 10.1599 30.26C10.1599 30.77 9.74995 31.18 9.23995 31.18C8.73995 31.19 8.31995 30.77 8.31995 30.26ZM8.31995 26.18C8.31995 25.67 8.72995 25.26 9.23995 25.26C9.74995 25.26 10.1599 25.67 10.1599 26.18C10.1599 26.69 9.74995 27.1 9.23995 27.1C8.73995 27.1 8.31995 26.69 8.31995 26.18ZM8.31995 22.1C8.31995 21.59 8.72995 21.18 9.23995 21.18C9.74995 21.18 10.1599 21.59 10.1599 22.1C10.1599 22.61 9.74995 23.02 9.23995 23.02C8.73995 23.02 8.31995 22.61 8.31995 22.1ZM8.31995 18.01C8.31995 17.5 8.72995 17.09 9.23995 17.09C9.74995 17.09 10.1599 17.5 10.1599 18.01C10.1599 18.52 9.74995 18.93 9.23995 18.93C8.73995 18.94 8.31995 18.52 8.31995 18.01ZM8.31995 13.93C8.31995 13.42 8.72995 13.01 9.23995 13.01C9.74995 13.01 10.1599 13.42 10.1599 13.93C10.1599 14.44 9.74995 14.85 9.23995 14.85C8.73995 14.85 8.31995 14.44 8.31995 13.93Z" fill="#FFB546"/>
<path d="M9.24996 10.7701C9.00996 10.7701 8.76996 10.6701 8.59996 10.5001C8.42996 10.3301 8.32996 10.0901 8.32996 9.85005C8.32996 9.61005 8.42996 9.37005 8.59996 9.20005C8.63996 9.16005 8.68996 9.12005 8.73996 9.09005C8.77996 9.05005 8.83996 9.02005 8.88996 9.00005C8.94996 8.98005 8.99996 8.96005 9.05996 8.95005C9.35996 8.88005 9.68996 8.98005 9.89996 9.20005C10.07 9.37005 10.17 9.61005 10.17 9.85005C10.17 9.91005 10.16 9.97005 10.15 10.0301C10.14 10.0901 10.12 10.1401 10.1 10.2001C10.07 10.2601 10.05 10.3101 10.01 10.3601C9.97996 10.4101 9.93996 10.4601 9.89996 10.5001C9.72996 10.6801 9.48996 10.7701 9.24996 10.7701Z" fill="#FFB546"/>
<path d="M147.73 9.85005C147.73 9.34005 148.14 8.93005 148.65 8.93005C149.16 8.93005 149.57 9.34005 149.57 9.85005C149.57 10.3601 149.16 10.7701 148.65 10.7701C148.14 10.7701 147.73 10.3601 147.73 9.85005ZM143.63 9.85005C143.63 9.34005 144.04 8.93005 144.55 8.93005C145.06 8.93005 145.47 9.34005 145.47 9.85005C145.47 10.3601 145.06 10.7701 144.55 10.7701C144.04 10.7701 143.63 10.3601 143.63 9.85005ZM139.53 9.85005C139.53 9.34005 139.94 8.93005 140.45 8.93005C140.96 8.93005 141.37 9.34005 141.37 9.85005C141.37 10.3601 140.96 10.7701 140.45 10.7701C139.94 10.7701 139.53 10.3601 139.53 9.85005ZM135.43 9.85005C135.43 9.34005 135.84 8.93005 136.35 8.93005C136.86 8.93005 137.27 9.34005 137.27 9.85005C137.27 10.3601 136.86 10.7701 136.35 10.7701C135.84 10.7701 135.43 10.3601 135.43 9.85005ZM131.33 9.85005C131.33 9.34005 131.74 8.93005 132.25 8.93005C132.76 8.93005 133.17 9.34005 133.17 9.85005C133.17 10.3601 132.76 10.7701 132.25 10.7701C131.74 10.7701 131.33 10.3601 131.33 9.85005ZM127.23 9.85005C127.23 9.34005 127.64 8.93005 128.15 8.93005C128.66 8.93005 129.07 9.34005 129.07 9.85005C129.07 10.3601 128.66 10.7701 128.15 10.7701C127.64 10.7701 127.23 10.3601 127.23 9.85005ZM123.13 9.85005C123.13 9.34005 123.54 8.93005 124.05 8.93005C124.56 8.93005 124.97 9.34005 124.97 9.85005C124.97 10.3601 124.56 10.7701 124.05 10.7701C123.54 10.7701 123.13 10.3601 123.13 9.85005ZM119.03 9.85005C119.03 9.34005 119.44 8.93005 119.95 8.93005C120.46 8.93005 120.87 9.34005 120.87 9.85005C120.87 10.3601 120.46 10.7701 119.95 10.7701C119.44 10.7701 119.03 10.3601 119.03 9.85005ZM114.93 9.85005C114.93 9.34005 115.34 8.93005 115.85 8.93005C116.36 8.93005 116.77 9.34005 116.77 9.85005C116.77 10.3601 116.36 10.7701 115.85 10.7701C115.34 10.7701 114.93 10.3601 114.93 9.85005ZM110.83 9.85005C110.83 9.34005 111.24 8.93005 111.75 8.93005C112.26 8.93005 112.67 9.34005 112.67 9.85005C112.67 10.3601 112.26 10.7701 111.75 10.7701C111.24 10.7701 110.83 10.3601 110.83 9.85005ZM106.73 9.85005C106.73 9.34005 107.14 8.93005 107.65 8.93005C108.16 8.93005 108.58 9.34005 108.58 9.85005C108.58 10.3601 108.17 10.7701 107.65 10.7701C107.14 10.7701 106.73 10.3601 106.73 9.85005ZM102.63 9.85005C102.63 9.34005 103.04 8.93005 103.55 8.93005C104.06 8.93005 104.47 9.34005 104.47 9.85005C104.47 10.3601 104.06 10.7701 103.55 10.7701C103.04 10.7701 102.63 10.3601 102.63 9.85005ZM98.5199 9.85005C98.5199 9.34005 98.9299 8.93005 99.4399 8.93005C99.9499 8.93005 100.36 9.34005 100.36 9.85005C100.36 10.3601 99.9499 10.7701 99.4399 10.7701C98.9399 10.7701 98.5199 10.3601 98.5199 9.85005ZM94.4299 9.85005C94.4299 9.34005 94.8399 8.93005 95.3499 8.93005C95.8599 8.93005 96.2699 9.34005 96.2699 9.85005C96.2699 10.3601 95.8599 10.7701 95.3499 10.7701C94.8399 10.7701 94.4299 10.3601 94.4299 9.85005ZM90.3199 9.85005C90.3199 9.34005 90.7299 8.93005 91.2399 8.93005C91.7499 8.93005 92.1599 9.34005 92.1599 9.85005C92.1599 10.3601 91.7499 10.7701 91.2399 10.7701C90.7399 10.7701 90.3199 10.3601 90.3199 9.85005ZM86.2299 9.85005C86.2299 9.34005 86.6399 8.93005 87.1499 8.93005C87.6599 8.93005 88.0699 9.34005 88.0699 9.85005C88.0699 10.3601 87.6599 10.7701 87.1499 10.7701C86.6399 10.7701 86.2299 10.3601 86.2299 9.85005ZM82.1199 9.85005C82.1199 9.34005 82.5299 8.93005 83.0399 8.93005C83.5499 8.93005 83.9599 9.34005 83.9599 9.85005C83.9599 10.3601 83.5499 10.7701 83.0399 10.7701C82.5399 10.7701 82.1199 10.3601 82.1199 9.85005ZM78.0199 9.85005C78.0199 9.34005 78.4299 8.93005 78.9399 8.93005C79.4499 8.93005 79.8699 9.34005 79.8699 9.85005C79.8699 10.3601 79.4599 10.7701 78.9399 10.7701C78.4399 10.7701 78.0199 10.3601 78.0199 9.85005ZM73.9199 9.85005C73.9199 9.34005 74.3299 8.93005 74.8399 8.93005C75.3499 8.93005 75.7599 9.34005 75.7599 9.85005C75.7599 10.3601 75.3499 10.7701 74.8399 10.7701C74.3399 10.7701 73.9199 10.3601 73.9199 9.85005ZM69.8199 9.85005C69.8199 9.34005 70.2299 8.93005 70.7399 8.93005C71.2499 8.93005 71.6599 9.34005 71.6599 9.85005C71.6599 10.3601 71.2499 10.7701 70.7399 10.7701C70.2399 10.7701 69.8199 10.3601 69.8199 9.85005ZM65.7199 9.85005C65.7199 9.34005 66.1299 8.93005 66.6399 8.93005C67.1499 8.93005 67.5599 9.34005 67.5599 9.85005C67.5599 10.3601 67.1499 10.7701 66.6399 10.7701C66.1399 10.7701 65.7199 10.3601 65.7199 9.85005ZM61.6199 9.85005C61.6199 9.34005 62.0299 8.93005 62.5399 8.93005C63.0499 8.93005 63.4599 9.34005 63.4599 9.85005C63.4599 10.3601 63.0499 10.7701 62.5399 10.7701C62.0399 10.7701 61.6199 10.3601 61.6199 9.85005ZM57.5199 9.85005C57.5199 9.34005 57.9299 8.93005 58.4399 8.93005C58.9499 8.93005 59.3599 9.34005 59.3599 9.85005C59.3599 10.3601 58.9499 10.7701 58.4399 10.7701C57.9399 10.7701 57.5199 10.3601 57.5199 9.85005ZM53.4199 9.85005C53.4199 9.34005 53.8299 8.93005 54.3399 8.93005C54.8499 8.93005 55.2599 9.34005 55.2599 9.85005C55.2599 10.3601 54.8499 10.7701 54.3399 10.7701C53.8399 10.7701 53.4199 10.3601 53.4199 9.85005ZM49.3199 9.85005C49.3199 9.34005 49.7299 8.93005 50.2399 8.93005C50.7499 8.93005 51.1599 9.34005 51.1599 9.85005C51.1599 10.3601 50.7499 10.7701 50.2399 10.7701C49.7399 10.7701 49.3199 10.3601 49.3199 9.85005ZM45.2199 9.85005C45.2199 9.34005 45.6299 8.93005 46.1399 8.93005C46.6499 8.93005 47.0599 9.34005 47.0599 9.85005C47.0599 10.3601 46.6499 10.7701 46.1399 10.7701C45.6399 10.7701 45.2199 10.3601 45.2199 9.85005ZM41.1199 9.85005C41.1199 9.34005 41.5299 8.93005 42.0399 8.93005C42.5499 8.93005 42.9599 9.34005 42.9599 9.85005C42.9599 10.3601 42.5499 10.7701 42.0399 10.7701C41.5399 10.7701 41.1199 10.3601 41.1199 9.85005ZM37.0199 9.85005C37.0199 9.34005 37.4299 8.93005 37.9399 8.93005C38.4499 8.93005 38.8599 9.34005 38.8599 9.85005C38.8599 10.3601 38.4499 10.7701 37.9399 10.7701C37.4399 10.7701 37.0199 10.3601 37.0199 9.85005ZM32.9199 9.85005C32.9199 9.34005 33.3299 8.93005 33.8399 8.93005C34.3499 8.93005 34.7599 9.34005 34.7599 9.85005C34.7599 10.3601 34.3499 10.7701 33.8399 10.7701C33.3399 10.7701 32.9199 10.3601 32.9199 9.85005ZM28.8199 9.85005C28.8199 9.34005 29.2299 8.93005 29.7399 8.93005C30.2499 8.93005 30.6599 9.34005 30.6599 9.85005C30.6599 10.3601 30.2499 10.7701 29.7399 10.7701C29.2399 10.7701 28.8199 10.3601 28.8199 9.85005ZM24.7199 9.85005C24.7199 9.34005 25.1299 8.93005 25.6399 8.93005C26.1499 8.93005 26.5599 9.34005 26.5599 9.85005C26.5599 10.3601 26.1499 10.7701 25.6399 10.7701C25.1399 10.7701 24.7199 10.3601 24.7199 9.85005ZM20.6199 9.85005C20.6199 9.34005 21.0299 8.93005 21.5399 8.93005C22.0499 8.93005 22.4599 9.34005 22.4599 9.85005C22.4599 10.3601 22.0499 10.7701 21.5399 10.7701C21.0399 10.7701 20.6199 10.3601 20.6199 9.85005ZM16.5199 9.85005C16.5199 9.34005 16.9299 8.93005 17.4399 8.93005C17.9499 8.93005 18.3599 9.34005 18.3599 9.85005C18.3599 10.3601 17.9499 10.7701 17.4399 10.7701C16.9399 10.7701 16.5199 10.3601 16.5199 9.85005ZM12.4199 9.85005C12.4199 9.34005 12.8299 8.93005 13.3399 8.93005C13.8499 8.93005 14.2699 9.34005 14.2699 9.85005C14.2699 10.3601 13.8599 10.7701 13.3399 10.7701C12.8299 10.7701 12.4199 10.3601 12.4199 9.85005Z" fill="#FFB546"/>
<path d="M152.75 10.7701C152.69 10.7701 152.63 10.76 152.57 10.75C152.51 10.74 152.45 10.72 152.4 10.69C152.34 10.67 152.29 10.6401 152.24 10.6001C152.19 10.5701 152.14 10.53 152.1 10.49C151.93 10.32 151.83 10.08 151.83 9.84005C151.83 9.60005 151.93 9.36005 152.1 9.19005C152.31 8.98005 152.64 8.88005 152.94 8.93005C153 8.94005 153.05 8.96005 153.11 8.99005C153.17 9.01005 153.22 9.04005 153.27 9.08005C153.32 9.11005 153.37 9.15005 153.41 9.19005C153.58 9.36005 153.68 9.60005 153.68 9.84005C153.68 10.08 153.58 10.32 153.41 10.49C153.37 10.53 153.32 10.5701 153.27 10.6001C153.22 10.6301 153.17 10.66 153.11 10.69C153.05 10.72 153 10.73 152.94 10.75C152.88 10.77 152.81 10.7701 152.75 10.7701Z" fill="#FFB546"/>
<path d="M151.83 218.07C151.83 217.56 152.24 217.15 152.75 217.15C153.26 217.15 153.67 217.56 153.67 218.07C153.67 218.58 153.26 218.99 152.75 218.99C152.24 218.99 151.83 218.58 151.83 218.07ZM151.83 213.99C151.83 213.48 152.24 213.07 152.75 213.07C153.26 213.07 153.67 213.48 153.67 213.99C153.67 214.5 153.26 214.91 152.75 214.91C152.24 214.91 151.83 214.5 151.83 213.99ZM151.83 209.9C151.83 209.39 152.24 208.98 152.75 208.98C153.26 208.98 153.67 209.39 153.67 209.9C153.67 210.41 153.26 210.82 152.75 210.82C152.24 210.83 151.83 210.41 151.83 209.9ZM151.83 205.82C151.83 205.31 152.24 204.9 152.75 204.9C153.26 204.9 153.67 205.31 153.67 205.82C153.67 206.33 153.26 206.74 152.75 206.74C152.24 206.74 151.83 206.33 151.83 205.82ZM151.83 201.74C151.83 201.23 152.24 200.82 152.75 200.82C153.26 200.82 153.67 201.23 153.67 201.74C153.67 202.25 153.26 202.66 152.75 202.66C152.24 202.66 151.83 202.25 151.83 201.74ZM151.83 197.65C151.83 197.14 152.24 196.73 152.75 196.73C153.26 196.73 153.67 197.14 153.67 197.65C153.67 198.16 153.26 198.57 152.75 198.57C152.24 198.58 151.83 198.16 151.83 197.65ZM151.83 193.57C151.83 193.06 152.24 192.65 152.75 192.65C153.26 192.65 153.67 193.06 153.67 193.57C153.67 194.08 153.26 194.49 152.75 194.49C152.24 194.5 151.83 194.08 151.83 193.57ZM151.83 189.49C151.83 188.98 152.24 188.57 152.75 188.57C153.26 188.57 153.67 188.98 153.67 189.49C153.67 190 153.26 190.41 152.75 190.41C152.24 190.41 151.83 190 151.83 189.49ZM151.83 185.41C151.83 184.9 152.24 184.49 152.75 184.49C153.26 184.49 153.67 184.9 153.67 185.41C153.67 185.92 153.26 186.33 152.75 186.33C152.24 186.33 151.83 185.92 151.83 185.41ZM151.83 181.32C151.83 180.81 152.24 180.4 152.75 180.4C153.26 180.4 153.67 180.81 153.67 181.32C153.67 181.83 153.26 182.24 152.75 182.24C152.24 182.25 151.83 181.83 151.83 181.32ZM151.83 177.24C151.83 176.73 152.24 176.32 152.75 176.32C153.26 176.32 153.67 176.73 153.67 177.24C153.67 177.75 153.26 178.16 152.75 178.16C152.24 178.16 151.83 177.75 151.83 177.24ZM151.83 173.16C151.83 172.65 152.24 172.24 152.75 172.24C153.26 172.24 153.67 172.65 153.67 173.16C153.67 173.67 153.26 174.08 152.75 174.08C152.24 174.08 151.83 173.67 151.83 173.16ZM151.83 169.07C151.83 168.56 152.24 168.15 152.75 168.15C153.26 168.15 153.67 168.56 153.67 169.07C153.67 169.58 153.26 169.99 152.75 169.99C152.24 170 151.83 169.59 151.83 169.07ZM151.83 164.99C151.83 164.48 152.24 164.07 152.75 164.07C153.26 164.07 153.67 164.48 153.67 164.99C153.67 165.5 153.26 165.91 152.75 165.91C152.24 165.92 151.83 165.5 151.83 164.99ZM151.83 160.91C151.83 160.4 152.24 159.99 152.75 159.99C153.26 159.99 153.67 160.4 153.67 160.91C153.67 161.42 153.26 161.83 152.75 161.83C152.24 161.83 151.83 161.42 151.83 160.91ZM151.83 156.83C151.83 156.32 152.24 155.91 152.75 155.91C153.26 155.91 153.67 156.32 153.67 156.83C153.67 157.34 153.26 157.75 152.75 157.75C152.24 157.75 151.83 157.34 151.83 156.83ZM151.83 152.74C151.83 152.23 152.24 151.82 152.75 151.82C153.26 151.82 153.67 152.23 153.67 152.74C153.67 153.25 153.26 153.66 152.75 153.66C152.24 153.67 151.83 153.25 151.83 152.74ZM151.83 148.66C151.83 148.15 152.24 147.74 152.75 147.74C153.26 147.74 153.67 148.15 153.67 148.66C153.67 149.17 153.26 149.58 152.75 149.58C152.24 149.58 151.83 149.17 151.83 148.66ZM151.83 144.58C151.83 144.07 152.24 143.66 152.75 143.66C153.26 143.66 153.67 144.07 153.67 144.58C153.67 145.09 153.26 145.5 152.75 145.5C152.24 145.5 151.83 145.09 151.83 144.58ZM151.83 140.5C151.83 139.99 152.24 139.58 152.75 139.58C153.26 139.58 153.67 139.99 153.67 140.5C153.67 141.01 153.26 141.42 152.75 141.42C152.24 141.42 151.83 141.01 151.83 140.5ZM151.83 136.41C151.83 135.9 152.24 135.49 152.75 135.49C153.26 135.49 153.67 135.9 153.67 136.41C153.67 136.92 153.26 137.33 152.75 137.33C152.24 137.34 151.83 136.92 151.83 136.41ZM151.83 132.33C151.83 131.82 152.24 131.41 152.75 131.41C153.26 131.41 153.67 131.82 153.67 132.33C153.67 132.84 153.26 133.25 152.75 133.25C152.24 133.26 151.83 132.84 151.83 132.33ZM151.83 128.25C151.83 127.74 152.24 127.33 152.75 127.33C153.26 127.33 153.67 127.74 153.67 128.25C153.67 128.76 153.26 129.17 152.75 129.17C152.24 129.17 151.83 128.76 151.83 128.25ZM151.83 124.16C151.83 123.65 152.24 123.24 152.75 123.24C153.26 123.24 153.67 123.65 153.67 124.16C153.67 124.67 153.26 125.08 152.75 125.08C152.24 125.09 151.83 124.67 151.83 124.16ZM151.83 120.08C151.83 119.57 152.24 119.16 152.75 119.16C153.26 119.16 153.67 119.57 153.67 120.08C153.67 120.59 153.26 121 152.75 121C152.24 121.01 151.83 120.59 151.83 120.08ZM151.83 116C151.83 115.49 152.24 115.08 152.75 115.08C153.26 115.08 153.67 115.49 153.67 116C153.67 116.51 153.26 116.93 152.75 116.93C152.24 116.93 151.83 116.51 151.83 116ZM151.83 111.92C151.83 111.41 152.24 111 152.75 111C153.26 111 153.67 111.41 153.67 111.92C153.67 112.43 153.26 112.84 152.75 112.84C152.24 112.84 151.83 112.43 151.83 111.92ZM151.83 107.83C151.83 107.32 152.24 106.91 152.75 106.91C153.26 106.91 153.67 107.32 153.67 107.83C153.67 108.34 153.26 108.75 152.75 108.75C152.24 108.76 151.83 108.34 151.83 107.83ZM151.83 103.75C151.83 103.24 152.24 102.83 152.75 102.83C153.26 102.83 153.67 103.24 153.67 103.75C153.67 104.26 153.26 104.67 152.75 104.67C152.24 104.68 151.83 104.26 151.83 103.75ZM151.83 99.67C151.83 99.16 152.24 98.75 152.75 98.75C153.26 98.75 153.67 99.16 153.67 99.67C153.67 100.18 153.26 100.59 152.75 100.59C152.24 100.59 151.83 100.18 151.83 99.67ZM151.83 95.58C151.83 95.07 152.24 94.66 152.75 94.66C153.26 94.66 153.67 95.07 153.67 95.58C153.67 96.09 153.26 96.5 152.75 96.5C152.24 96.51 151.83 96.1 151.83 95.58ZM151.83 91.5C151.83 90.99 152.24 90.58 152.75 90.58C153.26 90.58 153.67 90.99 153.67 91.5C153.67 92.01 153.26 92.42 152.75 92.42C152.24 92.43 151.83 92.02 151.83 91.5ZM151.83 87.42C151.83 86.91 152.24 86.5 152.75 86.5C153.26 86.5 153.67 86.91 153.67 87.42C153.67 87.93 153.26 88.34 152.75 88.34C152.24 88.35 151.83 87.93 151.83 87.42ZM151.83 83.34C151.83 82.83 152.24 82.42 152.75 82.42C153.26 82.42 153.67 82.83 153.67 83.34C153.67 83.85 153.26 84.26 152.75 84.26C152.24 84.26 151.83 83.85 151.83 83.34ZM151.83 79.26C151.83 78.75 152.24 78.34 152.75 78.34C153.26 78.34 153.67 78.75 153.67 79.26C153.67 79.77 153.26 80.18 152.75 80.18C152.24 80.18 151.83 79.77 151.83 79.26ZM151.83 75.17C151.83 74.66 152.24 74.25 152.75 74.25C153.26 74.25 153.67 74.66 153.67 75.17C153.67 75.68 153.26 76.09 152.75 76.09C152.24 76.1 151.83 75.68 151.83 75.17ZM151.83 71.09C151.83 70.58 152.24 70.17 152.75 70.17C153.26 70.17 153.67 70.58 153.67 71.09C153.67 71.6 153.26 72.01 152.75 72.01C152.24 72.01 151.83 71.6 151.83 71.09ZM151.83 67.01C151.83 66.5 152.24 66.09 152.75 66.09C153.26 66.09 153.67 66.5 153.67 67.01C153.67 67.52 153.26 67.93 152.75 67.93C152.24 67.93 151.83 67.52 151.83 67.01ZM151.83 62.93C151.83 62.42 152.24 62.01 152.75 62.01C153.26 62.01 153.67 62.42 153.67 62.93C153.67 63.44 153.26 63.85 152.75 63.85C152.24 63.85 151.83 63.44 151.83 62.93ZM151.83 58.84C151.83 58.33 152.24 57.92 152.75 57.92C153.26 57.92 153.67 58.33 153.67 58.84C153.67 59.35 153.26 59.76 152.75 59.76C152.24 59.77 151.83 59.35 151.83 58.84ZM151.83 54.76C151.83 54.25 152.24 53.84 152.75 53.84C153.26 53.84 153.67 54.25 153.67 54.76C153.67 55.27 153.26 55.68 152.75 55.68C152.24 55.68 151.83 55.27 151.83 54.76ZM151.83 50.68C151.83 50.17 152.24 49.76 152.75 49.76C153.26 49.76 153.67 50.17 153.67 50.68C153.67 51.19 153.26 51.6 152.75 51.6C152.24 51.6 151.83 51.19 151.83 50.68ZM151.83 46.59C151.83 46.08 152.24 45.67 152.75 45.67C153.26 45.67 153.67 46.08 153.67 46.59C153.67 47.1 153.26 47.51 152.75 47.51C152.24 47.52 151.83 47.1 151.83 46.59ZM151.83 42.51C151.83 42 152.24 41.59 152.75 41.59C153.26 41.59 153.67 42 153.67 42.51C153.67 43.02 153.26 43.43 152.75 43.43C152.24 43.43 151.83 43.02 151.83 42.51ZM151.83 38.43C151.83 37.92 152.24 37.51 152.75 37.51C153.26 37.51 153.67 37.92 153.67 38.43C153.67 38.94 153.26 39.35 152.75 39.35C152.24 39.35 151.83 38.94 151.83 38.43ZM151.83 34.35C151.83 33.84 152.24 33.43 152.75 33.43C153.26 33.43 153.67 33.84 153.67 34.35C153.67 34.86 153.26 35.27 152.75 35.27C152.24 35.27 151.83 34.86 151.83 34.35ZM151.83 30.26C151.83 29.75 152.24 29.34 152.75 29.34C153.26 29.34 153.67 29.75 153.67 30.26C153.67 30.77 153.26 31.18 152.75 31.18C152.24 31.19 151.83 30.77 151.83 30.26ZM151.83 26.18C151.83 25.67 152.24 25.26 152.75 25.26C153.26 25.26 153.67 25.67 153.67 26.18C153.67 26.69 153.26 27.1 152.75 27.1C152.24 27.1 151.83 26.69 151.83 26.18ZM151.83 22.1C151.83 21.59 152.24 21.18 152.75 21.18C153.26 21.18 153.67 21.59 153.67 22.1C153.67 22.61 153.26 23.02 152.75 23.02C152.24 23.02 151.83 22.61 151.83 22.1ZM151.83 18.01C151.83 17.5 152.24 17.09 152.75 17.09C153.26 17.09 153.67 17.5 153.67 18.01C153.67 18.52 153.26 18.93 152.75 18.93C152.24 18.94 151.83 18.52 151.83 18.01ZM151.83 13.93C151.83 13.42 152.24 13.01 152.75 13.01C153.26 13.01 153.67 13.42 153.67 13.93C153.67 14.44 153.26 14.85 152.75 14.85C152.24 14.85 151.83 14.44 151.83 13.93Z" fill="#FFB546"/>
<path d="M152.75 223.08C152.51 223.08 152.27 222.98 152.1 222.81C151.93 222.64 151.83 222.4 151.83 222.16C151.83 221.92 151.93 221.68 152.1 221.51C152.14 221.47 152.19 221.43 152.24 221.4C152.29 221.37 152.34 221.34 152.4 221.32C152.46 221.29 152.51 221.28 152.57 221.26C152.69 221.24 152.81 221.24 152.93 221.26C152.99 221.27 153.04 221.29 153.1 221.32C153.16 221.34 153.21 221.37 153.26 221.4C153.31 221.43 153.36 221.47 153.4 221.51C153.57 221.68 153.67 221.92 153.67 222.16C153.67 222.22 153.66 222.28 153.65 222.34C153.64 222.4 153.62 222.46 153.6 222.51C153.57 222.57 153.55 222.62 153.52 222.67C153.48 222.72 153.45 222.77 153.41 222.81C153.37 222.85 153.32 222.89 153.27 222.92C153.22 222.95 153.16 222.98 153.11 223C153.05 223.03 153 223.04 152.94 223.06C152.87 223.07 152.81 223.08 152.75 223.08Z" fill="#FFB546"/>
<path d="M147.73 222.15C147.73 221.64 148.14 221.22 148.65 221.22C149.16 221.22 149.57 221.63 149.57 222.15C149.57 222.66 149.16 223.07 148.65 223.07C148.14 223.08 147.73 222.66 147.73 222.15ZM143.63 222.15C143.63 221.64 144.04 221.22 144.55 221.22C145.06 221.22 145.47 221.63 145.47 222.15C145.47 222.66 145.06 223.07 144.55 223.07C144.04 223.08 143.63 222.66 143.63 222.15ZM139.53 222.15C139.53 221.64 139.94 221.22 140.45 221.22C140.96 221.22 141.37 221.63 141.37 222.15C141.37 222.66 140.96 223.07 140.45 223.07C139.94 223.08 139.53 222.66 139.53 222.15ZM135.43 222.15C135.43 221.64 135.84 221.22 136.35 221.22C136.86 221.22 137.27 221.63 137.27 222.15C137.27 222.66 136.86 223.07 136.35 223.07C135.84 223.08 135.43 222.66 135.43 222.15ZM131.33 222.15C131.33 221.64 131.74 221.22 132.25 221.22C132.76 221.22 133.17 221.63 133.17 222.15C133.17 222.66 132.76 223.07 132.25 223.07C131.74 223.08 131.33 222.66 131.33 222.15ZM127.23 222.15C127.23 221.64 127.64 221.22 128.15 221.22C128.66 221.22 129.07 221.63 129.07 222.15C129.07 222.66 128.66 223.07 128.15 223.07C127.64 223.08 127.23 222.66 127.23 222.15ZM123.13 222.15C123.13 221.64 123.54 221.22 124.05 221.22C124.56 221.22 124.97 221.63 124.97 222.15C124.97 222.66 124.56 223.07 124.05 223.07C123.54 223.08 123.13 222.66 123.13 222.15ZM119.03 222.15C119.03 221.64 119.44 221.22 119.95 221.22C120.46 221.22 120.87 221.63 120.87 222.15C120.87 222.66 120.46 223.07 119.95 223.07C119.44 223.08 119.03 222.66 119.03 222.15ZM114.93 222.15C114.93 221.64 115.34 221.22 115.85 221.22C116.36 221.22 116.77 221.63 116.77 222.15C116.77 222.66 116.36 223.07 115.85 223.07C115.34 223.08 114.93 222.66 114.93 222.15ZM110.83 222.15C110.83 221.64 111.24 221.22 111.75 221.22C112.26 221.22 112.67 221.63 112.67 222.15C112.67 222.66 112.26 223.07 111.75 223.07C111.24 223.08 110.83 222.66 110.83 222.15ZM106.73 222.15C106.73 221.64 107.14 221.22 107.65 221.22C108.16 221.22 108.58 221.63 108.58 222.15C108.58 222.66 108.17 223.07 107.65 223.07C107.14 223.08 106.73 222.66 106.73 222.15ZM102.63 222.15C102.63 221.64 103.04 221.22 103.55 221.22C104.06 221.22 104.47 221.63 104.47 222.15C104.47 222.66 104.06 223.07 103.55 223.07C103.04 223.08 102.63 222.66 102.63 222.15ZM98.5199 222.15C98.5199 221.64 98.9299 221.22 99.4399 221.22C99.9499 221.22 100.36 221.63 100.36 222.15C100.36 222.66 99.9499 223.07 99.4399 223.07C98.9399 223.08 98.5199 222.66 98.5199 222.15ZM94.4299 222.15C94.4299 221.64 94.8399 221.22 95.3499 221.22C95.8599 221.22 96.2699 221.63 96.2699 222.15C96.2699 222.66 95.8599 223.07 95.3499 223.07C94.8399 223.08 94.4299 222.66 94.4299 222.15ZM90.3199 222.15C90.3199 221.64 90.7299 221.22 91.2399 221.22C91.7499 221.22 92.1599 221.63 92.1599 222.15C92.1599 222.66 91.7499 223.07 91.2399 223.07C90.7399 223.08 90.3199 222.66 90.3199 222.15ZM86.2299 222.15C86.2299 221.64 86.6399 221.22 87.1499 221.22C87.6599 221.22 88.0699 221.63 88.0699 222.15C88.0699 222.66 87.6599 223.07 87.1499 223.07C86.6399 223.08 86.2299 222.66 86.2299 222.15ZM82.1199 222.15C82.1199 221.64 82.5299 221.22 83.0399 221.22C83.5499 221.22 83.9599 221.63 83.9599 222.15C83.9599 222.66 83.5499 223.07 83.0399 223.07C82.5399 223.08 82.1199 222.66 82.1199 222.15ZM78.0199 222.15C78.0199 221.64 78.4299 221.22 78.9399 221.22C79.4499 221.22 79.8599 221.63 79.8599 222.15C79.8599 222.66 79.4499 223.07 78.9399 223.07C78.4399 223.08 78.0199 222.66 78.0199 222.15ZM73.9199 222.15C73.9199 221.64 74.3299 221.22 74.8399 221.22C75.3499 221.22 75.7599 221.63 75.7599 222.15C75.7599 222.66 75.3499 223.07 74.8399 223.07C74.3399 223.08 73.9199 222.66 73.9199 222.15ZM69.8199 222.15C69.8199 221.64 70.2299 221.22 70.7399 221.22C71.2499 221.22 71.6599 221.63 71.6599 222.15C71.6599 222.66 71.2499 223.07 70.7399 223.07C70.2399 223.08 69.8199 222.66 69.8199 222.15ZM65.7199 222.15C65.7199 221.64 66.1299 221.22 66.6399 221.22C67.1499 221.22 67.5599 221.63 67.5599 222.15C67.5599 222.66 67.1499 223.07 66.6399 223.07C66.1399 223.08 65.7199 222.66 65.7199 222.15ZM61.6199 222.15C61.6199 221.64 62.0299 221.22 62.5399 221.22C63.0499 221.22 63.4599 221.63 63.4599 222.15C63.4599 222.66 63.0499 223.07 62.5399 223.07C62.0399 223.08 61.6199 222.66 61.6199 222.15ZM57.5199 222.15C57.5199 221.64 57.9299 221.22 58.4399 221.22C58.9499 221.22 59.3599 221.63 59.3599 222.15C59.3599 222.66 58.9499 223.07 58.4399 223.07C57.9399 223.08 57.5199 222.66 57.5199 222.15ZM53.4199 222.15C53.4199 221.64 53.8299 221.22 54.3399 221.22C54.8499 221.22 55.2599 221.63 55.2599 222.15C55.2599 222.66 54.8499 223.07 54.3399 223.07C53.8399 223.08 53.4199 222.66 53.4199 222.15ZM49.3199 222.15C49.3199 221.64 49.7299 221.22 50.2399 221.22C50.7499 221.22 51.1599 221.63 51.1599 222.15C51.1599 222.66 50.7499 223.07 50.2399 223.07C49.7399 223.08 49.3199 222.66 49.3199 222.15ZM45.2199 222.15C45.2199 221.64 45.6299 221.22 46.1399 221.22C46.6499 221.22 47.0599 221.63 47.0599 222.15C47.0599 222.66 46.6499 223.07 46.1399 223.07C45.6399 223.08 45.2199 222.66 45.2199 222.15ZM41.1199 222.15C41.1199 221.64 41.5299 221.22 42.0399 221.22C42.5499 221.22 42.9599 221.63 42.9599 222.15C42.9599 222.66 42.5499 223.07 42.0399 223.07C41.5399 223.08 41.1199 222.66 41.1199 222.15ZM37.0199 222.15C37.0199 221.64 37.4299 221.22 37.9399 221.22C38.4499 221.22 38.8599 221.63 38.8599 222.15C38.8599 222.66 38.4499 223.07 37.9399 223.07C37.4399 223.08 37.0199 222.66 37.0199 222.15ZM32.9199 222.15C32.9199 221.64 33.3299 221.22 33.8399 221.22C34.3499 221.22 34.7599 221.63 34.7599 222.15C34.7599 222.66 34.3499 223.07 33.8399 223.07C33.3399 223.08 32.9199 222.66 32.9199 222.15ZM28.8199 222.15C28.8199 221.64 29.2299 221.22 29.7399 221.22C30.2499 221.22 30.6599 221.63 30.6599 222.15C30.6599 222.66 30.2499 223.07 29.7399 223.07C29.2399 223.08 28.8199 222.66 28.8199 222.15ZM24.7199 222.15C24.7199 221.64 25.1299 221.22 25.6399 221.22C26.1499 221.22 26.5599 221.63 26.5599 222.15C26.5599 222.66 26.1499 223.07 25.6399 223.07C25.1399 223.08 24.7199 222.66 24.7199 222.15ZM20.6199 222.15C20.6199 221.64 21.0299 221.22 21.5399 221.22C22.0499 221.22 22.4599 221.63 22.4599 222.15C22.4599 222.66 22.0499 223.07 21.5399 223.07C21.0299 223.08 20.6199 222.66 20.6199 222.15ZM16.5199 222.15C16.5199 221.64 16.9299 221.22 17.4399 221.22C17.9499 221.22 18.3599 221.63 18.3599 222.15C18.3599 222.66 17.9499 223.07 17.4399 223.07C16.9399 223.08 16.5199 222.66 16.5199 222.15ZM12.4199 222.15C12.4199 221.64 12.8299 221.22 13.3399 221.22C13.8499 221.22 14.2599 221.63 14.2599 222.15C14.2599 222.66 13.8499 223.07 13.3399 223.07C12.8299 223.08 12.4199 222.66 12.4199 222.15Z" fill="#FFB546"/>
<path d="M80.97 169.05C80.97 169.05 80.98 169.02 81 168.97C81.02 169.02 81.03 169.05 81.03 169.05C81.03 169.05 81.18 168.68 81.39 167.99C81.42 167.9 81.44 167.81 81.47 167.71H80.52C80.55 167.81 80.58 167.9 80.6 167.99C80.82 168.67 80.97 169.05 80.97 169.05Z" fill="#D9B699"/>
<path d="M119.16 173.32C119.06 172.92 118.93 172.64 118.84 172.45C118.74 172.27 118.69 172.17 118.69 172.17C118.69 172.17 118.69 172.28 118.7 172.48C118.7 172.68 118.69 172.98 118.63 173.35C118.52 174.07 118.18 175.11 117.38 175.96C116.99 176.39 116.5 176.74 115.92 176.97C115.34 177.21 114.68 177.33 114.02 177.29C113.69 177.27 113.36 177.21 113.06 177.11C112.76 177.01 112.45 176.86 112.14 176.68C111.53 176.3 110.91 175.74 110.24 175.04C109.57 174.35 108.88 173.57 108.08 172.85C107.88 172.67 107.67 172.49 107.46 172.32C107.24 172.15 107.02 171.99 106.8 171.83C106.57 171.68 106.34 171.54 106.12 171.41C105.89 171.28 105.66 171.17 105.43 171.05C103.93 170.34 102.44 170.06 101.15 170.02C101.68 169.87 102.25 169.75 102.85 169.72C103.53 169.67 104.27 169.73 105.1 169.83C105.93 169.93 106.83 170.09 107.86 170.21C108.88 170.32 110.03 170.39 111.29 170.21C111.92 170.11 112.54 169.97 113.17 169.71C113.61 169.53 114.03 169.31 114.43 169.05H94.19C92.67 169.22 91.24 169.64 89.96 170.24C88.6 170.89 87.38 171.76 86.4 172.7C86.19 172.9 85.99 173.11 85.79 173.32C86.44 172.06 86.99 170.7 87.23 169.37C87.25 169.26 87.27 169.15 87.28 169.04H84.48C84.02 170.04 83.41 171.09 82.75 172.3C82.38 172.99 82.02 173.7 81.71 174.44C81.4 175.18 81.16 175.91 80.98 176.62C80.98 176.64 80.97 176.65 80.97 176.67C80.97 176.65 80.96 176.64 80.96 176.62C80.78 175.91 80.54 175.18 80.23 174.44C79.92 173.71 79.56 172.99 79.19 172.3C78.53 171.09 77.92 170.04 77.46 169.04H74.66C74.68 169.15 74.69 169.26 74.71 169.37C74.95 170.67 75.47 171.99 76.1 173.22C75.94 173.05 75.77 172.87 75.59 172.7C74.61 171.76 73.4 170.89 72.03 170.24C70.75 169.64 69.32 169.21 67.8 169.05H47.59C47.98 169.31 48.4 169.53 48.85 169.71C49.48 169.96 50.1 170.11 50.73 170.21C51.98 170.39 53.13 170.32 54.16 170.21C55.19 170.09 56.09 169.93 56.92 169.83C57.74 169.73 58.49 169.68 59.17 169.72C59.77 169.75 60.34 169.87 60.87 170.02C59.58 170.06 58.09 170.34 56.59 171.05C56.36 171.17 56.13 171.28 55.9 171.41C55.67 171.55 55.44 171.68 55.22 171.83C55 171.99 54.77 172.15 54.56 172.32C54.35 172.49 54.14 172.67 53.94 172.85C53.14 173.57 52.45 174.35 51.78 175.04C51.11 175.74 50.49 176.3 49.88 176.68C49.57 176.86 49.26 177.02 48.96 177.11C48.65 177.21 48.33 177.27 48 177.29C47.34 177.33 46.67 177.21 46.1 176.97C45.52 176.73 45.03 176.38 44.64 175.96C43.84 175.11 43.51 174.07 43.39 173.35C43.33 172.98 43.32 172.69 43.32 172.48C43.33 172.28 43.33 172.17 43.33 172.17C43.33 172.17 43.28 172.27 43.18 172.45C43.09 172.64 42.96 172.92 42.86 173.32C42.76 173.72 42.68 174.22 42.71 174.83C42.74 175.43 42.87 176.13 43.21 176.86C43.38 177.22 43.6 177.6 43.88 177.95C44.16 178.3 44.5 178.64 44.9 178.94C45.69 179.54 46.69 179.98 47.83 180.13C48.4 180.2 49 180.2 49.62 180.1C50.24 180 50.83 179.79 51.4 179.53C52.52 178.98 53.44 178.18 54.21 177.38C54.3 177.29 54.38 177.2 54.47 177.11C54.17 177.73 53.91 178.43 53.73 179.21C53.5 180.21 53.39 181.33 53.51 182.52C53.63 183.69 53.92 184.79 54.12 185.8C54.22 186.3 54.29 186.79 54.32 187.23C54.34 187.68 54.31 188.08 54.22 188.46C54.03 189.23 53.6 189.97 53.02 190.5C52.74 190.77 52.42 190.98 52.1 191.13C51.77 191.29 51.42 191.39 51.07 191.43C50.38 191.51 49.77 191.35 49.36 191C49.14 190.81 48.96 190.57 48.83 190.31C48.71 190.05 48.64 189.77 48.64 189.52C48.63 189.27 48.69 189 48.79 188.81C48.89 188.61 49.07 188.43 49.27 188.29C49.47 188.15 49.7 188.06 49.92 188C50.14 187.95 50.36 187.93 50.55 187.95C50.94 187.97 51.24 188.12 51.42 188.26C51.52 188.32 51.57 188.39 51.62 188.43C51.66 188.47 51.69 188.49 51.69 188.49C51.69 188.49 51.68 188.46 51.66 188.41C51.63 188.36 51.61 188.26 51.54 188.17C51.42 187.96 51.17 187.66 50.71 187.45C50.26 187.24 49.62 187.11 48.88 187.31C48.51 187.41 48.11 187.59 47.76 187.93C47.4 188.27 47.15 188.71 47 189.22C46.7 190.24 46.88 191.45 47.61 192.49C47.8 192.75 48.01 193 48.28 193.22C48.54 193.45 48.82 193.62 49.13 193.78C49.74 194.09 50.42 194.25 51.11 194.29C51.8 194.32 52.5 194.24 53.18 194.02C53.87 193.8 54.52 193.46 55.1 193.01C56.27 192.12 57.15 190.8 57.53 189.26C57.71 188.48 57.74 187.7 57.67 186.99C57.6 186.28 57.45 185.64 57.29 185.05C56.95 183.88 56.57 182.92 56.35 182.05C55.9 180.35 56 178.63 56.34 177.23C56.5 176.52 56.73 175.89 56.98 175.35C57.22 174.8 57.48 174.35 57.71 173.98C57.8 173.84 57.89 173.72 57.96 173.6L57.97 173.59C58.13 173.47 58.29 173.37 58.45 173.26C58.24 173.64 58.07 174.03 57.96 174.45C57.75 175.2 57.71 175.95 57.83 176.66C57.95 177.37 58.22 178.05 58.65 178.6C59.08 179.17 59.64 179.55 60.2 179.77C61.32 180.22 62.54 180.04 63.29 179.43C63.67 179.13 63.9 178.76 64.04 178.41C64.18 178.06 64.23 177.73 64.22 177.43C64.21 176.83 64 176.42 63.82 176.19C63.77 176.13 63.73 176.09 63.7 176.04C63.66 176 63.63 175.97 63.6 175.95C63.55 175.9 63.52 175.88 63.52 175.88C63.52 175.88 63.54 175.91 63.57 175.98C63.59 176.01 63.61 176.05 63.63 176.09C63.65 176.14 63.67 176.19 63.69 176.26C63.78 176.51 63.83 176.91 63.69 177.36C63.62 177.59 63.51 177.82 63.34 178.03C63.18 178.24 62.96 178.43 62.7 178.53C62.2 178.74 61.5 178.66 60.95 178.26C60.67 178.06 60.45 177.8 60.32 177.51C60.17 177.2 60.11 176.84 60.12 176.46C60.13 176.08 60.23 175.67 60.41 175.31C60.58 174.95 60.85 174.59 61.18 174.27C61.51 173.95 61.92 173.65 62.38 173.39C62.84 173.13 63.35 172.93 63.87 172.75C64.93 172.43 66.1 172.31 67.31 172.39C68.52 172.49 69.72 172.78 70.82 173.21C71.79 173.6 72.67 174.08 73.48 174.64C73.09 174.63 72.66 174.67 72.21 174.78C71.52 174.95 70.79 175.29 70.13 175.79C69.46 176.29 68.85 176.96 68.34 177.73C67.84 178.51 67.43 179.38 67.18 180.4C66.94 181.42 66.87 182.6 67.23 183.8C67.58 184.97 68.3 186.07 69.35 186.78C70.43 187.51 71.69 187.72 72.83 187.49C73.4 187.37 73.95 187.13 74.4 186.79C74.87 186.43 75.21 185.99 75.44 185.54C75.88 184.63 75.92 183.65 75.61 182.86C75.53 182.66 75.43 182.48 75.32 182.32C75.26 182.24 75.2 182.16 75.14 182.08C75.07 182.01 75.01 181.94 74.94 181.88C74.66 181.63 74.37 181.48 74.09 181.38C73.53 181.18 73.02 181.22 72.65 181.32C72.28 181.43 72.04 181.6 71.9 181.73C71.83 181.79 71.79 181.85 71.76 181.89C71.73 181.93 71.72 181.94 71.72 181.94C71.72 181.94 71.74 181.93 71.79 181.92C71.84 181.91 71.89 181.88 71.98 181.86C72.15 181.82 72.4 181.79 72.69 181.85C72.98 181.91 73.31 182.06 73.58 182.32C73.71 182.45 73.83 182.6 73.9 182.76C73.91 182.8 73.93 182.84 73.94 182.88C73.95 182.92 73.96 182.96 73.97 183C73.98 183.09 73.99 183.18 73.99 183.27C73.98 183.63 73.79 184.03 73.5 184.31C73.35 184.45 73.18 184.55 73.03 184.59C72.85 184.64 72.66 184.67 72.46 184.66C72.05 184.64 71.58 184.46 71.28 184.17C70.94 183.87 70.65 183.4 70.49 182.84C70.33 182.3 70.3 181.66 70.38 181.01C70.46 180.36 70.65 179.67 70.88 179.07C71.35 177.85 72.06 176.89 72.88 176.33C73.29 176.04 73.73 175.85 74.14 175.73C74.36 175.67 74.57 175.63 74.77 175.6C76.14 176.78 77.25 178.1 78.12 179.32C79.18 180.8 79.93 182.12 80.44 183.04C80.69 183.5 80.89 183.86 81.01 184.11C81.02 184.12 81.02 184.13 81.02 184.14C80.97 184.3 80.9 184.55 80.82 184.9C80.76 185.16 80.68 185.48 80.61 185.84C80.49 186.3 80.35 186.82 80.19 187.4V187.41C79.91 188.38 79.93 189.42 80.24 190.38L81.11 193.05L81.98 190.38C82.29 189.42 82.31 188.38 82.03 187.41V187.4C81.87 186.82 81.73 186.3 81.61 185.84C81.54 185.48 81.46 185.16 81.4 184.9C81.31 184.56 81.24 184.3 81.2 184.14C81.21 184.13 81.21 184.12 81.21 184.11C81.34 183.86 81.54 183.5 81.78 183.04C82.29 182.12 83.04 180.8 84.1 179.32C84.97 178.1 86.07 176.78 87.45 175.6C87.65 175.63 87.86 175.67 88.08 175.73C88.49 175.85 88.93 176.04 89.34 176.33C90.16 176.89 90.87 177.85 91.34 179.07C91.57 179.68 91.76 180.36 91.84 181.01C91.92 181.66 91.89 182.3 91.73 182.84C91.56 183.4 91.27 183.87 90.94 184.17C90.64 184.46 90.17 184.64 89.76 184.66C89.55 184.67 89.36 184.65 89.19 184.59C89.04 184.54 88.87 184.45 88.72 184.31C88.43 184.03 88.24 183.63 88.23 183.27C88.23 183.18 88.23 183.09 88.25 183C88.26 182.96 88.27 182.92 88.28 182.88C88.29 182.84 88.31 182.8 88.32 182.76C88.39 182.6 88.5 182.44 88.64 182.32C88.91 182.06 89.24 181.91 89.53 181.85C89.82 181.79 90.08 181.81 90.24 181.86C90.33 181.88 90.39 181.91 90.43 181.92C90.47 181.94 90.5 181.94 90.5 181.94C90.5 181.94 90.48 181.92 90.46 181.89C90.43 181.86 90.39 181.79 90.32 181.73C90.19 181.6 89.95 181.43 89.57 181.32C89.2 181.22 88.7 181.19 88.13 181.38C87.85 181.48 87.55 181.63 87.28 181.88C87.21 181.95 87.15 182.01 87.08 182.08C87.02 182.15 86.96 182.24 86.9 182.32C86.79 182.49 86.69 182.67 86.61 182.86C86.3 183.65 86.34 184.64 86.78 185.54C87.01 185.99 87.34 186.43 87.82 186.79C88.28 187.13 88.82 187.37 89.39 187.49C90.53 187.73 91.79 187.51 92.87 186.78C93.92 186.07 94.64 184.98 94.99 183.8C95.35 182.6 95.28 181.41 95.04 180.4C94.79 179.37 94.38 178.51 93.88 177.73C93.38 176.95 92.76 176.29 92.09 175.79C91.42 175.28 90.7 174.95 90.01 174.78C89.55 174.67 89.13 174.63 88.74 174.64C89.55 174.08 90.43 173.59 91.4 173.21C92.5 172.78 93.7 172.5 94.91 172.39C96.12 172.31 97.3 172.42 98.35 172.75C98.87 172.93 99.38 173.13 99.84 173.39C100.3 173.65 100.7 173.94 101.04 174.27C101.37 174.59 101.64 174.96 101.81 175.31C101.98 175.67 102.09 176.08 102.1 176.46C102.11 176.84 102.05 177.21 101.9 177.51C101.77 177.81 101.55 178.07 101.27 178.26C100.71 178.66 100.02 178.74 99.52 178.53C99.27 178.43 99.05 178.24 98.88 178.03C98.71 177.82 98.6 177.58 98.53 177.36C98.4 176.91 98.44 176.51 98.53 176.26C98.55 176.2 98.58 176.14 98.59 176.09C98.61 176.04 98.64 176.01 98.65 175.98C98.69 175.92 98.7 175.88 98.7 175.88C98.7 175.88 98.67 175.9 98.62 175.95C98.59 175.97 98.56 176 98.52 176.04C98.48 176.08 98.44 176.13 98.4 176.19C98.22 176.42 98.01 176.83 98 177.43C98 177.73 98.05 178.06 98.18 178.41C98.32 178.76 98.55 179.13 98.93 179.43C99.68 180.04 100.89 180.22 102.02 179.77C102.58 179.55 103.14 179.17 103.57 178.6C104 178.06 104.27 177.38 104.39 176.66C104.51 175.94 104.46 175.19 104.26 174.45C104.14 174.03 103.97 173.64 103.77 173.26C103.93 173.36 104.09 173.47 104.25 173.59L104.26 173.6C104.34 173.71 104.42 173.84 104.51 173.98C104.73 174.35 105 174.8 105.24 175.35C105.49 175.89 105.71 176.52 105.88 177.23C106.22 178.63 106.32 180.35 105.87 182.05C105.65 182.92 105.26 183.88 104.93 185.05C104.77 185.63 104.62 186.28 104.55 186.99C104.48 187.7 104.51 188.48 104.69 189.26C105.06 190.8 105.95 192.12 107.12 193.01C107.7 193.46 108.35 193.8 109.04 194.02C109.72 194.24 110.42 194.32 111.11 194.29C111.8 194.25 112.48 194.08 113.09 193.78C113.4 193.62 113.67 193.45 113.94 193.22C114.21 193 114.42 192.75 114.61 192.49C115.34 191.45 115.51 190.24 115.22 189.22C115.07 188.71 114.81 188.27 114.46 187.93C114.11 187.6 113.71 187.41 113.34 187.31C112.6 187.12 111.96 187.24 111.51 187.45C111.06 187.66 110.8 187.96 110.68 188.17C110.61 188.27 110.59 188.36 110.56 188.41C110.54 188.47 110.53 188.49 110.53 188.49C110.53 188.49 110.55 188.47 110.6 188.43C110.65 188.39 110.7 188.32 110.8 188.26C110.98 188.12 111.27 187.98 111.67 187.95C111.86 187.93 112.08 187.96 112.3 188C112.52 188.06 112.75 188.15 112.95 188.29C113.15 188.42 113.33 188.61 113.43 188.81C113.53 189 113.59 189.27 113.58 189.52C113.57 189.78 113.51 190.05 113.39 190.31C113.26 190.57 113.08 190.82 112.86 191C112.45 191.34 111.83 191.51 111.15 191.43C110.81 191.39 110.45 191.29 110.12 191.13C109.8 190.97 109.48 190.76 109.2 190.5C108.63 189.98 108.19 189.24 108 188.46C107.91 188.08 107.88 187.68 107.9 187.23C107.92 186.78 108 186.3 108.1 185.8C108.3 184.79 108.59 183.69 108.71 182.52C108.83 181.33 108.72 180.21 108.49 179.21C108.31 178.44 108.05 177.74 107.75 177.11C107.84 177.2 107.92 177.29 108.01 177.38C108.78 178.18 109.7 178.98 110.82 179.53C111.39 179.79 111.97 180 112.6 180.1C113.21 180.2 113.82 180.2 114.39 180.13C115.53 179.98 116.54 179.54 117.32 178.94C117.71 178.64 118.06 178.3 118.34 177.95C118.62 177.59 118.84 177.22 119.01 176.86C119.35 176.13 119.48 175.43 119.51 174.83C119.34 174.22 119.26 173.71 119.16 173.32Z" fill="#FFB546"/>
<path d="M113.06 177.11C112.76 177.01 112.45 176.86 112.14 176.68C111.53 176.3 110.91 175.74 110.24 175.04C109.57 174.35 108.88 173.57 108.08 172.85C107.88 172.67 107.67 172.49 107.46 172.32C107.24 172.15 107.02 171.99 106.8 171.83C106.74 171.79 106.68 171.75 106.62 171.71C108.12 173.95 109.18 176.57 111.58 177.88C115.53 180.03 119.38 176.6 118.79 172.35C118.79 172.34 118.79 172.34 118.79 172.33C118.73 172.22 118.7 172.16 118.7 172.16C118.7 172.16 118.7 172.27 118.71 172.47C118.71 172.67 118.7 172.97 118.64 173.34C118.53 174.06 118.19 175.1 117.39 175.95C117 176.38 116.51 176.73 115.93 176.96C115.35 177.2 114.69 177.32 114.03 177.28C113.69 177.27 113.37 177.21 113.06 177.11Z" fill="#FFE046"/>
<path d="M52.9799 190.49C52.6999 190.76 52.3799 190.97 52.0599 191.12C51.7299 191.28 51.3799 191.38 51.0299 191.42C50.3399 191.5 49.7299 191.34 49.3199 190.99C49.0999 190.8 48.9199 190.56 48.7899 190.3C48.6699 190.04 48.5999 189.76 48.5999 189.51C48.5899 189.26 48.6499 188.99 48.7499 188.8C48.8499 188.6 49.0299 188.42 49.2299 188.28C49.4299 188.14 49.6599 188.05 49.8799 187.99C50.0999 187.94 50.3199 187.92 50.5099 187.94C50.8999 187.96 51.1999 188.11 51.3799 188.25C51.4799 188.31 51.5299 188.38 51.5799 188.42C51.6199 188.46 51.6499 188.48 51.6499 188.48C51.6499 188.48 51.6399 188.45 51.6199 188.4C51.5899 188.35 51.5699 188.25 51.4999 188.16C51.3799 187.95 51.1299 187.65 50.6799 187.45C49.4699 187.41 48.1499 187.99 47.5699 189.08C46.7999 190.54 47.9499 191.9 49.2099 192.6C50.9699 193.57 53.3399 193.07 54.4899 191.4C56.8099 188 53.9599 184.14 53.5099 180.42C53.4299 181.09 53.4199 181.8 53.4999 182.53C53.6199 183.7 53.9099 184.8 54.1099 185.81C54.2099 186.31 54.2799 186.8 54.3099 187.24C54.3299 187.69 54.2999 188.09 54.2099 188.47C53.9899 189.23 53.5599 189.97 52.9799 190.49Z" fill="#FFE046"/>
<path d="M98.79 179.42C99.54 180.03 100.75 180.21 101.88 179.76C101.9 179.75 101.92 179.74 101.93 179.73C102.71 179.01 103.12 177.86 102.99 176.67C102.78 174.8 101.38 173.87 99.78 173.41C100.21 173.66 100.59 173.94 100.9 174.24C101.23 174.56 101.5 174.93 101.67 175.28C101.84 175.64 101.95 176.05 101.96 176.43C101.97 176.81 101.91 177.18 101.76 177.48C101.63 177.78 101.41 178.04 101.13 178.23C100.57 178.63 99.88 178.71 99.38 178.5C99.13 178.4 98.91 178.21 98.74 178C98.57 177.79 98.46 177.55 98.39 177.33C98.26 176.88 98.3 176.48 98.39 176.23C98.41 176.17 98.44 176.11 98.45 176.06C98.47 176.01 98.5 175.98 98.51 175.95C98.54 175.89 98.56 175.85 98.56 175.85C98.56 175.85 98.53 175.87 98.48 175.92C98.45 175.94 98.42 175.97 98.38 176.01C98.34 176.05 98.3 176.1 98.26 176.16C98.08 176.39 97.87 176.8 97.86 177.4C97.86 177.7 97.91 178.03 98.04 178.38C98.18 178.75 98.41 179.12 98.79 179.42Z" fill="#FFE046"/>
<path d="M91.23 179.07C91.46 179.68 91.65 180.36 91.73 181.01C91.81 181.66 91.78 182.3 91.62 182.84C91.45 183.4 91.16 183.87 90.83 184.17C90.53 184.46 90.06 184.64 89.65 184.66C89.44 184.67 89.25 184.65 89.08 184.59C88.93 184.54 88.76 184.44 88.61 184.31C88.32 184.03 88.13 183.63 88.12 183.27C88.12 183.18 88.12 183.09 88.14 183C88.15 182.96 88.16 182.92 88.17 182.88C88.18 182.84 88.2 182.8 88.21 182.76C88.28 182.6 88.39 182.44 88.53 182.32C88.8 182.06 89.13 181.91 89.42 181.85C89.44 181.85 89.45 181.85 89.47 181.84C87.46 180.98 86.6 184.13 87.89 185.39C89.29 186.75 91.87 186.1 92.78 184.52C94.26 181.96 92.75 179.29 90.58 177.78C90.83 178.15 91.05 178.59 91.23 179.07Z" fill="#FFE046"/>
<path d="M70.5399 179.75C69.6099 181.13 69.1099 182.75 69.4799 184.36C70.3099 188.01 77.6399 184.85 74.1699 181.45C74.1099 181.42 74.0499 181.4 73.9899 181.38C73.4299 181.18 72.9199 181.22 72.5499 181.32C72.1799 181.43 71.9399 181.6 71.7999 181.73C71.7299 181.79 71.6899 181.85 71.6599 181.89C71.6299 181.93 71.6199 181.94 71.6199 181.94C71.6199 181.94 71.6399 181.93 71.6899 181.92C71.7399 181.91 71.7899 181.88 71.8799 181.86C72.0499 181.82 72.2999 181.79 72.5899 181.85C72.8799 181.91 73.2099 182.06 73.4799 182.32C73.6099 182.45 73.7299 182.6 73.7999 182.76C73.8099 182.8 73.8299 182.84 73.8399 182.88C73.8499 182.92 73.8599 182.96 73.8699 183C73.8799 183.09 73.8899 183.18 73.8899 183.27C73.8799 183.63 73.6899 184.03 73.3999 184.31C73.2499 184.45 73.0799 184.55 72.9299 184.59C72.7499 184.64 72.5599 184.67 72.3599 184.66C71.9499 184.64 71.4799 184.46 71.1799 184.17C70.8399 183.87 70.5499 183.4 70.3899 182.84C70.2299 182.3 70.1999 181.66 70.2799 181.01C70.3199 180.6 70.4199 180.17 70.5399 179.75Z" fill="#FFE046"/>
<path d="M61.0999 174.25C61.4299 173.93 61.8399 173.63 62.2999 173.37C62.6799 173.16 63.0899 172.99 63.5099 172.84C61.9099 173.03 60.4899 173.81 59.9499 175.5C59.1299 178.03 60.3599 180.01 63.0499 179.4C63.1199 179.38 63.1899 179.38 63.2599 179.37C63.6099 179.08 63.8299 178.73 63.9599 178.4C64.0999 178.05 64.1499 177.72 64.1399 177.42C64.1299 176.82 63.9199 176.41 63.7399 176.18C63.6899 176.12 63.6499 176.08 63.6199 176.03C63.5799 175.99 63.5499 175.96 63.5199 175.94C63.4699 175.89 63.4399 175.87 63.4399 175.87C63.4399 175.87 63.4599 175.9 63.4899 175.97C63.5099 176 63.5299 176.04 63.5499 176.08C63.5699 176.13 63.5899 176.18 63.6099 176.25C63.6999 176.5 63.7499 176.9 63.6099 177.35C63.5399 177.58 63.4299 177.81 63.2599 178.02C63.0999 178.23 62.8799 178.42 62.6199 178.52C62.1199 178.73 61.4199 178.65 60.8699 178.25C60.5899 178.05 60.3699 177.79 60.2399 177.5C60.0899 177.19 60.0299 176.83 60.0399 176.45C60.0499 176.07 60.1499 175.66 60.3299 175.3C60.4999 174.93 60.7699 174.57 61.0999 174.25Z" fill="#FFE046"/>
<path d="M112.68 191C112.27 191.34 111.65 191.51 110.97 191.43C110.63 191.39 110.27 191.29 109.94 191.13C109.62 190.97 109.3 190.76 109.02 190.5C108.45 189.98 108.01 189.24 107.82 188.46C107.73 188.08 107.7 187.68 107.72 187.23C107.74 186.78 107.82 186.3 107.92 185.8C108.12 184.79 108.41 183.69 108.53 182.52C108.55 182.35 108.56 182.18 108.57 182.01C108.47 182.55 108.35 183.08 108.22 183.6C107.63 186.06 105.99 190.46 108.69 192.24C110.23 193.26 112.52 192.64 113.68 191.31C114.38 190.5 114.76 189.25 114.34 188.21C114.26 188.02 114.16 187.85 114.04 187.7C113.76 187.5 113.47 187.38 113.19 187.3C112.45 187.11 111.81 187.23 111.36 187.44C110.91 187.65 110.65 187.95 110.53 188.16C110.46 188.26 110.44 188.35 110.41 188.4C110.39 188.46 110.38 188.48 110.38 188.48C110.38 188.48 110.4 188.46 110.45 188.42C110.5 188.38 110.55 188.31 110.65 188.25C110.83 188.11 111.12 187.97 111.52 187.94C111.71 187.92 111.93 187.95 112.15 187.99C112.37 188.05 112.6 188.14 112.8 188.28C113 188.41 113.18 188.6 113.28 188.8C113.38 188.99 113.44 189.26 113.43 189.51C113.42 189.77 113.36 190.04 113.24 190.3C113.08 190.57 112.9 190.81 112.68 191Z" fill="#FFE046"/>
<path d="M45.59 177.94C47.49 179.26 50.12 178.81 51.83 177.37C53.38 176.06 54.2 174.1 55.35 172.47C55.76 171.89 56.18 171.42 56.64 171.02C56.62 171.03 56.6 171.04 56.58 171.05C56.35 171.17 56.12 171.28 55.89 171.41C55.66 171.55 55.43 171.68 55.21 171.83C54.99 171.99 54.76 172.15 54.55 172.32C54.34 172.49 54.13 172.67 53.93 172.85C53.13 173.57 52.44 174.35 51.77 175.04C51.1 175.74 50.48 176.3 49.87 176.68C49.56 176.86 49.25 177.02 48.95 177.11C48.64 177.21 48.32 177.27 47.99 177.29C47.33 177.33 46.66 177.21 46.09 176.97C45.51 176.73 45.02 176.38 44.63 175.96C43.83 175.11 43.5 174.07 43.38 173.35C43.33 173.05 43.32 172.8 43.31 172.61C43.28 174.65 43.77 176.67 45.59 177.94Z" fill="#FFE046"/>
<path d="M137.03 105.2C137.03 99.19 132.16 94.31 126.14 94.31H105.39C103.66 94.31 102.03 94.71 100.58 95.43C98.46 93.15 95.43 91.72 92.08 91.72H69.93C66.57 91.72 63.55 93.15 61.43 95.43C59.98 94.71 58.34 94.31 56.62 94.31H35.86C29.85 94.31 24.97 99.18 24.97 105.2V112.37C24.97 114.91 25.84 117.25 27.3 119.1C27.07 120.52 26.95 121.98 26.95 123.47V141.68C26.95 143.17 27.07 144.63 27.3 146.05C25.84 147.9 24.97 150.24 24.97 152.78V159.95C24.97 165.96 29.84 170.84 35.86 170.84H56.61C58.34 170.84 59.97 170.44 61.42 169.72C63.54 172 66.57 173.43 69.92 173.43H92.07C95.43 173.43 98.45 172 100.57 169.72C102.02 170.44 103.66 170.84 105.38 170.84H126.13C132.14 170.84 137.02 165.97 137.02 159.95V152.78C137.02 150.24 136.15 147.9 134.69 146.05C134.92 144.63 135.04 143.17 135.04 141.68V123.47C135.04 121.98 134.92 120.52 134.69 119.1C136.15 117.25 137.02 114.91 137.02 112.37V105.2H137.03Z" fill="#FFB546"/>
<path d="M69.9299 171.2C67.2899 171.2 64.8499 170.14 63.0499 168.2L61.9199 166.99L60.4399 167.72C59.2399 168.31 57.9499 168.61 56.6099 168.61H35.8599C31.0799 168.61 27.1899 164.72 27.1899 159.94V152.77C27.1899 150.81 27.8299 148.96 29.0499 147.41L29.6499 146.65L29.4999 145.69C29.2899 144.35 29.1799 143 29.1799 141.67V123.46C29.1799 122.12 29.2899 120.77 29.4999 119.44L29.6499 118.48L29.0499 117.72C27.8399 116.18 27.1899 114.33 27.1899 112.36V105.19C27.1899 100.41 31.0799 96.5199 35.8599 96.5199H56.6099C57.9499 96.5199 59.2399 96.8199 60.4399 97.4099L61.9199 98.1399L63.0499 96.9299C64.8499 94.9999 67.2899 93.9299 69.9299 93.9299H92.0799C94.7199 93.9299 97.1599 94.9899 98.9599 96.9299L100.09 98.1399L101.57 97.4099C102.77 96.8199 104.06 96.5199 105.4 96.5199H126.15C130.93 96.5199 134.82 100.41 134.82 105.19V112.36C134.82 114.32 134.18 116.17 132.96 117.72L132.36 118.48L132.51 119.44C132.72 120.78 132.83 122.13 132.83 123.46V141.67C132.83 143 132.72 144.36 132.51 145.69L132.36 146.65L132.96 147.41C134.17 148.95 134.82 150.8 134.82 152.77V159.94C134.82 164.72 130.93 168.61 126.15 168.61H105.4C104.06 168.61 102.77 168.31 101.57 167.72L100.09 166.99L98.9599 168.2C97.1599 170.13 94.7199 171.2 92.0799 171.2H69.9299Z" fill="#782614"/>
<path d="M43.0399 105.88H47.6699C50.3299 105.88 51.8699 107.52 51.8699 109.86C51.8699 112.2 50.2999 113.81 47.5999 113.81H45.5099V117.61H43.0299V105.88H43.0399ZM47.2099 111.82C48.6299 111.82 49.3199 111.02 49.3199 109.86C49.3199 108.69 48.6299 107.91 47.1899 107.91H45.5199V111.82H47.2099Z" fill="white"/>
<path d="M54.7599 115.75H55.3999C56.3499 115.75 56.6899 115.39 56.9299 114.7L57.0699 114.32L52.8099 105.88H55.3799L58.1399 111.65L60.4499 105.88H62.9799L58.9399 115.31C58.3499 116.62 57.5799 117.77 55.6499 117.77H54.7699V115.75H54.7599Z" fill="white"/>
<path d="M71.4399 109.99C71.2499 108.7 70.2699 107.92 68.9099 107.92C67.0899 107.92 65.8999 109.31 65.8999 111.75C65.8999 114.26 67.1099 115.58 68.8899 115.58C70.2099 115.58 71.1999 114.86 71.4299 113.6L73.9399 113.61C73.6699 115.77 71.8499 117.77 68.8499 117.77C65.7099 117.77 63.3899 115.57 63.3899 111.74C63.3899 107.9 65.7599 105.71 68.8499 105.71C71.5699 105.71 73.6199 107.27 73.9399 109.98H71.4399V109.99Z" fill="white"/>
<path d="M83.5699 109.99C83.3799 108.7 82.3999 107.92 81.0399 107.92C79.2199 107.92 78.0299 109.31 78.0299 111.75C78.0299 114.26 79.2399 115.58 81.0199 115.58C82.3399 115.58 83.3299 114.86 83.5599 113.6L86.0699 113.61C85.7999 115.77 83.9799 117.77 80.9799 117.77C77.8399 117.77 75.5199 115.57 75.5199 111.74C75.5199 107.9 77.8899 105.71 80.9799 105.71C83.6999 105.71 85.7499 107.27 86.0699 109.98H83.5699V109.99Z" fill="white"/>
<path d="M91.18 112.61H90.33V117.61H87.85V105.88H90.33V110.57H90.83L94.73 105.88H97.82L93.24 111.32L98.03 117.61H94.95L91.18 112.61Z" fill="white"/>
<path d="M101.74 105.88V113.26H101.84L106.91 105.88H109.08V117.61H106.6V110.23H106.51L101.41 117.61H99.26V105.88H101.74Z" fill="white"/>
<path d="M111.12 105.88H119.03V107.93H113.61V110.73H118.63V112.78H113.61V115.58H119.06V117.63H111.13V105.88H111.12Z" fill="white"/>
<path d="M33.9399 125.23H36.4199V130.07H41.4599V125.23H43.9299V136.96H41.4599V132.11H36.4199V136.96H33.9399V125.23Z" fill="white"/>
<path d="M45.33 136.96L49.38 125.23H52.58L56.62 136.96H53.96L53.09 134.28H48.86L47.99 136.96H45.33ZM52.47 132.35L51.03 127.91H50.94L49.5 132.35H52.47Z" fill="white"/>
<path d="M58.0199 125.23H62.6499C65.3099 125.23 66.8499 126.87 66.8499 129.21C66.8499 131.55 65.2799 133.16 62.5799 133.16H60.4999V136.96H58.0199V125.23ZM62.1899 131.17C63.6099 131.17 64.2999 130.37 64.2999 129.21C64.2999 128.04 63.6099 127.26 62.1699 127.26H60.4999V131.17H62.1899Z" fill="white"/>
<path d="M73.7599 137.12C70.6299 137.12 68.2699 134.91 68.2699 131.09C68.2699 127.25 70.6399 125.06 73.7599 125.06C76.8699 125.06 79.2499 127.25 79.2499 131.09C79.2499 134.93 76.8699 137.12 73.7599 137.12ZM73.7599 127.26C71.9599 127.26 70.7799 128.61 70.7799 131.09C70.7799 133.57 71.9499 134.92 73.7599 134.92C75.5599 134.92 76.7399 133.57 76.7399 131.09C76.7399 128.61 75.5499 127.26 73.7599 127.26Z" fill="white"/>
<path d="M80.4399 134.98H81.2399C82.0499 134.4 82.7099 133.26 82.9099 130.19L83.2399 125.23H90.9999V134.99H92.2799V139.78H89.8999V136.96H82.8299V139.79H80.4499V134.98H80.4399ZM88.6199 134.98V127.27H85.4799L85.2999 130.19C85.1499 132.51 84.6999 134.02 84.1099 134.98H88.6199Z" fill="white"/>
<path d="M93.7799 125.23H96.2599V130.07H101.3V125.23H103.77V136.96H101.3V132.11H96.2599V136.96H93.7799V125.23Z" fill="white"/>
<path d="M110.24 129.57C113.02 129.57 114.76 131 114.75 133.22C114.76 135.44 113.02 136.97 110.24 136.97H105.86V125.24H108.33V129.58H110.24V129.57ZM108.33 134.97H110.24C111.57 134.97 112.3 134.16 112.3 133.19C112.31 132.26 111.58 131.52 110.24 131.52H108.33V134.97ZM118.19 136.96H115.71V125.23H118.19V136.96Z" fill="white"/>
<path d="M120.23 125.23H128.14V127.28H122.72V130.08H127.74V132.13H122.72V134.93H128.17V136.98H120.24V125.23H120.23Z" fill="white"/>
<path d="M62.88 156.31H60.43V146.59H55.69V156.31H53.24V144.58H62.89V156.31H62.88Z" fill="white"/>
<path d="M65.24 144.58H73.15V146.63H67.73V149.43H72.75V151.48H67.73V154.28H73.18V156.33H65.25V144.58H65.24Z" fill="white"/>
<path d="M82.9599 148.69C82.7699 147.4 81.7899 146.62 80.4299 146.62C78.6099 146.62 77.4199 148.01 77.4199 150.45C77.4199 152.96 78.6299 154.28 80.4099 154.28C81.7299 154.28 82.7199 153.56 82.9499 152.3L85.4599 152.31C85.1899 154.47 83.3699 156.47 80.3699 156.47C77.2299 156.47 74.9099 154.27 74.9099 150.44C74.9099 146.6 77.2799 144.41 80.3699 144.41C83.0899 144.41 85.1399 145.97 85.4599 148.68H82.9599V148.69Z" fill="white"/>
<path d="M87.25 144.58H89.73V149.42H94.77V144.58H97.24V156.31H94.77V151.46H89.73V156.31H87.25V144.58Z" fill="white"/>
<path d="M101.75 144.58V151.96H101.85L106.92 144.58H109.09V156.31H106.61V148.93H106.52L101.42 156.31H99.2699V144.58H101.75Z" fill="white"/>
<path d="M134.17 75.12C134.13 74.28 133.95 73.31 133.48 72.3C133.24 71.8 132.94 71.28 132.55 70.78C132.16 70.29 131.68 69.82 131.14 69.4C130.05 68.57 128.65 67.95 127.07 67.75C126.28 67.65 125.44 67.65 124.59 67.79C123.72 67.93 122.91 68.22 122.12 68.59C120.56 69.35 119.29 70.46 118.22 71.57C118.1 71.7 117.98 71.82 117.87 71.95C118.29 71.09 118.65 70.12 118.9 69.04C119.23 67.66 119.38 66.09 119.21 64.45C119.05 62.83 118.64 61.3 118.36 59.89C118.22 59.19 118.12 58.52 118.09 57.9C118.06 57.28 118.1 56.72 118.23 56.19C118.49 55.12 119.09 54.09 119.89 53.37C120.28 53 120.72 52.71 121.17 52.49C121.63 52.27 122.12 52.14 122.59 52.08C123.54 51.97 124.4 52.2 124.97 52.67C125.27 52.93 125.53 53.27 125.7 53.63C125.87 53.99 125.96 54.37 125.97 54.73C125.98 55.08 125.89 55.45 125.76 55.72C125.62 56 125.37 56.25 125.09 56.44C124.81 56.63 124.49 56.76 124.19 56.84C123.88 56.9 123.58 56.94 123.32 56.91C122.78 56.88 122.36 56.67 122.12 56.48C121.98 56.4 121.91 56.3 121.85 56.25C121.79 56.19 121.76 56.16 121.76 56.16C121.76 56.16 121.78 56.2 121.81 56.28C121.85 56.35 121.88 56.48 121.98 56.62C122.15 56.91 122.5 57.33 123.13 57.61C123.75 57.9 124.64 58.08 125.67 57.81C126.18 57.67 126.74 57.42 127.23 56.95C127.72 56.47 128.08 55.87 128.29 55.16C128.7 53.74 128.46 52.06 127.45 50.62C127.19 50.26 126.89 49.91 126.51 49.61C126.14 49.3 125.76 49.05 125.34 48.84C124.5 48.41 123.55 48.18 122.59 48.13C121.63 48.08 120.66 48.21 119.71 48.51C118.76 48.82 117.85 49.29 117.05 49.92C115.43 51.16 114.2 52.98 113.68 55.12C113.42 56.2 113.39 57.29 113.48 58.27C113.58 59.25 113.78 60.15 114.01 60.96C114.48 62.58 115.01 63.92 115.32 65.12C115.94 67.48 115.8 69.87 115.33 71.81C115.1 72.79 114.78 73.67 114.44 74.42C114.11 75.18 113.74 75.8 113.43 76.32C113.3 76.51 113.19 76.68 113.08 76.84C113.03 76.88 112.99 76.91 112.94 76.95C112.76 77.07 112.59 77.19 112.41 77.31C112.7 76.79 112.93 76.24 113.1 75.66C113.39 74.63 113.45 73.58 113.28 72.59C113.12 71.6 112.73 70.66 112.14 69.9C111.54 69.11 110.76 68.59 109.99 68.28C108.43 67.66 106.74 67.91 105.71 68.75C105.18 69.17 104.86 69.68 104.67 70.17C104.48 70.66 104.41 71.12 104.41 71.53C104.42 72.36 104.71 72.93 104.96 73.25C105.02 73.33 105.08 73.39 105.13 73.45C105.19 73.5 105.23 73.54 105.27 73.58C105.35 73.65 105.38 73.68 105.38 73.68C105.38 73.68 105.36 73.64 105.31 73.55C105.29 73.51 105.26 73.45 105.22 73.39C105.19 73.32 105.16 73.25 105.13 73.16C105.01 72.81 104.94 72.26 105.13 71.63C105.22 71.32 105.38 70.99 105.61 70.7C105.84 70.41 106.14 70.15 106.49 70.01C107.19 69.71 108.15 69.83 108.92 70.39C109.3 70.67 109.62 71.03 109.79 71.44C109.99 71.87 110.08 72.37 110.06 72.9C110.05 73.43 109.9 73.99 109.66 74.5C109.42 75 109.05 75.5 108.6 75.95C108.14 76.4 107.57 76.81 106.94 77.17C106.3 77.52 105.59 77.81 104.87 78.05C103.4 78.5 101.77 78.66 100.09 78.54C98.3999 78.39 96.7499 78 95.2199 77.4C93.88 76.86 92.6599 76.19 91.5299 75.41C92.0699 75.42 92.66 75.37 93.2999 75.21C94.2599 74.97 95.27 74.51 96.1899 73.8C97.1199 73.1 97.9699 72.18 98.6699 71.11C99.3699 70.03 99.9399 68.82 100.28 67.4C100.62 65.99 100.71 64.35 100.21 62.68C99.7299 61.05 98.7199 59.53 97.2699 58.55C95.7799 57.54 94.0299 57.24 92.4399 57.57C91.6499 57.73 90.8899 58.07 90.2599 58.54C89.6099 59.04 89.1399 59.64 88.8199 60.27C88.1999 61.53 88.1499 62.89 88.5899 63.99C88.6999 64.26 88.8299 64.52 88.9899 64.75C89.0799 64.86 89.1599 64.98 89.2499 65.08C89.3399 65.17 89.4399 65.27 89.5299 65.36C89.9099 65.7 90.3299 65.91 90.7199 66.05C91.4999 66.32 92.1999 66.27 92.7099 66.14C93.2299 65.99 93.5599 65.76 93.7499 65.57C93.8499 65.49 93.9099 65.4 93.9499 65.35C93.9899 65.3 94.0099 65.28 94.0099 65.28C94.0099 65.28 93.9799 65.29 93.9199 65.31C93.8599 65.33 93.7799 65.37 93.6499 65.39C93.4199 65.45 93.07 65.48 92.66 65.4C92.2599 65.32 91.7899 65.11 91.4199 64.74C91.2399 64.56 91.0799 64.35 90.9799 64.12C90.9599 64.06 90.9399 64.01 90.9199 63.95C90.9099 63.89 90.8999 63.84 90.8799 63.78C90.8599 63.66 90.8499 63.53 90.8599 63.41C90.8799 62.91 91.1299 62.36 91.5399 61.96C91.7399 61.77 91.9799 61.63 92.1899 61.57C92.4299 61.5 92.7 61.46 92.9799 61.48C93.5499 61.5 94.2 61.76 94.6199 62.16C95.09 62.58 95.4899 63.23 95.7199 64C95.95 64.75 95.9899 65.64 95.8799 66.54C95.7699 67.45 95.5099 68.4 95.1799 69.24C94.5299 70.93 93.5399 72.26 92.3999 73.04C91.8299 73.44 91.2199 73.7 90.6499 73.87C90.3399 73.96 90.0499 74.01 89.7699 74.05C87.8599 72.42 86.3299 70.58 85.1299 68.89C83.6599 66.83 82.61 65 81.91 63.72C81.56 63.08 81.2899 62.58 81.1099 62.23C81.0999 62.22 81.0999 62.21 81.0899 62.19C81.1499 61.97 81.25 61.62 81.3699 61.14C81.4599 60.78 81.5599 60.34 81.6699 59.84C81.8399 59.2 82.0299 58.47 82.2599 57.67C82.66 56.24 83.1899 54.6 83.9499 53.03C84.3399 52.25 84.7899 51.49 85.3199 50.79C85.8299 50.11 86.4299 49.5 87.0799 49.03C87.7299 48.56 88.3699 48.27 88.9699 48.16C89.5499 48.05 90.1799 48.11 90.8299 48.35C91.4599 48.59 92.0799 48.97 92.5699 49.44C93.0699 49.9 93.4599 50.46 93.7699 51.05C94.3799 52.22 94.63 53.41 94.7299 54.24C94.7899 54.66 94.8099 54.99 94.8199 55.22C94.8299 55.45 94.8399 55.57 94.8399 55.57C94.8399 55.57 94.8999 55.46 95.0199 55.26C95.1299 55.06 95.2899 54.75 95.4499 54.33C95.7799 53.5 96.1699 52.2 96.0199 50.44C95.9299 49.57 95.6999 48.58 95.1699 47.59C94.6499 46.61 93.8599 45.66 92.7599 44.91C92.2099 44.54 91.5799 44.22 90.8799 44C90.1799 43.78 89.3899 43.67 88.6199 43.7C87.0999 43.75 85.6299 44.33 84.4499 45.16C84.4299 44.84 84.41 44.51 84.3699 44.19C84.2899 43.43 84.1499 42.7 83.9599 42.02C83.7699 41.34 83.5099 40.71 83.2299 40.17C82.6499 39.07 81.9199 38.36 81.3799 37.98C81.3599 37.96 81.0799 37.78 80.9799 37.73C80.91 37.76 80.6099 37.97 80.5799 37.98C80.0399 38.35 79.31 39.07 78.7299 40.17C78.45 40.71 78.1899 41.34 77.9999 42.02C77.8099 42.7 77.6699 43.43 77.5899 44.19C77.5499 44.51 77.5299 44.83 77.5099 45.16C76.3299 44.33 74.8599 43.75 73.3399 43.7C72.5599 43.67 71.7699 43.78 71.0799 44C70.3799 44.22 69.7499 44.54 69.1999 44.91C68.0999 45.66 67.3099 46.61 66.7899 47.59C66.2599 48.58 66.02 49.57 65.9399 50.44C65.7899 52.2 66.1899 53.5 66.5099 54.33C66.6799 54.75 66.8299 55.06 66.9399 55.26C67.0599 55.46 67.1199 55.57 67.1199 55.57C67.1199 55.57 67.1299 55.45 67.1399 55.22C67.1499 54.99 67.18 54.66 67.2299 54.24C67.34 53.41 67.5799 52.22 68.1899 51.05C68.5 50.47 68.8999 49.9 69.3899 49.44C69.8799 48.97 70.4999 48.58 71.1299 48.35C71.7699 48.11 72.3999 48.05 72.9899 48.16C73.5899 48.27 74.2299 48.56 74.8799 49.03C75.5299 49.5 76.1399 50.11 76.6399 50.79C77.1699 51.49 77.6199 52.25 78.0099 53.03C78.7699 54.6 79.2999 56.24 79.6999 57.67C79.9299 58.47 80.1199 59.2 80.2899 59.84C80.3899 60.34 80.4999 60.78 80.5899 61.14C80.7099 61.62 80.8099 61.97 80.8699 62.19C80.86 62.2 80.8599 62.21 80.8499 62.23C80.6699 62.57 80.3999 63.08 80.0499 63.72C79.34 65 78.2999 66.83 76.8299 68.89C75.6199 70.58 74.09 72.41 72.1899 74.05C71.91 74.01 71.6199 73.96 71.3099 73.87C70.7399 73.7 70.1299 73.44 69.5599 73.04C68.4199 72.27 67.4299 70.93 66.7799 69.24C66.4599 68.4 66.1899 67.45 66.0799 66.54C65.9699 65.63 66.0099 64.75 66.2399 64C66.4699 63.22 66.8699 62.57 67.3399 62.16C67.7599 61.76 68.3999 61.5 68.9799 61.48C69.27 61.46 69.5299 61.5 69.7699 61.57C69.9799 61.64 70.2199 61.77 70.4199 61.96C70.8199 62.35 71.0799 62.91 71.0999 63.41C71.0999 63.53 71.0999 63.66 71.0799 63.78C71.07 63.84 71.0599 63.89 71.0399 63.95C71.0399 64 71.0199 64.05 70.9999 64.11C70.8999 64.34 70.7399 64.55 70.5599 64.73C70.1899 65.09 69.7199 65.3 69.3199 65.39C68.9199 65.47 68.5599 65.44 68.3299 65.38C68.2099 65.36 68.1299 65.32 68.0599 65.3C67.9999 65.28 67.9699 65.27 67.9699 65.27C67.9699 65.27 67.9899 65.3 68.0299 65.34C68.0699 65.39 68.13 65.47 68.2299 65.56C68.4199 65.74 68.7499 65.98 69.2699 66.13C69.7799 66.27 70.4799 66.32 71.2599 66.04C71.6499 65.9 72.0599 65.69 72.4499 65.35C72.5399 65.26 72.63 65.16 72.7299 65.07C72.82 64.97 72.8999 64.85 72.9899 64.74C73.1499 64.51 73.2799 64.26 73.3899 63.98C73.8199 62.88 73.77 61.51 73.16 60.26C72.8499 59.63 72.3799 59.03 71.7199 58.53C71.0899 58.06 70.3299 57.72 69.5399 57.56C67.9599 57.23 66.2099 57.53 64.7099 58.54C63.2499 59.53 62.2499 61.04 61.7699 62.67C61.2799 64.34 61.3699 65.98 61.6999 67.39C62.0499 68.81 62.6199 70.02 63.3099 71.1C64.0099 72.18 64.8599 73.1 65.7899 73.79C66.7199 74.49 67.7199 74.96 68.6799 75.2C69.3099 75.35 69.8999 75.41 70.4499 75.4C69.3199 76.18 68.1099 76.85 66.7599 77.39C65.2299 77.99 63.5699 78.38 61.8899 78.53C60.2099 78.64 58.5799 78.49 57.1099 78.04C56.3899 77.8 55.6799 77.51 55.0399 77.16C54.4099 76.8 53.8399 76.39 53.3799 75.94C52.9199 75.49 52.5499 74.99 52.3199 74.49C52.0799 73.98 51.9399 73.42 51.9199 72.89C51.8999 72.36 51.9899 71.85 52.1899 71.43C52.3699 71.02 52.6799 70.66 53.0599 70.38C53.8299 69.83 54.7999 69.71 55.4899 70C55.8399 70.14 56.1499 70.4 56.3699 70.69C56.5999 70.98 56.7599 71.31 56.8499 71.62C57.0399 72.25 56.9699 72.8 56.8499 73.15C56.8199 73.24 56.7899 73.31 56.7599 73.38C56.7299 73.44 56.6999 73.5 56.6699 73.54C56.6199 73.63 56.5999 73.67 56.5999 73.67C56.5999 73.67 56.6399 73.64 56.7099 73.57C56.7499 73.54 56.7999 73.49 56.8499 73.44C56.8999 73.38 56.9599 73.31 57.0199 73.24C57.2699 72.93 57.5599 72.35 57.5699 71.52C57.5799 71.11 57.4999 70.65 57.3099 70.16C57.1199 69.68 56.7999 69.16 56.2699 68.74C55.2299 67.89 53.5499 67.64 51.9899 68.27C51.2099 68.58 50.4299 69.1 49.8399 69.89C49.2499 70.64 48.8699 71.59 48.6999 72.58C48.5399 73.57 48.5999 74.62 48.8799 75.65C49.0399 76.23 49.2799 76.78 49.5699 77.3C49.3899 77.18 49.2099 77.07 49.0399 76.94C48.9899 76.9 48.9499 76.87 48.8999 76.83C48.7899 76.67 48.6799 76.5 48.5499 76.31C48.2399 75.8 47.8699 75.17 47.5399 74.41C47.1999 73.66 46.8799 72.78 46.6499 71.8C46.1799 69.85 46.0399 67.47 46.6599 65.11C46.9699 63.91 47.4999 62.57 47.9699 60.95C48.1999 60.14 48.4099 59.25 48.4999 58.26C48.5899 57.28 48.5599 56.19 48.2999 55.11C47.7799 52.97 46.5499 51.15 44.9299 49.91C44.1299 49.28 43.2199 48.81 42.2699 48.5C41.3199 48.2 40.3499 48.08 39.3899 48.12C38.4299 48.17 37.4899 48.4 36.6399 48.83C36.2199 49.05 35.8299 49.29 35.4699 49.6C35.0999 49.9 34.7999 50.26 34.5299 50.61C33.5199 52.06 33.2799 53.74 33.6899 55.15C33.8999 55.86 34.2599 56.46 34.7499 56.94C35.2399 57.4 35.7999 57.66 36.3099 57.8C37.3399 58.07 38.2299 57.89 38.8499 57.6C39.4799 57.31 39.8299 56.9 39.9999 56.61C40.0999 56.47 40.1299 56.34 40.1699 56.27C40.1999 56.19 40.2199 56.15 40.2199 56.15C40.2199 56.15 40.1899 56.18 40.1299 56.24C40.0599 56.29 39.9899 56.39 39.8599 56.47C39.6199 56.66 39.1999 56.86 38.6599 56.9C38.3899 56.93 38.0899 56.89 37.7899 56.83C37.4799 56.75 37.1699 56.62 36.8899 56.43C36.6099 56.24 36.3599 55.99 36.2199 55.71C36.0799 55.44 35.9899 55.07 36.0099 54.72C36.0199 54.36 36.1099 53.98 36.2799 53.62C36.4599 53.26 36.7099 52.92 37.0099 52.66C37.5799 52.18 38.4399 51.95 39.3899 52.07C39.8599 52.13 40.3599 52.27 40.8099 52.48C41.2599 52.7 41.6999 52.99 42.0899 53.36C42.8899 54.09 43.4899 55.11 43.7499 56.18C43.8699 56.71 43.9199 57.27 43.8899 57.89C43.8599 58.51 43.7599 59.18 43.6199 59.88C43.3499 61.28 42.9399 62.81 42.7699 64.44C42.5999 66.09 42.7499 67.65 43.0799 69.03C43.3299 70.11 43.6999 71.08 44.1099 71.94C43.9899 71.81 43.8799 71.69 43.7599 71.56C42.6899 70.45 41.4199 69.34 39.8599 68.58C39.0699 68.21 38.2599 67.93 37.3899 67.78C36.5399 67.64 35.6999 67.64 34.9099 67.74C33.3299 67.95 31.9299 68.56 30.8399 69.39C30.2899 69.81 29.8199 70.27 29.4299 70.77C29.0399 71.27 28.7399 71.78 28.4999 72.29C28.0299 73.3 27.8499 74.28 27.8099 75.11C27.7699 75.95 27.8799 76.65 28.0199 77.2C28.1599 77.75 28.3299 78.15 28.4599 78.41C28.5999 78.66 28.6699 78.8 28.6699 78.8C28.6699 78.8 28.6699 78.65 28.6599 78.37C28.6599 78.09 28.6699 77.68 28.7599 77.17C28.9199 76.17 29.3899 74.73 30.4899 73.55C31.0399 72.96 31.7099 72.47 32.5199 72.14C33.3199 71.81 34.2499 71.64 35.1599 71.7C35.6199 71.73 36.0699 71.81 36.4999 71.95C36.9099 72.08 37.3499 72.3 37.7699 72.55C38.6199 73.08 39.4799 73.86 40.4099 74.83C41.3399 75.79 42.2999 76.87 43.4099 77.87C43.6799 78.12 43.9799 78.37 44.2699 78.6C44.5699 78.84 44.8899 79.06 45.1899 79.28C45.4999 79.49 45.8299 79.68 46.1399 79.87C46.4599 80.05 46.7799 80.21 47.0999 80.37C49.1899 81.35 51.2499 81.75 53.0399 81.8C52.2999 82.01 51.5099 82.17 50.6799 82.22C49.7399 82.28 48.6999 82.21 47.5599 82.07C46.4099 81.93 45.1599 81.71 43.7299 81.54C42.3099 81.38 40.7199 81.28 38.9799 81.53C38.0999 81.66 37.2499 81.87 36.3699 82.22C35.5099 82.57 34.7099 83.02 33.9899 83.59C33.2699 84.16 32.6299 84.82 32.1199 85.6C31.6099 86.38 31.2399 87.25 31.0599 88.15C30.8699 89.12 30.9299 90.05 31.1499 90.87C31.3699 91.7 31.7299 92.43 32.2099 93.06C32.6899 93.69 33.2799 94.21 33.9499 94.57C34.2799 94.75 34.6299 94.89 34.9899 94.97C35.1599 95.02 35.3399 95.05 35.5199 95.07C35.6099 95.08 35.6999 95.09 35.7899 95.1H36.0599C36.7799 95.09 37.4399 94.88 37.9199 94.58C38.4099 94.28 38.7899 93.92 39.0799 93.54C39.6499 92.79 39.8599 92 39.8699 91.38C39.8799 90.75 39.6699 90.31 39.5199 90.06C39.3399 89.81 39.2399 89.71 39.2399 89.71C39.2399 89.71 39.2699 89.87 39.3099 90.13C39.3199 90.41 39.2999 90.8 39.0899 91.22C38.8799 91.63 38.4999 92.07 37.9699 92.36C37.7099 92.51 37.4099 92.61 37.1199 92.65C36.8199 92.7 36.5599 92.64 36.3299 92.54C35.8499 92.33 35.4299 91.86 35.2099 91.21C34.9799 90.57 34.9999 89.76 35.2699 89.26C35.5699 88.63 36.1099 88.04 36.8899 87.56C37.6799 87.07 38.5799 86.77 39.7299 86.6C42.0099 86.26 44.7299 86.56 47.4699 86.38C48.6099 86.3 49.7499 86.12 50.8199 85.81C50.7799 85.87 50.7499 85.92 50.7099 85.98C50.5499 86.26 50.3899 86.54 50.2599 86.84C49.9899 87.43 49.7799 88.04 49.6299 88.67C49.3299 89.93 49.2799 91.26 49.4799 92.56C49.6799 93.87 50.1299 95.13 50.8199 96.25C51.4999 97.38 52.4399 98.33 53.4599 99.04C55.5099 100.47 57.9199 101.03 60.1599 100.8C61.2799 100.69 62.3599 100.37 63.2999 99.88C64.2399 99.39 65.0799 98.75 65.7399 97.98C66.4099 97.21 66.8799 96.32 67.1299 95.37C67.2099 95.04 67.2599 94.71 67.2899 94.39C67.7799 94.95 68.4099 95.47 69.2099 95.92C69.7599 96.22 70.3899 96.48 71.0899 96.65C71.7899 96.83 72.5799 96.92 73.3499 96.89C74.8699 96.85 76.3399 96.38 77.5199 95.71C77.5399 95.97 77.5599 96.23 77.5999 96.49C77.6799 97.1 77.82 97.69 78.0099 98.24C78.1999 98.79 78.4599 99.29 78.7399 99.73C79.3199 100.61 80.0499 101.19 80.5899 101.49C80.6099 101.5 80.8899 101.65 80.9899 101.69C81.0599 101.66 81.3599 101.5 81.3899 101.49C81.9299 101.19 82.6599 100.61 83.2399 99.73C83.5199 99.29 83.7799 98.79 83.9699 98.24C84.1599 97.69 84.2999 97.1 84.3799 96.49C84.4199 96.23 84.4399 95.97 84.4599 95.71C85.6399 96.38 87.1099 96.84 88.6299 96.89C89.4099 96.91 90.1999 96.82 90.8899 96.65C91.5899 96.47 92.2199 96.22 92.7699 95.92C93.5699 95.48 94.2 94.95 94.6899 94.39C94.7099 94.71 94.7699 95.04 94.8499 95.37C95.0999 96.32 95.5699 97.2 96.2399 97.98C96.8999 98.75 97.7299 99.39 98.6799 99.88C99.6199 100.37 100.7 100.69 101.82 100.8C104.06 101.03 106.47 100.47 108.52 99.04C109.53 98.32 110.48 97.38 111.16 96.25C111.85 95.13 112.3 93.87 112.5 92.56C112.7 91.25 112.64 89.93 112.35 88.67C112.2 88.04 111.99 87.42 111.72 86.84C111.59 86.55 111.43 86.26 111.27 85.98C111.23 85.92 111.2 85.87 111.16 85.81C112.23 86.12 113.37 86.3 114.51 86.38C117.25 86.56 119.98 86.26 122.25 86.6C123.4 86.77 124.3 87.07 125.09 87.56C125.88 88.04 126.41 88.63 126.71 89.26C126.97 89.76 126.99 90.57 126.77 91.21C126.55 91.86 126.13 92.33 125.65 92.54C125.42 92.64 125.16 92.7 124.86 92.65C124.57 92.61 124.27 92.51 124.01 92.36C123.48 92.07 123.1 91.63 122.89 91.22C122.68 90.8 122.65 90.41 122.67 90.13C122.71 89.86 122.74 89.71 122.74 89.71C122.74 89.71 122.64 89.82 122.46 90.06C122.31 90.31 122.1 90.75 122.11 91.38C122.12 92 122.33 92.79 122.9 93.54C123.18 93.92 123.56 94.27 124.06 94.58C124.55 94.88 125.21 95.1 125.92 95.1H126.19C126.28 95.09 126.37 95.08 126.46 95.07C126.64 95.05 126.81 95.02 126.99 94.97C127.34 94.88 127.69 94.75 128.03 94.57C128.7 94.21 129.3 93.69 129.77 93.06C130.25 92.43 130.61 91.69 130.83 90.87C131.04 90.05 131.11 89.12 130.92 88.15C130.74 87.25 130.37 86.38 129.86 85.6C129.35 84.82 128.71 84.15 127.99 83.59C127.27 83.02 126.47 82.57 125.61 82.22C124.73 81.87 123.88 81.66 123 81.53C121.26 81.28 119.67 81.38 118.25 81.54C116.82 81.7 115.57 81.92 114.42 82.07C113.28 82.21 112.24 82.28 111.3 82.22C110.47 82.18 109.68 82.02 108.94 81.8C110.73 81.75 112.79 81.35 114.88 80.37C115.2 80.21 115.52 80.05 115.84 79.87C116.15 79.68 116.47 79.49 116.79 79.28C117.09 79.06 117.41 78.84 117.71 78.6C118 78.36 118.3 78.12 118.57 77.87C119.68 76.87 120.64 75.79 121.57 74.83C122.5 73.86 123.36 73.08 124.21 72.55C124.63 72.3 125.07 72.08 125.48 71.95C125.91 71.81 126.36 71.73 126.82 71.7C127.73 71.64 128.66 71.81 129.46 72.14C130.27 72.47 130.94 72.96 131.49 73.55C132.59 74.74 133.06 76.17 133.22 77.17C133.31 77.68 133.31 78.09 133.32 78.37C133.31 78.65 133.31 78.8 133.31 78.8C133.31 78.8 133.38 78.67 133.52 78.41C133.64 78.15 133.82 77.75 133.96 77.2C134.1 76.66 134.21 75.96 134.17 75.12ZM73.0199 93.31C72.4399 93.4 71.81 93.35 71.16 93.16C70.5299 92.97 69.9099 92.66 69.4199 92.28C68.9199 91.91 68.5299 91.46 68.2199 90.99C67.6099 90.05 67.3599 89.09 67.2599 88.42C67.1999 88.08 67.1799 87.81 67.1699 87.63C67.1599 87.45 67.1499 87.35 67.1499 87.35C67.1499 87.35 67.0899 87.44 66.9699 87.6C66.8599 87.76 66.6999 88.01 66.5399 88.35C66.3099 88.82 66.0499 89.48 65.9699 90.31C65.5399 89.83 65.0299 89.46 64.4899 89.25C63.2399 88.76 62.1299 88.98 61.3699 89.3C60.5999 89.64 60.1599 90.14 59.9399 90.49C59.8899 90.58 59.8399 90.66 59.7999 90.73C59.7699 90.8 59.7399 90.86 59.7199 90.91C59.6799 91.01 59.6599 91.05 59.6599 91.05C59.6599 91.05 59.6999 91.01 59.7599 90.93C59.7899 90.89 59.8399 90.84 59.8799 90.79C59.9399 90.74 59.9999 90.68 60.0699 90.62C60.3699 90.37 60.8699 90.08 61.5499 90C62.2199 89.91 63.0999 90.04 63.7699 90.55C64.4299 91.04 64.8699 91.97 64.8499 93C64.8399 93.51 64.7199 94.04 64.4899 94.5C64.2599 94.95 63.8999 95.39 63.4499 95.75C62.5399 96.48 61.2499 96.92 59.9399 96.87C58.6199 96.84 57.2099 96.34 56.1199 95.46C55.5799 95.01 55.1199 94.5 54.7999 93.9C54.4599 93.3 54.2199 92.61 54.1099 91.88C53.9999 91.15 54.0199 90.41 54.1499 89.71C54.2199 89.36 54.3199 89.03 54.4499 88.71C54.5099 88.55 54.5899 88.4 54.6599 88.25C54.7499 88.1 54.8199 87.94 54.9299 87.79C55.6799 86.58 56.9099 85.55 58.2899 84.67C59.0899 84.16 59.9299 83.69 60.7699 83.24C61.2599 83.25 61.7599 83.24 62.2499 83.2C64.5199 83.01 66.6599 82.4 68.5599 81.5C70.4499 80.6 72.1399 79.39 73.4899 78.08C73.7399 77.84 73.9699 77.61 74.1999 77.36C73.3299 79.07 72.5999 80.9 72.2699 82.7C71.8699 84.79 71.9899 86.82 72.5099 88.37C73.0199 89.92 73.84 91 74.5099 91.56C74.84 91.85 75.1299 92.02 75.3299 92.12C75.41 92.15 75.4599 92.18 75.5099 92.2C75.3099 92.35 75.1099 92.48 74.8899 92.61C74.2499 92.99 73.6099 93.22 73.0199 93.31ZM85.3299 91.19C84.7999 90.62 84.3499 90.02 83.9599 89.39C83.1999 88.13 82.6699 86.81 82.2699 85.66C82.0399 85.01 81.8499 84.43 81.6799 83.92C81.5799 83.52 81.4699 83.16 81.3799 82.87C81.1699 82.19 81.0199 81.81 81.0199 81.81C81.0199 81.81 81.0099 81.84 80.9899 81.89C80.9699 81.84 80.9599 81.81 80.9599 81.81C80.9599 81.81 80.8099 82.18 80.5999 82.87C80.5099 83.16 80.41 83.52 80.2999 83.92C80.13 84.43 79.9399 85.02 79.7099 85.66C79.3099 86.81 78.7799 88.13 78.0199 89.39C77.6299 90.02 77.1799 90.63 76.6499 91.19C76.3299 91.54 75.9599 91.86 75.5699 92.15C75.5399 92.1 75.4999 92.05 75.4599 91.97C75.3499 91.78 75.1999 91.51 75.0699 91.14C74.7899 90.42 74.5999 89.32 74.6799 88.02C74.7599 86.73 75.1499 85.27 75.8199 83.71C76.4899 82.14 77.4399 80.51 78.4899 78.6C79.0099 77.64 79.5099 76.65 79.9299 75.64C80.3599 74.62 80.6899 73.6 80.9399 72.61C80.9499 72.59 80.9499 72.57 80.9599 72.54C80.9699 72.56 80.97 72.58 80.9799 72.61C81.2299 73.59 81.5599 74.61 81.9899 75.64C82.4199 76.66 82.9199 77.65 83.4299 78.6C84.4799 80.51 85.4299 82.14 86.0999 83.71C86.7699 85.27 87.1599 86.72 87.2399 88.02C87.3199 89.32 87.1299 90.41 86.8499 91.14C86.7199 91.51 86.5699 91.78 86.4599 91.97C86.4199 92.03 86.3899 92.08 86.3699 92.12C86 91.84 85.6499 91.53 85.3299 91.19ZM107.88 91.87C107.77 92.6 107.53 93.29 107.19 93.89C106.86 94.49 106.4 95 105.87 95.45C104.79 96.33 103.38 96.83 102.05 96.86C100.73 96.91 99.4399 96.46 98.5399 95.74C98.09 95.38 97.7299 94.94 97.4999 94.49C97.2699 94.03 97.1499 93.5 97.1399 92.99C97.1199 91.96 97.5599 91.03 98.2199 90.54C98.8899 90.03 99.77 89.9 100.44 89.99C101.13 90.07 101.63 90.36 101.92 90.61C101.99 90.67 102.06 90.73 102.11 90.78C102.16 90.84 102.2 90.88 102.23 90.92C102.3 91 102.33 91.04 102.33 91.04C102.33 91.04 102.31 90.99 102.27 90.9C102.25 90.85 102.22 90.79 102.19 90.72C102.15 90.65 102.1 90.57 102.05 90.48C101.83 90.13 101.4 89.63 100.62 89.29C99.8599 88.96 98.7499 88.75 97.4999 89.24C96.9599 89.45 96.4499 89.82 96.0199 90.3C95.9299 89.46 95.6799 88.81 95.4499 88.34C95.2799 88 95.1299 87.76 95.0199 87.59C94.8999 87.43 94.8399 87.34 94.8399 87.34C94.8399 87.34 94.8299 87.44 94.8199 87.62C94.8099 87.8 94.78 88.07 94.7299 88.41C94.6199 89.08 94.3799 90.04 93.7699 90.98C93.4599 91.45 93.0599 91.9 92.5699 92.27C92.0799 92.65 91.4599 92.96 90.8299 93.15C90.1899 93.34 89.5599 93.39 88.9699 93.3C88.3699 93.21 87.7299 92.98 87.0799 92.6C86.8599 92.47 86.6499 92.33 86.4399 92.17C86.4799 92.15 86.5299 92.13 86.5799 92.1C86.7799 92 87.0699 91.83 87.3999 91.54C88.0699 90.97 88.8899 89.9 89.3999 88.35C89.9199 86.8 90.0499 84.77 89.6399 82.68C89.2999 80.83 88.5399 78.94 87.6399 77.2C87.9099 77.49 88.1899 77.78 88.4799 78.06C89.84 79.37 91.52 80.58 93.41 81.48C95.31 82.38 97.45 82.99 99.7199 83.18C100.21 83.22 100.71 83.22 101.2 83.22C102.04 83.67 102.88 84.14 103.68 84.65C105.05 85.53 106.29 86.56 107.04 87.77C107.14 87.92 107.21 88.08 107.31 88.23C107.38 88.39 107.46 88.53 107.52 88.69C107.65 89.01 107.74 89.34 107.82 89.69C107.97 90.39 107.99 91.14 107.88 91.87Z" fill="#FFB546"/>
<path d="M66.96 55.26C66.97 55.27 66.97 55.28 66.98 55.29C66.3 51.9 67.31 48.06 70.68 46.51C72.21 45.8 73.9 45.85 75.49 46.35C77.62 47.02 79.31 48.7 81.61 47.8C84.58 46.64 87.85 44.68 91.11 46.07C94.34 47.45 95.71 51.7 95.18 54.97C95.27 54.8 95.36 54.59 95.47 54.33C95.8 53.5 96.19 52.2 96.04 50.44C95.95 49.57 95.72 48.58 95.19 47.59C94.67 46.61 93.88 45.66 92.78 44.91C92.23 44.54 91.6 44.22 90.9 44C90.2 43.78 89.41 43.67 88.64 43.7C87.12 43.75 85.65 44.33 84.47 45.16C84.45 44.84 84.43 44.51 84.39 44.19C84.31 43.43 84.17 42.7 83.98 42.02C83.79 41.34 83.53 40.71 83.25 40.17C82.67 39.07 81.94 38.36 81.4 37.98C81.38 37.96 81.1 37.78 81 37.73C80.93 37.76 80.63 37.97 80.6 37.98C80.06 38.35 79.33 39.07 78.75 40.17C78.47 40.71 78.21 41.34 78.02 42.02C77.83 42.7 77.69 43.43 77.61 44.19C77.57 44.51 77.55 44.83 77.53 45.16C76.35 44.33 74.88 43.75 73.36 43.7C72.58 43.67 71.79 43.78 71.1 44C70.4 44.22 69.77 44.54 69.22 44.91C68.12 45.66 67.33 46.61 66.81 47.59C66.28 48.58 66.04 49.57 65.96 50.44C65.81 52.2 66.21 53.5 66.53 54.33C66.69 54.75 66.85 55.06 66.96 55.26Z" fill="#FFE046"/>
<path d="M68.35 61.5799C68.57 61.5099 68.79 61.4699 69 61.4599C69.29 61.4399 69.55 61.4799 69.79 61.5499C69.87 61.5799 69.96 61.6099 70.04 61.6599C69.56 61.0899 68.94 61.1899 68.35 61.5799Z" fill="#FFE046"/>
<path d="M63.31 71.09C64.01 72.17 64.86 73.09 65.79 73.78C66.66 74.43 67.59 74.88 68.49 75.13C68.47 75.12 68.45 75.11 68.42 75.1C65.48 73.29 63.62 70.44 63.52 66.95C63.44 64.05 64.67 60.36 67.58 59.19C72.1 57.37 74.01 63.02 71.87 65.75C72.06 65.64 72.26 65.5 72.44 65.34C72.53 65.25 72.62 65.15 72.72 65.06C72.81 64.96 72.89 64.84 72.98 64.73C73.14 64.5 73.27 64.25 73.38 63.97C73.81 62.87 73.76 61.5 73.15 60.25C72.84 59.62 72.37 59.02 71.71 58.52C71.08 58.05 70.32 57.71 69.53 57.55C67.95 57.22 66.2 57.52 64.7 58.53C63.24 59.52 62.24 61.03 61.76 62.66C61.27 64.33 61.36 65.97 61.69 67.38C62.05 68.8 62.62 70.01 63.31 71.09Z" fill="#FFE046"/>
<path d="M68.8499 72.43C68.0199 71.64 67.2999 70.55 66.7999 69.23C66.4799 68.39 66.2099 67.44 66.0999 66.53C66.0599 66.19 66.0499 65.86 66.0499 65.53C65.6399 68.19 66.7199 70.75 68.8499 72.43Z" fill="#FFE046"/>
<path d="M88.61 63.97C88.72 64.24 88.85 64.5 89.01 64.73C89.1 64.84 89.18 64.96 89.27 65.06C89.36 65.15 89.46 65.25 89.55 65.34C89.93 65.68 90.35 65.89 90.74 66.03C91.14 66.17 91.51 66.22 91.85 66.23C89.95 65.28 89.19 62.55 90.22 60.68C91.46 58.42 94.72 58.29 96.63 59.73C101.27 63.25 97.73 72.22 93.7 75.09C94.54 74.83 95.41 74.4 96.21 73.79C97.14 73.09 97.99 72.17 98.69 71.1C99.39 70.02 99.96 68.81 100.3 67.39C100.64 65.98 100.73 64.34 100.23 62.67C99.75 61.04 98.74 59.52 97.29 58.54C95.8 57.53 94.05 57.23 92.46 57.56C91.67 57.72 90.91 58.06 90.28 58.53C89.63 59.03 89.16 59.63 88.84 60.26C88.23 61.51 88.18 62.87 88.61 63.97Z" fill="#FFE046"/>
<path d="M34.79 56.96C35.16 57.31 35.57 57.54 35.97 57.7C33.95 55.89 34.3 52.31 36.53 50.72C39.1 48.89 42.71 49.99 44.6 52.29C46.51 54.62 46.47 57.87 46.26 60.72C46.06 63.42 45.79 65.98 46.29 68.51C46.28 67.41 46.4 66.27 46.7 65.13C47.01 63.93 47.54 62.59 48.01 60.97C48.24 60.16 48.45 59.27 48.54 58.28C48.63 57.3 48.6 56.21 48.34 55.13C47.82 52.99 46.59 51.17 44.97 49.93C44.17 49.3 43.26 48.83 42.31 48.52C41.36 48.22 40.39 48.1 39.43 48.14C38.47 48.19 37.53 48.42 36.68 48.85C36.26 49.07 35.87 49.31 35.51 49.62C35.14 49.92 34.84 50.28 34.57 50.63C33.56 52.08 33.32 53.76 33.73 55.17C33.94 55.88 34.3 56.48 34.79 56.96Z" fill="#FFE046"/>
<path d="M38.8899 57.6199C39.5199 57.3299 39.8699 56.9199 40.0399 56.6299C40.1399 56.4899 40.1699 56.3599 40.2099 56.2899C40.2399 56.2099 40.2599 56.1699 40.2599 56.1699C40.2599 56.1699 40.2299 56.1999 40.1699 56.2599C40.0999 56.3099 40.0299 56.4099 39.8999 56.4899C39.6599 56.6799 39.2399 56.8799 38.6999 56.9199C38.5699 56.9299 38.4399 56.9299 38.2999 56.9199C38.3199 57.2799 38.1799 57.6399 37.9399 57.9099C38.2899 57.8399 38.6199 57.7399 38.8899 57.6199Z" fill="#FFE046"/>
<path d="M40.63 52.41C40.7 52.44 40.76 52.46 40.83 52.49C41.28 52.71 41.72 53 42.11 53.37C42.75 53.95 43.26 54.73 43.57 55.56C43.28 54.56 42.76 53.66 41.84 53.02C41.49 52.78 41.08 52.56 40.63 52.41Z" fill="#FFE046"/>
<path d="M53.59 68.96C55.75 68.75 57.17 70.49 57.46 72.43C57.54 72.17 57.6 71.87 57.6 71.52C57.61 71.11 57.53 70.65 57.34 70.16C57.15 69.68 56.83 69.16 56.3 68.74C55.26 67.89 53.58 67.64 52.02 68.27C51.24 68.58 50.46 69.1 49.87 69.89C49.28 70.64 48.9 71.59 48.73 72.58C48.69 72.81 48.67 73.04 48.65 73.27C49.29 71.07 51.34 69.18 53.59 68.96Z" fill="#FFE046"/>
<path d="M35.6 84.51C39.27 81.78 44.01 82.59 48.36 82.15C48.1 82.12 47.83 82.1 47.56 82.06C46.41 81.92 45.16 81.7 43.73 81.53C42.31 81.37 40.72 81.27 38.98 81.52C38.1 81.66 37.25 81.86 36.37 82.21C35.51 82.56 34.71 83.01 33.99 83.58C33.27 84.15 32.63 84.81 32.12 85.59C31.61 86.37 31.24 87.24 31.06 88.14C30.87 89.11 30.93 90.04 31.15 90.86C31.37 91.69 31.73 92.42 32.21 93.05C32.56 93.51 32.97 93.91 33.43 94.23C31.36 91.29 32.83 86.57 35.6 84.51Z" fill="#FFE046"/>
<path d="M105.62 69.74C107.06 68.62 108.99 68.74 110.5 69.66C113.05 71.22 113.41 74.49 112.48 77.13C112.73 76.66 112.93 76.17 113.08 75.65C113.37 74.62 113.43 73.57 113.26 72.58C113.1 71.59 112.71 70.65 112.12 69.89C111.52 69.1 110.74 68.58 109.97 68.27C108.41 67.65 106.72 67.9 105.69 68.74C105.16 69.16 104.84 69.67 104.65 70.16C104.47 70.62 104.4 71.06 104.4 71.45C104.62 70.79 105.06 70.18 105.62 69.74Z" fill="#FFE046"/>
<path d="M85.15 68.8799C83.68 66.8199 82.63 64.9899 81.93 63.7099C81.58 63.0699 81.31 62.5699 81.13 62.2199C81.12 62.2099 81.12 62.1999 81.11 62.1799C81.11 62.1799 81.11 62.1799 81.11 62.1699C81.08 62.1699 81.05 62.1799 81.01 62.1799C80.96 62.1799 80.93 62.1699 80.88 62.1699V62.1799C80.87 62.1899 80.87 62.1999 80.86 62.2199C80.68 62.5599 80.41 63.0699 80.06 63.7099C79.35 64.9899 78.31 66.8199 76.84 68.8799C75.84 70.2799 74.62 71.7699 73.14 73.1799C74.74 72.6299 76.19 71.6499 77.42 70.4999C78.28 69.6999 79.31 67.6899 80.58 67.5199C81.89 67.3499 83.08 69.0899 83.93 69.8499C85.37 71.1199 86.83 72.1199 88.51 72.8699C87.19 71.5599 86.08 70.1699 85.15 68.8799Z" fill="#FFE046"/>
<path d="M70.95 73.73C70.62 73.61 70.29 73.46 69.96 73.27C70.59 74.01 70.02 75.2 69.15 75.29C69.57 75.36 69.96 75.39 70.34 75.39C70.14 74.83 70.34 74.06 70.95 73.73Z" fill="#FFE046"/>
<path d="M104.34 85.0799C105.46 85.8599 106.44 86.7499 107.07 87.7799C107.17 87.9299 107.24 88.0899 107.34 88.2399C107.41 88.3999 107.49 88.5399 107.55 88.6999C107.68 89.0199 107.77 89.3499 107.85 89.6999C107.98 90.3999 108.01 91.1399 107.89 91.8699C107.78 92.5999 107.54 93.2899 107.2 93.8899C106.87 94.4899 106.41 94.9999 105.88 95.4499C104.8 96.3299 103.39 96.8299 102.06 96.8599C100.74 96.9099 99.45 96.4599 98.55 95.7399C98.1 95.3899 97.74 94.9399 97.51 94.4899C97.28 94.0299 97.16 93.4999 97.15 92.9899C97.13 91.9599 97.57 91.0299 98.23 90.5399C98.9 90.0299 99.78 89.8999 100.45 89.9899C101.14 90.0699 101.64 90.3599 101.93 90.6099C102 90.6699 102.07 90.7299 102.12 90.7799C102.17 90.8399 102.21 90.8799 102.24 90.9199C102.31 90.9999 102.34 91.0399 102.34 91.0399C102.34 91.0399 102.32 90.9899 102.28 90.8999C102.26 90.8499 102.23 90.7899 102.2 90.7199C102.16 90.6499 102.11 90.5699 102.06 90.4799C101.84 90.1299 101.41 89.6299 100.63 89.2899C99.87 88.9599 98.76 88.7499 97.51 89.2399C96.97 89.4499 96.46 89.8199 96.03 90.2999C95.94 89.4599 95.69 88.8099 95.46 88.3399C95.29 87.9999 95.14 87.7599 95.03 87.5899C94.91 87.4299 94.85 87.3399 94.85 87.3399C94.85 87.3399 94.84 87.4399 94.83 87.6199C94.82 87.7999 94.79 88.0699 94.74 88.4099C94.63 89.0799 94.39 90.0399 93.78 90.9799C93.47 91.4499 93.07 91.8999 92.58 92.2699C92.09 92.6499 91.47 92.9599 90.84 93.1499C90.2 93.3399 89.57 93.3899 88.98 93.2999C88.38 93.2099 87.74 92.9799 87.09 92.5999C86.89 92.4799 86.7 92.3499 86.51 92.2199C86.45 92.1799 86.39 92.1399 86.34 92.0899C85.98 91.8099 85.64 91.5099 85.33 91.1899C84.8 90.6199 84.35 90.0199 83.96 89.3899C83.2 88.1299 82.67 86.8099 82.27 85.6599C82.04 85.0099 81.85 84.4299 81.68 83.9199C81.58 83.5199 81.47 83.1599 81.38 82.8699C81.17 82.1899 81.02 81.8099 81.02 81.8099C81.02 81.8099 81.01 81.8399 80.99 81.8899C80.97 81.8399 80.96 81.8099 80.96 81.8099C80.96 81.8099 80.81 82.1799 80.6 82.8699C80.51 83.1599 80.41 83.5199 80.3 83.9199C80.13 84.4299 79.94 85.0199 79.71 85.6599C79.31 86.8099 78.78 88.1299 78.02 89.3899C77.63 90.0199 77.18 90.6299 76.65 91.1899C76.33 91.5399 75.96 91.8599 75.57 92.1499C75.53 92.1899 75.48 92.2199 75.44 92.2499C75.26 92.3799 75.08 92.4999 74.9 92.6099C74.25 92.9899 73.61 93.2199 73.01 93.3099C72.43 93.3999 71.8 93.3499 71.15 93.1599C70.52 92.9699 69.9 92.6599 69.41 92.2799C68.91 91.9099 68.52 91.4599 68.21 90.9899C67.6 90.0499 67.35 89.0899 67.25 88.4199C67.19 88.0799 67.17 87.8099 67.16 87.6299C67.15 87.4399 67.14 87.3499 67.14 87.3499C67.14 87.3499 67.08 87.4399 66.96 87.5999C66.85 87.7599 66.69 88.0099 66.53 88.3499C66.3 88.8199 66.04 89.4799 65.96 90.3099C65.53 89.8299 65.02 89.4599 64.48 89.2499C63.23 88.7599 62.12 88.9799 61.36 89.2999C60.59 89.6399 60.15 90.1399 59.93 90.4899C59.88 90.5799 59.83 90.6599 59.79 90.7299C59.76 90.7999 59.73 90.8599 59.71 90.9099C59.67 91.0099 59.65 91.0499 59.65 91.0499C59.65 91.0499 59.69 91.0099 59.75 90.9299C59.78 90.8899 59.83 90.8399 59.87 90.7899C59.93 90.7399 59.99 90.6799 60.06 90.6199C60.36 90.3699 60.86 90.0799 61.54 89.9999C62.21 89.9099 63.09 90.0399 63.76 90.5499C64.42 91.0399 64.86 91.9699 64.84 92.9999C64.83 93.5099 64.71 94.0399 64.48 94.4999C64.25 94.9499 63.89 95.3899 63.44 95.7499C62.53 96.4799 61.24 96.9199 59.93 96.8699C58.61 96.8399 57.2 96.3399 56.11 95.4599C55.57 95.0099 55.11 94.4999 54.79 93.8999C54.45 93.2999 54.21 92.6099 54.1 91.8799C53.99 91.1499 54.01 90.4099 54.14 89.7099C54.21 89.3599 54.31 89.0299 54.44 88.7099C54.49 88.5699 54.56 88.4299 54.62 88.2999C54.19 88.7299 53.81 89.2099 53.52 89.7399C52.22 92.1199 53.62 94.9899 55.36 96.7299C57.14 98.5299 59.58 99.3799 62.07 98.6599C63.3 98.3099 64.44 97.5599 65.14 96.4699C65.62 95.7299 65.69 94.8299 66.13 94.0799C67.42 91.8499 69.02 93.9199 70.52 94.5899C73.52 95.9299 79.29 92.1899 80.48 87.3399C81.18 84.4899 82.66 92.0599 85.07 93.5899C86.47 94.4799 87.92 95.1099 89.61 95.2099C91.49 95.3199 92.68 94.6399 94.08 93.4599C94.66 92.9799 95.59 92.9699 95.99 93.7099C96.79 95.1799 96.9 96.5099 98.21 97.7599C99.34 98.8399 100.58 99.4199 102.18 99.4299C104.73 99.4399 107.49 98.1199 108.64 95.7699C110.96 91.0899 108.23 87.2099 104.34 85.0799Z" fill="#FFE046"/>
<path d="M124.6 93.1C125.23 93.02 125.73 92.7 126.1 92.27C125.96 92.39 125.81 92.49 125.66 92.56C125.43 92.66 125.17 92.72 124.87 92.67C124.58 92.63 124.28 92.53 124.02 92.38C123.49 92.09 123.11 91.65 122.9 91.24C122.69 90.82 122.66 90.43 122.68 90.15C122.72 89.88 122.75 89.73 122.75 89.73C122.75 89.73 122.65 89.84 122.47 90.08C122.32 90.33 122.11 90.77 122.12 91.4C122.13 92.02 122.34 92.81 122.91 93.56C123.07 93.77 123.26 93.98 123.49 94.17C123.59 93.65 123.96 93.18 124.6 93.1Z" fill="#FFE046"/>
<path d="M130.91 88.15C130.73 87.25 130.36 86.38 129.85 85.6C129.34 84.82 128.7 84.15 127.98 83.59C127.26 83.02 126.46 82.57 125.6 82.22C124.72 81.87 123.87 81.66 122.99 81.53C121.25 81.28 119.66 81.38 118.24 81.54C117.67 81.61 117.13 81.68 116.62 81.75C118.31 81.89 120.03 82.16 121.56 82.51C123.9 83.06 126.15 84.22 127.69 86.11C130.12 89.08 129.55 93.63 126.17 95.1H126.19C126.28 95.09 126.37 95.08 126.46 95.07C126.64 95.05 126.81 95.02 126.99 94.97C127.34 94.88 127.69 94.75 128.03 94.57C128.7 94.21 129.3 93.69 129.77 93.06C130.25 92.43 130.61 91.69 130.83 90.87C131.04 90.05 131.11 89.12 130.91 88.15Z" fill="#FFE046"/>
<path d="M128.09 69.2799C131.11 70.2399 133.67 72.8899 134.16 75.8899C134.17 75.6399 134.18 75.3899 134.17 75.1099C134.13 74.2699 133.95 73.2999 133.48 72.2899C133.24 71.7899 132.94 71.2699 132.55 70.7699C132.16 70.2799 131.68 69.8099 131.14 69.3899C130.05 68.5599 128.65 67.9399 127.07 67.7399C126.28 67.6399 125.44 67.6399 124.59 67.7799C123.72 67.9199 122.91 68.2099 122.12 68.5799C121.5 68.8799 120.92 69.2499 120.39 69.6399C122.76 68.5899 125.89 68.5799 128.09 69.2799Z" fill="#FFE046"/>
<path d="M114 60.95C114.45 62.51 114.95 63.8 115.27 64.96C114.98 62.97 114.57 60.98 114.81 58.89C115.17 55.76 116.99 52.7 119.69 51.03C122.04 49.58 125.6 49.6 126.93 52.39C127.79 54.2 127.28 56.27 126.01 57.7C126.42 57.55 126.83 57.32 127.21 56.96C127.7 56.48 128.06 55.88 128.27 55.17C128.68 53.75 128.44 52.07 127.43 50.63C127.17 50.27 126.87 49.92 126.49 49.62C126.12 49.31 125.74 49.06 125.32 48.85C124.48 48.42 123.53 48.19 122.57 48.14C121.61 48.09 120.64 48.22 119.69 48.52C118.74 48.83 117.83 49.3 117.03 49.93C115.41 51.17 114.18 52.99 113.66 55.13C113.4 56.21 113.37 57.3 113.46 58.28C113.56 59.25 113.77 60.14 114 60.95Z" fill="#FFE046"/>
<path d="M121.96 56.62C122.13 56.91 122.48 57.33 123.11 57.61C123.12 57.62 123.14 57.62 123.15 57.63C123.13 57.38 123.18 57.13 123.32 56.91C122.78 56.88 122.36 56.67 122.12 56.48C121.98 56.4 121.91 56.3 121.85 56.25C121.79 56.19 121.76 56.16 121.76 56.16C121.76 56.16 121.78 56.2 121.81 56.28C121.83 56.35 121.86 56.49 121.96 56.62Z" fill="#FFE046"/>
<path d="M33.77 69.6999C36.69 68.2999 39.72 68.4799 42.24 70.1399C41.53 69.5599 40.75 69.0199 39.88 68.5899C39.09 68.2199 38.28 67.9399 37.41 67.7899C36.56 67.6499 35.72 67.6499 34.93 67.7499C33.35 67.9599 31.95 68.57 30.86 69.4C30.31 69.82 29.84 70.2799 29.45 70.7799C29.06 71.2799 28.76 71.79 28.52 72.3C28.05 73.31 27.87 74.29 27.83 75.12C27.79 75.96 27.9 76.6599 28.04 77.2099C28.08 77.3699 28.12 77.5199 28.17 77.65C28.18 74.32 30.91 71.0699 33.77 69.6999Z" fill="#FFE046"/>
<path d="M95.2 69.23C95.05 69.62 94.88 69.98 94.7 70.33C95.59 68.72 96.09 66.83 96.2 65.2C96.3 63.68 96.05 61.64 94.26 61.24C93.75 61.13 93.31 61.23 92.96 61.46C92.97 61.46 92.99 61.46 93 61.46C93.57 61.48 94.22 61.74 94.64 62.14C95.11 62.56 95.51 63.21 95.74 63.98C95.97 64.73 96.01 65.62 95.9 66.52C95.79 67.43 95.52 68.39 95.2 69.23Z" fill="#FFE046"/>
</g>
<defs>
<clipPath id="clip0_1_4400">
<rect width="162" height="232" fill="white"/>
</clipPath>
</defs>
</svg>
