<svg width="448" height="264" viewBox="0 0 448 264" fill="none" xmlns="http://www.w3.org/2000/svg">
<g clip-path="url(#clip0_1_2188)">
<path d="M41.8209 160.41C41.3909 159.92 40.9009 159.41 40.3809 158.9C39.3209 157.9 38.1109 156.84 36.6709 155.99C35.2109 155.18 33.7309 154.57 32.3409 154.12C31.9909 154.01 31.6509 153.91 31.3209 153.81C30.9809 153.74 30.6409 153.67 30.3109 153.61C29.6509 153.5 29.0409 153.41 28.4709 153.35C26.1909 153.11 24.7109 153.25 24.7109 153.25C24.7109 153.25 25.6009 154.52 27.1509 156.1C27.5409 156.5 27.9709 156.91 28.4409 157.33C28.6809 157.54 28.9209 157.75 29.1809 157.96C29.4309 158.19 29.6809 158.42 29.9409 158.65C31.0009 159.57 32.2109 160.46 33.5809 161.22C34.9309 162.01 36.2609 162.7 37.5809 163.18C38.2309 163.43 38.8709 163.64 39.4909 163.82C40.0909 164.02 40.6509 164.21 41.1909 164.36C43.3209 164.97 44.8409 165.14 44.8409 165.14C44.8409 165.14 44.2509 163.76 42.9509 161.87C42.6009 161.44 42.2409 160.93 41.8209 160.41Z" fill="#46B755"/>
<path d="M46.24 169.21C44.76 168.83 43.15 168.55 41.39 168.61C39.65 168.64 38.01 168.89 36.54 169.26C35.07 169.62 33.71 170.19 32.62 170.69C30.41 171.72 29.09 172.69 29.09 172.69C29.09 172.69 30.31 173.28 32.38 173.76C33.4 174.03 34.59 174.35 35.98 174.54C36.67 174.64 37.41 174.72 38.19 174.76C38.97 174.8 39.74 174.88 40.58 174.87C42.24 174.88 43.89 174.73 45.44 174.49C46.99 174.25 48.37 174.02 49.59 173.73C52.01 173.18 53.62 172.58 53.62 172.58C53.62 172.58 52.32 171.6 50.17 170.54C49.07 170.05 47.71 169.59 46.24 169.21Z" fill="#46B755"/>
<path d="M64.03 184.53C63.45 184.01 62.63 183.26 61.48 182.55C60.35 181.82 58.99 181.03 57.46 180.35C55.9 179.69 54.09 179.19 52.22 178.89C50.36 178.58 48.48 178.63 46.78 178.82C45.09 179.01 43.56 179.35 42.29 179.71C41.03 180.06 39.95 180.52 39.22 180.83C38.49 181.15 38.09 181.37 38.09 181.37C38.09 181.37 39.38 182.13 41.47 183.09C42.52 183.57 43.86 184 45.31 184.47C46.76 184.94 48.42 185.35 50.27 185.6C52.1 185.87 53.87 186.03 55.6 186.05C57.3 186.09 58.97 185.98 60.31 185.91C63.04 185.75 64.9 185.4 64.9 185.4C64.9 185.4 65.79 183.74 66.58 180.99C66.99 179.6 67.28 178.01 67.45 176.18C67.6 174.37 67.63 172.32 67.3 170.22C66.94 168.14 66.33 166.16 65.62 164.35C64.91 162.54 63.97 161.03 63.16 159.71C62.32 158.42 61.59 157.34 60.98 156.67C60.39 155.99 60.02 155.62 60.02 155.62C60.02 155.62 59.93 156.1 59.82 156.94C59.71 157.79 59.62 158.96 59.51 160.44C59.41 161.91 59.37 163.63 59.44 165.47C59.51 167.31 59.72 169.25 60.02 171.31C60.34 173.35 60.86 175.19 61.38 176.88C61.87 178.59 62.44 180.09 62.98 181.34C63.54 182.56 63.98 183.61 64.33 184.31C64.68 185.01 64.9 185.4 64.9 185.4C64.91 185.39 64.61 185.06 64.03 184.53Z" fill="#46B755"/>
<path d="M71.6805 197.8C70.5905 196.78 69.2505 195.65 67.7105 194.61C66.0905 193.61 64.2405 192.7 62.2505 192.03C60.2505 191.37 58.1505 191.11 56.2905 190.99C54.4105 190.89 52.7105 190.98 51.2005 191.21C48.2205 191.63 46.3105 192.31 46.3105 192.31C46.3105 192.31 46.6105 192.59 47.1905 193.02C47.4805 193.24 47.8405 193.49 48.2605 193.78C48.7005 194.05 49.1705 194.38 49.6905 194.73C50.7405 195.43 52.0505 196.18 53.6105 196.9C55.1005 197.66 56.8105 198.41 58.7805 199.02C59.7805 199.31 60.7205 199.61 61.6805 199.86C62.6405 200.11 63.5905 200.31 64.5305 200.49C66.4005 200.85 68.2205 201.06 69.7105 201.26C72.7405 201.62 74.8605 201.61 74.8605 201.61C74.8605 201.61 76.1705 199.98 77.5805 197.12C78.3105 195.67 78.9605 193.97 79.4905 191.99C79.7505 191 79.9805 189.95 80.1505 188.84C80.3205 187.73 80.4505 186.55 80.4405 185.38C80.4405 183.01 80.1505 180.67 79.6705 178.54C79.1305 176.45 78.4505 174.54 77.7705 172.93C77.4405 172.12 77.1005 171.39 76.7505 170.78C76.4105 170.16 76.1005 169.62 75.8405 169.18C75.3105 168.3 74.9705 167.82 74.9705 167.82C74.9705 167.82 74.2405 169.89 73.5805 173.07C73.2705 174.64 72.8905 176.55 72.6305 178.61C72.3505 180.68 72.2505 182.85 72.2205 185.16C72.1905 187.48 72.3805 189.63 72.6705 191.56C72.8805 193.54 73.2105 195.3 73.5605 196.77C73.9405 198.22 74.1805 199.47 74.4405 200.31C74.6805 201.15 74.8605 201.62 74.8605 201.62C74.8605 201.62 74.5905 201.2 74.0605 200.51C73.5205 199.8 72.8005 198.81 71.6805 197.8Z" fill="#46B755"/>
<path d="M81.6807 220.45C81.2307 219.56 80.5607 218.32 79.6407 216.91C78.7807 215.48 77.4207 213.97 75.9307 212.47C74.4707 210.96 72.5407 209.58 70.4507 208.43C68.4007 207.27 66.1307 206.55 64.0707 206.07C61.9907 205.6 60.1007 205.37 58.3707 205.34C54.9707 205.25 52.7207 205.67 52.7207 205.67C52.7207 205.67 52.9907 206.03 53.5407 206.6C54.0707 207.19 54.9507 207.96 55.9407 208.92C56.4507 209.39 57.0307 209.9 57.6807 210.42C58.3207 210.94 59.0807 211.46 59.7907 212.03C60.5307 212.59 61.3407 213.16 62.2207 213.71C63.0907 214.27 64.1007 214.81 65.0507 215.37C67.0007 216.48 69.1007 217.4 71.1207 218.2C73.0607 219.02 74.9507 219.7 76.6107 220.25C78.2707 220.8 79.7107 221.2 80.7107 221.47C81.6907 221.75 82.2707 221.87 82.2707 221.87C82.2707 221.87 82.2207 221.74 82.1307 221.49C82.0607 221.25 81.9107 220.89 81.6807 220.45Z" fill="#46B755"/>
<path d="M54.56 164.03C54.43 162.41 54.13 160.64 53.57 158.8C53.28 157.89 52.97 156.98 52.57 156.17C52.17 155.35 51.74 154.58 51.29 153.84C50.39 152.38 49.45 151.05 48.54 150.02C46.69 147.99 45.21 146.84 45.21 146.84C45.21 146.84 45.13 148.6 45.37 151.21C45.48 152.52 45.71 153.99 45.99 155.65C46.28 157.3 46.68 159.05 47.27 160.78C47.88 162.49 48.53 164.13 49.23 165.56C49.92 167 50.68 168.21 51.31 169.25C52.56 171.37 53.6 172.59 53.6 172.59C53.6 172.59 54.14 170.99 54.43 168.45C54.58 167.2 54.69 165.65 54.56 164.03Z" fill="#46B755"/>
<path d="M86.3493 217.55C87.4493 216.13 88.6393 214.35 89.7293 212.23C90.7393 210.14 91.6193 207.72 92.2193 205C92.5393 203.63 92.6393 202.31 92.7393 200.98C92.8193 199.65 92.8293 198.35 92.7793 197.08C92.7593 195.8 92.5693 194.62 92.3993 193.48C92.2193 192.34 92.0093 191.27 91.7793 190.28C91.3693 188.28 90.7493 186.72 90.3293 185.61C89.8993 184.5 89.6093 183.88 89.6093 183.88C89.6093 183.88 88.3993 186.08 87.0493 189.54C86.3993 191.25 85.5793 193.35 84.8893 195.6C84.1793 197.86 83.6093 200.29 83.0593 202.9C82.5493 205.49 82.3693 207.91 82.1493 210.18C81.9493 212.44 82.0393 214.44 81.9793 216.19C81.9693 217.93 82.0593 219.34 82.1493 220.32C82.1993 220.81 82.2393 221.2 82.2493 221.47C82.2693 221.74 82.2793 221.88 82.2793 221.88C82.2793 221.88 82.7493 221.5 83.5093 220.77C84.2593 220.05 85.2493 218.98 86.3493 217.55Z" fill="#46B755"/>
<path d="M323.831 98.03C324.061 99.47 324.451 101.01 325.061 102.53C325.691 104.05 326.541 105.39 327.391 106.55C327.821 107.13 328.261 107.67 328.691 108.16C329.141 108.64 329.591 109.08 330.011 109.46C331.701 111.01 333.021 111.79 333.021 111.79C333.021 111.79 333.211 110.22 333.061 107.96C333.021 107.39 332.961 106.79 332.881 106.15C332.811 105.5 332.721 104.82 332.581 104.13C332.321 102.73 331.881 101.28 331.281 99.82C330.691 98.35 329.941 97.04 329.131 95.88C328.931 95.59 328.721 95.31 328.521 95.04C328.321 94.77 328.131 94.5 327.931 94.25C327.541 93.75 327.141 93.28 326.771 92.87C325.261 91.2 324.021 90.25 324.021 90.25C324.021 90.25 323.661 91.76 323.601 94.07C323.581 94.65 323.591 95.28 323.611 95.94C323.621 96.27 323.651 96.61 323.681 96.96C323.721 97.32 323.771 97.67 323.831 98.03Z" fill="#46B755"/>
<path d="M318.33 110.75C315.62 110.29 313.74 110.25 313.74 110.25C313.74 110.25 314.62 111.78 316.35 113.76C317.22 114.74 318.35 115.81 319.66 116.85C320.32 117.37 321.02 117.88 321.78 118.36C322.53 118.85 323.37 119.28 324.24 119.68C325.98 120.48 327.74 121.02 329.4 121.38C331.05 121.74 332.66 121.88 334.01 121.95C336.72 122.07 338.54 121.81 338.54 121.81C338.54 121.81 337.59 120.53 335.77 118.9C334.87 118.08 333.79 117.14 332.48 116.23C331.83 115.77 331.12 115.32 330.36 114.88C329.6 114.45 328.83 114.01 327.98 113.61C326.29 112.81 324.551 112.21 322.891 111.75C321.231 111.31 319.69 110.97 318.33 110.75Z" fill="#46B755"/>
<path d="M355.36 148.03C354.09 147.24 352.53 146.38 350.71 145.59C348.93 144.77 346.911 144 344.641 143.44C343.501 143.16 342.4 142.91 341.29 142.72C340.19 142.53 339.09 142.39 338.03 142.29C335.91 142.09 333.9 142.05 332.21 142.05C328.81 142.07 326.49 142.41 326.49 142.41C326.49 142.41 326.84 142.84 327.52 143.53C327.86 143.87 328.27 144.29 328.76 144.74C329.01 144.97 329.27 145.21 329.55 145.45C329.84 145.69 330.15 145.94 330.48 146.19C331.79 147.2 333.38 148.3 335.21 149.3C337.08 150.27 339.19 151.14 341.48 151.74C342.62 152.05 343.78 152.24 344.91 152.37C346.04 152.5 347.141 152.57 348.201 152.59C350.32 152.62 352.251 152.46 353.921 152.19C357.251 151.67 359.4 150.89 359.4 150.89C359.4 150.89 359.03 150.56 358.34 150.04C357.67 149.51 356.62 148.83 355.36 148.03Z" fill="#46B755"/>
<path d="M342.89 113.76C343.54 112.2 344.13 110.51 344.54 108.77C344.75 107.9 344.88 107.06 345.01 106.24C345.14 105.42 345.22 104.63 345.26 103.88C345.36 102.38 345.29 101.06 345.21 99.93C345.07 97.67 344.66 96.28 344.66 96.28C344.66 96.28 343.37 97.58 341.83 99.77C341.07 100.87 340.22 102.2 339.5 103.69C338.78 105.18 338.13 106.85 337.69 108.64C337.48 109.53 337.3 110.42 337.22 111.27C337.13 112.12 337.1 112.94 337.1 113.73C337.11 115.3 337.24 116.75 337.46 117.95C337.92 120.34 338.55 121.83 338.55 121.83C338.55 121.83 339.65 120.3 340.93 117.91C341.57 116.71 342.24 115.31 342.89 113.76Z" fill="#46B755"/>
<path d="M353.011 111.26C352.821 110.03 352.551 109.07 352.381 108.38C352.201 107.69 352.071 107.32 352.071 107.32C352.071 107.32 351.741 107.71 351.221 108.42C350.701 109.13 349.971 110.17 349.241 111.44C348.501 112.72 347.721 114.25 347.041 115.98C346.361 117.7 345.761 119.63 345.481 121.63C345.191 123.63 345.141 125.57 345.291 127.32C345.461 129.05 345.781 130.62 346.131 131.93C346.471 133.25 346.891 134.28 347.191 135C347.501 135.72 347.711 136.11 347.711 136.11C347.711 136.11 347.411 135.78 346.841 135.26C346.271 134.73 345.411 134.02 344.361 133.18C343.291 132.35 341.981 131.45 340.431 130.58C338.901 129.7 337.181 128.82 335.211 128.12C333.231 127.42 331.281 126.9 329.411 126.54C327.541 126.18 325.771 125.97 324.241 125.85C322.701 125.74 321.441 125.68 320.541 125.68C319.641 125.68 319.121 125.71 319.121 125.71C319.121 125.71 319.401 126.12 319.931 126.79C320.451 127.47 321.301 128.36 322.371 129.37C323.451 130.37 324.731 131.5 326.311 132.52C327.891 133.54 329.691 134.5 331.671 135.23C333.671 135.95 335.711 136.36 337.581 136.58C339.471 136.8 341.191 136.84 342.711 136.76C345.731 136.6 347.721 136.12 347.721 136.12C347.721 136.12 348.771 134.32 349.941 131.55C350.511 130.17 351.181 128.51 351.731 126.74C352.301 124.96 352.751 123.06 353.061 121.09C353.381 119.11 353.461 117.28 353.411 115.64C353.331 113.97 353.221 112.48 353.011 111.26Z" fill="#46B755"/>
<path d="M362.81 140.02C363.02 139 363.21 137.95 363.36 136.89C363.51 135.82 363.61 134.74 363.69 133.63C363.84 131.41 363.73 129.39 363.52 127.59C363.34 125.76 363.02 124.17 362.68 122.85C362.59 122.52 362.51 122.21 362.42 121.91C362.34 121.61 362.26 121.33 362.18 121.07C362.02 120.54 361.87 120.1 361.74 119.73C361.47 119 361.28 118.6 361.28 118.6C361.28 118.6 359.96 120.45 358.53 123.45C357.8 124.96 357.1 126.73 356.52 128.7C356.23 129.69 355.98 130.73 355.77 131.8C355.57 132.87 355.4 134 355.36 135.12C355.24 137.37 355.42 139.51 355.75 141.43C356.13 143.33 356.65 145.02 357.18 146.44C357.7 147.87 358.29 148.95 358.71 149.72C359.13 150.48 359.41 150.89 359.41 150.89C359.41 150.89 360.37 148.76 361.36 145.55C361.84 143.95 362.38 142.05 362.81 140.02Z" fill="#46B755"/>
<path d="M381.341 11.44C381.451 12.03 381.571 12.64 381.711 13.26C382.251 15.72 383.011 18.32 384.101 20.94C385.131 23.58 386.191 26.06 387.431 28.24C388.041 29.34 388.661 30.37 389.281 31.33C389.851 32.31 390.391 33.22 390.921 34.04C393.031 37.35 394.791 39.35 394.791 39.35C394.791 39.35 395.321 36.78 395.441 32.69C395.471 31.67 395.481 30.55 395.431 29.36C395.321 28.19 395.171 26.95 394.971 25.65C394.531 23.06 393.971 20.22 392.881 17.42C391.731 14.65 390.361 12.12 388.961 9.91C388.611 9.36 388.261 8.83 387.911 8.32C387.521 7.83 387.141 7.35 386.761 6.9C386.001 6 385.261 5.18 384.571 4.44C381.771 1.52 379.701 0 379.701 0C379.701 0 379.731 2.71 380.351 6.61C380.511 7.59 380.701 8.64 380.941 9.74C381.071 10.3 381.201 10.86 381.341 11.44Z" fill="#46B755"/>
<path d="M367.93 31.28C367.93 31.28 368.97 33.52 371.18 36.62C372.24 38.19 373.44 40.03 375.02 41.93C375.8 42.88 376.66 43.85 377.6 44.82C378.55 45.79 379.43 46.8 380.47 47.78C382.52 49.74 384.72 51.45 386.86 52.92C389.01 54.4 390.9 55.68 392.67 56.69C396.16 58.73 398.7 59.76 398.7 59.76C398.7 59.76 398.03 56.9 396.4 52.95C395.54 50.98 394.27 48.78 392.8 46.54C392.06 45.42 391.24 44.3 390.36 43.2C389.49 42.1 388.38 41.07 387.3 40.07C385.08 38.08 382.78 36.52 380.59 35.3C378.41 34.08 376.13 33.28 374.28 32.68C370.51 31.5 367.93 31.28 367.93 31.28Z" fill="#46B755"/>
<path d="M398.641 82.7101C398.011 80.3901 397.141 77.7401 395.981 75.0101C394.741 72.2901 393.021 69.5101 391.041 66.9201C389.101 64.3301 386.731 62.2201 384.471 60.5101C382.211 58.8001 380.021 57.4901 378.111 56.5101C376.231 55.5201 374.451 54.8901 373.271 54.4701C372.061 54.0601 371.361 53.8901 371.361 53.8901C371.361 53.8901 371.571 54.5401 372.031 55.6601C372.531 56.7701 373.031 58.3801 373.921 60.2701C374.351 61.2201 374.851 62.2401 375.431 63.3201C376.001 64.4001 376.701 65.5201 377.311 66.7101C378.611 69.0701 380.231 71.5701 382.241 74.0701C384.181 76.5701 386.141 78.8501 388.201 80.8601C390.201 82.8801 392.321 84.6301 393.971 86.0801C397.371 88.9801 399.921 90.6101 399.921 90.6101C399.921 90.6101 399.881 89.8001 399.721 88.4001C399.561 87.0001 399.331 85.0301 398.641 82.7101Z" fill="#46B755"/>
<path d="M395.341 115.73C395.121 113.06 394.711 109.97 393.991 106.75C393.101 103.51 391.841 100.13 390.171 96.9102C389.381 95.3102 388.321 93.8002 387.301 92.4202C386.271 91.0402 385.211 89.7702 384.151 88.6202C382.031 86.3202 379.931 84.4802 377.881 83.0502C373.891 80.1902 370.951 78.9302 370.951 78.9302C370.951 78.9302 371.041 79.6802 371.311 80.9702C371.451 81.6202 371.631 82.4002 371.861 83.3002C371.981 83.7502 372.111 84.2302 372.251 84.7302C372.371 85.2302 372.491 85.7602 372.631 86.3202C373.191 88.5302 373.991 91.1202 375.131 93.9302C376.121 96.7302 377.361 99.7502 379.071 102.87C379.961 104.43 380.741 105.92 381.601 107.35C382.461 108.78 383.361 110.16 384.271 111.47C386.081 114.09 387.991 116.45 389.501 118.38C392.631 122.28 395.091 124.63 395.091 124.63C395.091 124.63 395.221 123.73 395.331 122.17C395.401 120.62 395.631 118.42 395.341 115.73Z" fill="#46B755"/>
<path d="M365.201 107.76C365.211 109.21 365.461 111.33 365.571 113.83C365.661 115.09 365.801 116.46 366.001 117.94C366.181 119.41 366.541 121.01 366.741 122.62C366.991 124.25 367.311 125.96 367.731 127.74C368.121 129.51 368.741 131.41 369.201 133.25C370.231 136.98 371.611 140.61 373.061 143.95C374.361 147.23 375.771 150.25 377.061 152.82C378.351 155.39 379.551 157.52 380.401 158.99C381.211 160.43 381.731 161.24 381.731 161.24C381.731 161.24 381.821 161 382.001 160.56C382.181 160.12 382.411 159.46 382.631 158.59C383.101 156.87 383.701 154.39 384.201 151.42C384.331 150.68 384.451 149.91 384.561 149.11C384.661 148.31 384.691 147.45 384.741 146.58C384.821 144.84 384.841 143.01 384.791 141.13C384.771 137.41 383.991 133.32 382.821 129.38C381.721 125.46 379.821 121.9 377.941 118.9C376.021 115.89 374.111 113.44 372.111 111.43C368.241 107.45 365.211 105.47 365.211 105.47C365.211 105.47 365.161 106.3 365.201 107.76Z" fill="#46B755"/>
<path d="M403.65 54.9901C405.01 53.4101 406.63 51.4001 407.98 49.0301C409.34 46.6601 410.63 43.8801 411.64 40.7201C412.13 39.1501 412.61 37.5401 412.85 35.9701C413.11 34.4001 413.28 32.8501 413.4 31.3301C413.62 28.3001 413.67 25.4201 413.47 22.9901C412.98 18.1301 412.14 14.8901 412.14 14.8901C412.14 14.8901 410.42 17.1701 408.34 20.9701C407.27 22.8801 406.24 25.1201 405.06 27.7001C403.89 30.2801 402.78 33.1301 401.92 36.1701C401.47 37.7001 401.19 39.1901 400.81 40.6701C400.45 42.1501 400.15 43.6001 399.92 44.9801C399.43 47.7601 399.25 50.2901 399.05 52.4801C398.57 56.8601 398.7 59.7501 398.7 59.7501C398.7 59.7501 400.88 58.1701 403.65 54.9901Z" fill="#46B755"/>
<path d="M422.64 43.76C422.64 43.76 422.08 44.31 421.16 45.34C420.22 46.37 419.03 47.87 417.48 49.79C415.97 51.7 414.28 54.01 412.62 56.62C410.96 59.24 409.38 62.15 407.75 65.36C406.17 68.56 405.05 71.71 404.04 74.67C402.96 77.62 402.18 80.37 401.61 82.73C401.1 85.09 400.58 87.05 400.3 88.44C400.01 89.82 399.9 90.62 399.9 90.62C399.9 90.62 402.59 89.3 406.26 86.36C408.14 84.89 410 83 412 80.64C413.94 78.29 415.99 75.47 417.62 72.19C419.19 68.91 420.35 65.47 421.22 62.16C421.69 60.5 421.92 58.89 422.15 57.35C422.36 55.81 422.52 54.34 422.63 52.97C422.83 50.24 422.96 47.91 422.83 46.31C422.75 44.68 422.64 43.76 422.64 43.76Z" fill="#46B755"/>
<path d="M410.41 116.3C411.73 115.21 413.07 113.99 414.4 112.63C415.73 111.27 417.1 109.78 418.25 108.12C420.63 104.81 422.64 101.23 424.22 97.7298C425.65 94.2198 426.73 90.7898 427.52 87.7998C427.71 87.0498 427.89 86.3298 428.07 85.6398C428.21 84.9498 428.32 84.2898 428.42 83.6698C428.62 82.4298 428.78 81.3398 428.89 80.4298C429.11 78.6198 429.18 77.5698 429.18 77.5698C429.18 77.5698 426.28 79.5998 422.4 83.2598C420.51 85.0898 418.16 87.3098 415.81 89.8798C414.64 91.1598 413.45 92.5298 412.3 93.9798C411.13 95.4298 410.05 96.9598 408.83 98.5698C406.46 101.78 404.53 105.01 402.92 108.06C401.14 111.08 399.72 113.93 398.62 116.39C397.59 118.87 396.54 120.89 395.98 122.36C395.38 123.81 395.1 124.67 395.1 124.67C395.1 124.67 398.31 123.83 402.93 121.38C405.28 120.15 407.77 118.48 410.41 116.3Z" fill="#46B755"/>
<path d="M391.16 159.64C393.98 158.85 397.29 157.68 400.86 155.93C404.27 154.12 407.9 151.72 411.5 148.59C413.36 147.04 414.85 145.31 416.37 143.56C417.86 141.8 419.25 139.99 420.54 138.18C421.88 136.38 422.86 134.53 423.86 132.75C424.83 130.97 425.7 129.24 426.47 127.62C428.08 124.39 428.93 121.53 429.59 119.52C430.22 117.51 430.52 116.32 430.52 116.32C430.52 116.32 426.86 118.02 421.75 121.34C419.26 123.01 416.11 125.01 412.97 127.39C409.79 129.77 406.62 132.53 403.22 135.57C399.88 138.63 397.14 141.84 394.41 144.76C393.09 146.24 391.89 147.69 390.79 149.08C390.23 149.77 389.74 150.46 389.21 151.11C388.68 151.76 388.17 152.38 387.68 152.98C385.76 155.39 384.3 157.46 383.32 158.93C382.84 159.67 382.45 160.25 382.16 160.64C381.89 161.03 381.74 161.24 381.74 161.24C381.74 161.24 382.7 161.22 384.38 161.04C386.01 160.84 388.33 160.42 391.16 159.64Z" fill="#46B755"/>
<path d="M331.37 108.36C331.37 108.36 331.1 108.2 330.65 107.88C330.19 107.56 329.59 107.07 328.89 106.43C327.51 105.13 325.7 103.23 324.42 100.7C324.6 101.31 324.81 101.93 325.06 102.55C325.69 104.07 326.54 105.41 327.39 106.57C327.82 107.15 328.26 107.69 328.69 108.18C329.14 108.66 329.59 109.1 330.01 109.48C331.7 111.03 333.02 111.81 333.02 111.81C333.02 111.81 333.21 110.24 333.06 107.98C333.02 107.41 332.96 106.81 332.88 106.17C332.81 105.52 332.72 104.84 332.58 104.15C332.32 102.75 331.88 101.3 331.28 99.8399C331.04 99.2499 330.78 98.6799 330.49 98.1399C331.21 100.79 331.49 103.3 331.49 105.21C331.5 106.16 331.45 106.97 331.43 107.51C331.41 108.04 331.37 108.36 331.37 108.36Z" fill="#3EA34C"/>
<path d="M330.611 115.04C332.271 116.32 333.521 117.58 334.371 118.52C334.781 118.99 335.121 119.37 335.351 119.64C335.571 119.91 335.691 120.06 335.691 120.06C335.691 120.06 335.231 120.12 334.431 120.15C333.631 120.19 332.481 120.2 331.141 120.1C329.791 120 328.231 119.8 326.551 119.42C324.891 119.03 323.081 118.48 321.391 117.61C320.441 117.14 319.551 116.61 318.721 116.05C320.251 117.36 322.051 118.7 324.261 119.68C326.001 120.48 327.761 121.02 329.421 121.38C331.071 121.74 332.681 121.88 334.031 121.95C336.741 122.07 338.561 121.81 338.561 121.81C338.561 121.81 337.851 120.86 336.491 119.55C336.151 119.22 335.761 118.88 335.351 118.51C334.941 118.14 334.501 117.75 334.011 117.36C333.031 116.6 331.901 115.8 330.611 115.04Z" fill="#3EA34C"/>
<path d="M337.401 129C338.401 129.65 339.251 130.32 340.041 130.92C340.821 131.52 341.491 132.09 342.021 132.57C343.091 133.54 343.651 134.21 343.651 134.21C343.651 134.21 341.651 134.64 338.631 134.7C337.121 134.73 335.351 134.67 333.451 134.4C331.581 134.12 329.581 133.63 327.571 132.86C326.791 132.55 326.021 132.22 325.311 131.85C327.101 133.12 329.241 134.33 331.641 135.22C333.641 135.94 335.681 136.35 337.551 136.57C339.441 136.79 341.161 136.83 342.681 136.75C345.701 136.59 347.691 136.11 347.691 136.11C347.691 136.11 347.451 135.84 346.981 135.4C346.521 134.96 345.801 134.36 344.931 133.65C344.061 132.94 342.981 132.14 341.711 131.34C341.081 130.94 340.381 130.55 339.671 130.16C338.961 129.75 338.201 129.36 337.401 129Z" fill="#3EA34C"/>
<path d="M347.44 144.27C348.66 144.88 349.71 145.54 350.68 146.13C351.64 146.72 352.47 147.28 353.13 147.77C354.46 148.75 355.19 149.44 355.19 149.44C355.19 149.44 353.03 150.15 349.69 150.57C348.02 150.78 346.04 150.91 343.91 150.83C341.8 150.73 339.52 150.41 337.2 149.77C336.7 149.63 336.21 149.48 335.72 149.32C335.24 149.15 334.78 148.97 334.33 148.78C335.34 149.39 336.48 149.94 337.69 150.44C338.89 150.94 340.17 151.38 341.51 151.73C342.65 152.04 343.81 152.23 344.94 152.36C346.07 152.49 347.17 152.56 348.23 152.58C350.35 152.61 352.28 152.45 353.96 152.18C357.29 151.66 359.44 150.88 359.44 150.88C359.44 150.88 359.15 150.62 358.59 150.19C358.04 149.76 357.21 149.19 356.17 148.52C354.11 147.16 351.07 145.57 347.44 144.27Z" fill="#3EA34C"/>
<path d="M337.201 111.54C337.281 113.57 337.601 115.31 337.891 116.53C338.031 117.14 338.191 117.61 338.301 117.94C338.411 118.26 338.491 118.44 338.491 118.44C338.491 118.44 338.771 118.07 339.211 117.4C339.651 116.73 340.251 115.77 340.931 114.58C341.601 113.39 342.331 112 343.001 110.47C343.681 108.94 344.251 107.3 344.731 105.55C344.991 104.59 345.181 103.66 345.311 102.77C345.291 104.53 345.031 106.59 344.541 108.77C344.131 110.51 343.541 112.2 342.891 113.76C342.241 115.32 341.571 116.71 340.921 117.91C339.641 120.3 338.541 121.83 338.541 121.83C338.541 121.83 338.081 120.72 337.651 118.89C337.551 118.43 337.441 117.93 337.351 117.38C337.271 116.83 337.211 116.24 337.161 115.62C337.081 114.37 337.071 112.99 337.201 111.54Z" fill="#3EA34C"/>
<path d="M345.242 123.94C345.362 125.09 345.522 126.17 345.752 127.09C345.982 128.02 346.232 128.83 346.462 129.51C346.922 130.85 347.302 131.62 347.302 131.62C347.302 131.62 348.412 129.84 349.662 127.1C350.292 125.73 350.952 124.13 351.542 122.38C352.162 120.62 352.702 118.72 353.042 116.79C353.182 116.03 353.262 115.3 353.342 114.58C353.462 116.47 353.432 118.65 353.042 121.06C352.742 123.03 352.282 124.93 351.722 126.71C351.172 128.48 350.502 130.14 349.932 131.52C348.762 134.29 347.712 136.09 347.712 136.09C347.712 136.09 347.542 135.77 347.272 135.18C347.022 134.59 346.642 133.74 346.322 132.65C346.002 131.56 345.682 130.25 345.462 128.78C345.352 128.04 345.252 127.28 345.222 126.46C345.192 125.66 345.192 124.81 345.242 123.94Z" fill="#3EA34C"/>
<path d="M355.361 137.96C355.621 139.25 355.911 140.46 356.271 141.49C356.631 142.52 357.001 143.42 357.341 144.16C358.011 145.64 358.541 146.48 358.541 146.48C358.541 146.48 359.561 144.37 360.651 141.19C361.191 139.6 361.751 137.75 362.221 135.75C362.711 133.73 363.111 131.58 363.291 129.4C363.331 128.93 363.351 128.47 363.371 128.02C363.391 127.56 363.411 127.11 363.411 126.67C363.531 127.7 363.661 128.78 363.721 129.93C363.781 131.09 363.781 132.32 363.691 133.61C363.611 134.73 363.511 135.81 363.361 136.87C363.211 137.94 363.021 138.99 362.811 140C362.381 142.03 361.841 143.93 361.361 145.53C360.371 148.74 359.411 150.87 359.411 150.87C359.411 150.87 359.191 150.54 358.841 149.93C358.491 149.32 358.011 148.43 357.521 147.3C356.601 145 355.521 141.8 355.361 137.96Z" fill="#3EA34C"/>
<path d="M332.09 111C343.04 133.69 358.7 154.04 377.82 170.19L379.08 168.62C359.97 152.91 344.17 132.95 333 110.54L332.09 111Z" fill="#3EA34C"/>
<path d="M392.989 32.6699C392.989 32.6699 392.639 32.2799 392.059 31.5399C391.509 30.7999 390.589 29.7699 389.599 28.4499C388.599 27.1399 387.479 25.5499 386.369 23.7499C385.319 21.9199 384.059 19.9499 382.939 17.7899C383.279 18.8299 383.659 19.8799 384.099 20.9399C385.129 23.5799 386.189 26.0599 387.429 28.2399C388.039 29.3399 388.659 30.3699 389.279 31.3299C389.849 32.3099 390.389 33.2199 390.919 34.0399C393.029 37.3499 394.789 39.3499 394.789 39.3499C394.789 39.3499 395.319 36.7799 395.439 32.6899C395.459 31.6699 395.479 30.5499 395.429 29.3599C395.319 28.1899 395.169 26.9499 394.969 25.6499C394.529 23.0599 393.969 20.2199 392.879 17.4199C392.419 16.2999 391.909 15.2199 391.389 14.1899C392.209 16.6399 392.799 19.0099 393.009 21.2599C393.269 23.4799 393.379 25.4899 393.399 27.1799C393.409 28.8699 393.389 30.2199 393.229 31.1799C393.089 32.1399 392.989 32.6699 392.989 32.6699Z" fill="#3EA34C"/>
<path d="M390.66 43.56C392.49 46.52 393.81 49.33 394.66 51.39C395.11 52.42 395.34 53.27 395.51 53.86C395.67 54.45 395.76 54.78 395.76 54.78C395.76 54.78 395.13 54.55 394.07 54.07C393.01 53.59 391.52 52.88 389.68 51.94C387.87 51 385.8 49.83 383.68 48.44C381.52 47.05 379.48 45.39 377.23 43.58C376.02 42.56 374.91 41.52 373.9 40.48C375.64 42.81 378.01 45.28 380.49 47.76C382.54 49.72 384.74 51.43 386.88 52.9C389.03 54.38 390.92 55.66 392.69 56.67C396.18 58.71 398.72 59.74 398.72 59.74C398.72 59.74 398.23 57.62 397.04 54.5C396.74 53.72 396.42 52.88 396.01 52C395.57 51.13 395.08 50.21 394.53 49.27C393.44 47.42 392.15 45.46 390.66 43.56Z" fill="#3EA34C"/>
<path d="M393.23 70.03C394.04 71.83 394.82 73.57 395.27 75.18C395.74 76.79 396.09 78.25 396.36 79.49C396.89 81.96 397.06 83.5 397.06 83.5C397.06 83.5 394.41 82 390.84 79.29C389.04 77.94 387.06 76.29 385 74.4C382.85 72.51 380.66 70.37 378.68 68C377.89 67.07 377.21 66.13 376.5 65.21C377.95 67.98 379.79 71.02 382.24 74.06C384.18 76.56 386.14 78.84 388.2 80.85C390.2 82.87 392.32 84.62 393.97 86.07C397.37 88.97 399.92 90.6 399.92 90.6C399.92 90.6 399.89 89.94 399.77 88.79C399.62 87.64 399.49 85.99 398.99 84.03C398.5 82.07 397.83 79.79 396.93 77.39C396.47 76.19 396.01 74.96 395.37 73.72C394.72 72.48 394.01 71.25 393.23 70.03Z" fill="#3EA34C"/>
<path d="M392.1 101.15C392.65 103.33 393.16 105.45 393.37 107.36C393.57 109.27 393.67 110.99 393.71 112.44C393.8 115.34 393.66 117.12 393.66 117.12C393.66 117.12 391.07 114.89 387.71 111.17C386.02 109.31 384.18 107.09 382.31 104.6C380.33 102.09 378.37 99.3198 376.67 96.3498C375.96 95.0498 375.27 93.7798 374.59 92.5298C375.24 94.1298 375.79 95.7998 376.51 97.5298C377.23 99.2598 378.08 101.05 379.07 102.87C379.96 104.43 380.74 105.92 381.6 107.35C382.46 108.78 383.36 110.16 384.27 111.47C386.08 114.09 387.99 116.45 389.5 118.38C392.63 122.28 395.09 124.63 395.09 124.63C395.09 124.63 395.19 123.92 395.29 122.65C395.38 121.38 395.52 119.58 395.46 117.38C395.33 115.17 395.07 112.58 394.59 109.81C394.33 108.42 394.12 107.01 393.64 105.54C393.2 104.1 392.69 102.62 392.1 101.15Z" fill="#3EA34C"/>
<path d="M384.18 135.04C384.22 135.7 384.26 136.35 384.31 136.99C384.33 137.63 384.3 138.24 384.28 138.85C384.24 140.07 384.17 141.24 384.07 142.36C383.89 144.6 383.63 146.61 383.35 148.28C382.61 151.55 381.93 153.53 381.93 153.53C381.93 153.53 379.68 150.39 376.99 145.48C375.53 142.98 373.93 140.04 372.42 136.84C371.66 135.24 370.96 133.59 370.24 131.86C369.47 130.11 368.74 128.32 368.1 126.49C367.49 124.75 366.99 123.07 366.57 121.44C366.8 123.22 367.13 125.11 367.58 127.09C367.8 128.08 368.05 129.1 368.34 130.13C368.49 130.65 368.64 131.17 368.79 131.7C368.93 132.22 369.06 132.74 369.2 133.26C370.23 136.99 371.61 140.62 373.06 143.96C374.36 147.24 375.77 150.26 377.06 152.83C378.35 155.4 379.55 157.53 380.4 159C381.21 160.44 381.73 161.25 381.73 161.25C381.73 161.25 381.8 161.07 381.94 160.72C382.07 160.37 382.29 159.87 382.46 159.18C382.84 157.82 383.35 155.86 383.82 153.46C384.06 152.26 384.29 150.95 384.49 149.56C384.7 148.17 384.72 146.63 384.78 145.06C384.82 143.49 384.81 141.85 384.74 140.18C384.7 139.34 384.65 138.5 384.57 137.65C384.5 136.8 384.33 135.91 384.18 135.04Z" fill="#3EA34C"/>
<path d="M400.71 41.16C400.23 44.88 400.14 48.08 400.16 50.37C400.2 51.51 400.16 52.4401 400.17 53.07C400.18 53.71 400.19 54.05 400.19 54.05C400.19 54.05 400.73 53.6201 401.61 52.7901C402.5 51.9501 403.73 50.71 405 49.07C406.29 47.43 407.71 45.38 409.05 42.92C410.36 40.47 411.75 37.5801 412.5 34.4001C412.96 32.6201 413.3 30.83 413.55 29.05C413.37 32.73 413.02 36.73 411.65 40.71C410.64 43.87 409.35 46.64 407.99 49.0201C406.64 51.39 405.01 53.4 403.66 54.98C400.89 58.15 398.72 59.75 398.72 59.75C398.72 59.75 398.62 57.6 398.9 54.21C398.98 53.36 399.08 52.43 399.17 51.44C399.24 50.46 399.33 49.4101 399.46 48.3101C399.72 46.1201 400.11 43.7 400.71 41.16Z" fill="#3EA34C"/>
<path d="M406.09 69.08C405.52 71.13 405.19 73.04 404.76 74.78C404.34 76.52 404.03 78.07 403.81 79.36C403.36 81.95 403.24 83.54 403.24 83.54C403.24 83.54 405.85 82.09 409.33 78.95C411.06 77.38 413.05 75.37 414.96 72.9C416.78 70.44 418.58 67.5 420.12 64.09C420.72 62.76 421.29 61.4 421.73 60.04C420.87 63.96 419.53 68.19 417.63 72.17C416 75.46 413.95 78.27 412.01 80.62C410.01 82.97 408.15 84.86 406.27 86.34C402.6 89.28 399.91 90.6 399.91 90.6C399.91 90.6 400 89.95 400.23 88.8C400.43 87.66 400.89 86.02 401.31 84.04C401.74 82.06 402.34 79.73 403.17 77.19C403.57 75.92 404.08 74.6 404.54 73.24C405 71.89 405.51 70.5 406.09 69.08Z" fill="#3EA34C"/>
<path d="M405.99 102.72C404.92 104.9 404.12 106.98 403.29 108.84C402.45 110.7 401.77 112.38 401.24 113.79C400.18 116.61 399.71 118.38 399.71 118.38C399.71 118.38 402.86 117.37 407.31 114.67C409.53 113.32 412.11 111.53 414.72 109.21C417.22 106.88 419.79 104.01 422.17 100.56C422.69 99.81 423.18 99.06 423.66 98.29C424.11 97.52 424.51 96.74 424.92 95.96C424.2 97.99 423.16 100.06 422.04 102.11C420.91 104.16 419.66 106.19 418.26 108.12C417.11 109.78 415.74 111.27 414.41 112.63C413.07 113.99 411.73 115.21 410.42 116.3C407.78 118.48 405.29 120.15 402.93 121.36C398.31 123.8 395.1 124.65 395.1 124.65C395.1 124.65 395.33 123.97 395.8 122.79C396.26 121.61 397.02 119.94 397.95 117.92C398.81 115.88 399.91 113.5 401.3 110.92C401.97 109.63 402.81 108.31 403.53 106.92C404.27 105.55 405.09 104.14 405.99 102.72Z" fill="#3EA34C"/>
<path d="M398.79 139.98C398.38 140.54 397.97 141.1 397.57 141.64C397.15 142.18 396.74 142.71 396.33 143.23C395.53 144.27 394.78 145.28 394.09 146.24C392.71 148.17 391.56 149.92 390.64 151.41C388.59 154.3 387.54 156.16 387.54 156.16C387.54 156.16 391.33 155.91 397.06 154.09C399.81 153.13 403.03 151.76 406.48 149.79C408.19 148.8 410.01 147.68 411.76 146.37C413.46 145.04 415.19 143.54 416.89 141.86C418.51 140.27 420.03 138.58 421.47 136.85C420.08 138.88 418.56 140.92 416.92 142.91C416.1 143.9 415.24 144.88 414.35 145.83C413.9 146.3 413.45 146.77 413 147.24C412.51 147.69 412.01 148.14 411.51 148.58C407.9 151.7 404.28 154.11 400.87 155.92C397.3 157.67 393.99 158.84 391.17 159.63C388.35 160.42 386.03 160.83 384.38 161.04C382.7 161.23 381.74 161.24 381.74 161.24C381.74 161.24 381.85 161.08 382.06 160.77C382.27 160.46 382.62 160.03 382.98 159.43C383.74 158.26 384.88 156.6 386.38 154.63C387.13 153.65 387.97 152.58 388.9 151.47C389.84 150.35 390.71 149.11 391.75 147.87C392.77 146.62 393.88 145.32 395.07 144.01C395.67 143.35 396.29 142.69 396.93 142.03C397.54 141.36 398.16 140.67 398.79 139.98Z" fill="#3EA34C"/>
<path d="M393.581 37.5399C399.281 59.4999 400.501 82.5899 397.631 105.08C396.071 116.3 393.651 127.42 390.051 138.15C386.371 148.84 381.721 159.17 376.121 168.95L378.491 170.39C384.091 160.38 388.721 149.84 392.351 138.95C395.901 128.03 398.231 116.74 399.701 105.36C402.391 82.5799 400.911 59.2699 394.951 37.1799L393.581 37.5399Z" fill="#3EA34C"/>
<path d="M41.7205 162.92C41.7205 162.92 41.4205 162.89 40.8905 162.8C40.3805 162.7 39.5905 162.61 38.6805 162.42C36.8305 162.08 34.4905 161.31 31.9805 160.28C32.4805 160.62 33.0105 160.95 33.5605 161.26C34.9105 162.05 36.2405 162.74 37.5605 163.22C38.2105 163.47 38.8505 163.68 39.4705 163.86C40.0705 164.06 40.6305 164.25 41.1705 164.4C43.3005 165.01 44.8205 165.18 44.8205 165.18C44.8205 165.18 44.2305 163.8 42.9405 161.91C42.6105 161.44 42.2505 160.93 41.8305 160.41C41.4005 159.92 40.9105 159.41 40.3905 158.9C39.3305 157.9 38.1205 156.84 36.6805 155.99C36.0905 155.66 35.5005 155.37 34.9105 155.1C37.3305 156.65 38.9905 158.74 40.1205 160.24C40.6805 161.01 41.1005 161.64 41.3505 162.14C41.6005 162.63 41.7205 162.92 41.7205 162.92Z" fill="#3EA34C"/>
<path d="M44.1805 168.78C46.0705 169.33 47.6605 170.03 48.7705 170.6C49.3305 170.87 49.7405 171.15 50.0305 171.34C50.3105 171.54 50.4605 171.64 50.4605 171.64C50.4605 171.64 50.0705 171.8 49.3805 172.03C48.6905 172.26 47.7105 172.56 46.5005 172.91C45.2905 173.25 43.8805 173.59 42.3805 173.85C40.8605 174.13 39.2905 174.26 37.6105 174.38C36.6905 174.43 35.8105 174.42 34.9705 174.38C36.5805 174.7 38.5405 174.83 40.5905 174.89C42.2505 174.9 43.9005 174.75 45.4505 174.51C47.0005 174.27 48.3805 174.04 49.6005 173.75C52.0205 173.2 53.6305 172.6 53.6305 172.6C53.6305 172.6 52.6705 171.88 51.0205 171C50.6105 170.78 50.1605 170.55 49.6605 170.33C49.1505 170.13 48.6005 169.92 48.0205 169.73C46.8405 169.34 45.5505 169 44.1805 168.78Z" fill="#3EA34C"/>
<path d="M54.3902 179.33C55.4102 179.77 56.3902 180.21 57.1802 180.71C57.9702 181.21 58.6602 181.69 59.2202 182.11C60.3502 182.95 60.9702 183.54 60.9702 183.54C60.9702 183.54 59.1202 183.98 56.3902 184.29C55.0202 184.45 53.4602 184.56 51.7702 184.61C50.0502 184.68 48.2302 184.66 46.4402 184.47C45.7302 184.4 45.0702 184.28 44.4102 184.17C46.0702 184.76 48.0202 185.3 50.2702 185.6C52.1002 185.87 53.8702 186.03 55.6002 186.05C57.3002 186.09 58.9702 185.98 60.3102 185.91C63.0402 185.75 64.9002 185.4 64.9002 185.4C64.9002 185.4 64.6502 185.13 64.1802 184.69C63.7002 184.26 63.0402 183.62 62.1102 182.98C61.1802 182.34 60.0502 181.64 58.7602 180.98C58.1102 180.66 57.4502 180.32 56.7102 180.05C55.9702 179.77 55.1902 179.53 54.3902 179.33Z" fill="#3EA34C"/>
<path d="M64.7396 193.02C65.8096 193.71 66.8196 194.4 67.6196 195.11C68.4196 195.82 69.0996 196.5 69.6496 197.09C70.7496 198.26 71.3396 199.06 71.3396 199.06C71.3396 199.06 69.2096 199.17 66.1596 198.98C64.6296 198.89 62.8896 198.71 61.0396 198.44C59.1396 198.19 57.1596 197.83 55.2496 197.29C54.8396 197.17 54.4296 197.05 54.0396 196.92C53.6396 196.79 53.2396 196.67 52.8496 196.55C53.7296 196.96 54.6096 197.43 55.5896 197.85C56.5696 198.28 57.6396 198.68 58.7896 199.04C59.7896 199.33 60.7296 199.63 61.6896 199.88C62.6496 200.13 63.5996 200.33 64.5396 200.51C66.4096 200.87 68.2296 201.08 69.7196 201.28C72.7496 201.64 74.8696 201.63 74.8696 201.63C74.8696 201.63 74.0196 200.28 72.3596 198.48C70.5696 196.73 68.1196 194.49 64.7396 193.02Z" fill="#3EA34C"/>
<path d="M73.2895 210.21C74.4295 211.2 75.2595 212.27 76.0495 213.25C76.8195 214.24 77.4695 215.16 77.9795 215.96C78.8995 217.58 79.3395 218.65 79.3395 218.65C79.3395 218.65 76.9795 218.24 73.6995 217.3C71.9995 216.85 70.0595 216.28 68.0695 215.57C67.0695 215.22 66.0795 214.83 65.0595 214.41C64.0095 214 62.9695 213.56 61.9495 213.07C60.9895 212.61 60.0995 212.12 59.2695 211.63C60.0595 212.26 60.9395 212.89 61.9095 213.52C62.3995 213.83 62.9095 214.15 63.4395 214.45C63.9795 214.75 64.5295 215.06 65.0595 215.38C67.0095 216.49 69.1095 217.41 71.1295 218.21C73.0695 219.03 74.9595 219.71 76.6195 220.26C78.2795 220.81 79.7195 221.21 80.7195 221.48C81.6995 221.76 82.2795 221.88 82.2795 221.88C82.2795 221.88 82.2395 221.78 82.1695 221.58C82.0895 221.39 81.9995 221.1 81.8195 220.75C81.4695 220.04 80.9495 219.05 80.2395 217.88C79.8895 217.3 79.4895 216.67 79.0395 216.03C78.5995 215.38 78.0195 214.74 77.4395 214.07C76.8495 213.41 76.2095 212.74 75.5295 212.09C74.8595 211.44 74.1295 210.8 73.2895 210.21Z" fill="#3EA34C"/>
<path d="M48.3301 163.54C49.3401 165.39 50.3701 166.86 51.1501 167.87C51.5501 168.36 51.8501 168.79 52.0701 169.06C52.2901 169.33 52.4101 169.48 52.4101 169.48C52.4101 169.48 52.5301 169.07 52.6901 168.34C52.8501 167.6 53.0301 166.55 53.1101 165.29C53.2001 164.02 53.2101 162.52 53.0401 160.87C52.8601 159.23 52.5601 157.38 51.8801 155.61C51.5101 154.62 51.0801 153.66 50.6101 152.75C51.7501 154.49 52.9101 156.46 53.5801 158.8C54.1401 160.63 54.4401 162.4 54.5701 164.03C54.7001 165.65 54.5801 167.2 54.4501 168.46C54.1601 171 53.6201 172.6 53.6201 172.6C53.6201 172.6 52.8401 171.7 51.8301 170.09C51.5801 169.68 51.3201 169.24 51.0301 168.76C50.7301 168.3 50.4301 167.79 50.1201 167.25C49.5001 166.16 48.8901 164.92 48.3301 163.54Z" fill="#3EA34C"/>
<path d="M60.4805 173.61C60.9005 174.73 61.3905 175.71 61.7805 176.63C62.1805 177.55 62.5605 178.34 62.9005 178.99C63.5805 180.29 64.0705 181.02 64.0705 181.02C64.0705 181.02 64.8705 179.33 65.5105 176.55C65.8305 175.16 66.1205 173.48 66.2105 171.63C66.2705 169.81 66.1505 167.78 65.7305 165.66C65.5605 164.83 65.3805 164 65.1305 163.22C66.0605 165.3 66.8605 167.69 67.2905 170.21C67.6205 172.31 67.5905 174.36 67.4405 176.17C67.2705 178 66.9905 179.59 66.5705 180.98C65.7805 183.73 64.8905 185.39 64.8905 185.39C64.8905 185.39 64.7005 185.08 64.4105 184.5C64.1105 183.93 63.7505 183.06 63.2705 182.03C62.8005 181 62.2805 179.76 61.8105 178.33C61.5705 177.62 61.3605 176.84 61.1205 176.06C60.9005 175.28 60.6805 174.47 60.4805 173.61Z" fill="#3EA34C"/>
<path d="M72.3008 188.05C72.5508 189.4 72.8908 190.61 73.1508 191.72C73.4108 192.84 73.6808 193.81 73.9408 194.62C74.4408 196.23 74.8508 197.15 74.8508 197.15C74.8508 197.15 76.0708 195.46 77.3208 192.54C77.9408 191.08 78.5808 189.29 79.0508 187.26C79.4608 185.26 79.7208 183 79.6608 180.56C79.6508 180.03 79.6208 179.51 79.5808 178.99C79.5308 178.48 79.4608 177.98 79.3808 177.48C79.7408 178.65 79.9708 179.95 80.1508 181.28C80.3308 182.61 80.4308 183.98 80.4308 185.37C80.4508 186.54 80.3108 187.72 80.1408 188.83C79.9708 189.94 79.7408 190.99 79.4808 191.98C78.9508 193.96 78.3008 195.66 77.5708 197.11C76.1608 199.97 74.8508 201.6 74.8508 201.6C74.8508 201.6 74.3108 200.11 73.7808 197.67C73.1308 195.29 72.6208 191.86 72.3008 188.05Z" fill="#3EA34C"/>
<path d="M82.5309 206.47C82.5709 208.05 82.5109 209.58 82.5809 210.91C82.6309 212.25 82.7409 213.42 82.8509 214.39C82.9709 216.37 83.1709 217.55 83.1709 217.55C83.1709 217.55 84.9609 215.97 87.1109 212.98C88.1209 211.5 89.2009 209.67 90.1709 207.49C90.6509 206.41 91.1209 205.23 91.4909 203.98C91.8409 202.75 92.1309 201.44 92.3509 200.07C92.5509 198.76 92.6809 197.45 92.7409 196.16C92.8209 197.56 92.8309 199.02 92.7609 200.5C92.7209 201.24 92.6709 201.99 92.5909 202.74C92.5209 203.48 92.4009 204.24 92.2209 205.01C91.6309 207.73 90.7409 210.15 89.7309 212.24C88.6409 214.36 87.4509 216.13 86.3509 217.56C85.2509 218.98 84.2509 220.05 83.5109 220.78C82.7509 221.51 82.2809 221.89 82.2809 221.89C82.2809 221.89 82.2409 221.45 82.1809 220.67C82.1009 219.89 82.0109 218.77 81.9909 217.38C81.9809 216.68 81.9809 215.92 82.0009 215.1C82.0309 214.28 81.9909 213.42 82.0309 212.5C82.0609 211.58 82.1109 210.62 82.2009 209.61C82.3109 208.59 82.4209 207.55 82.5309 206.47Z" fill="#3EA34C"/>
<path d="M43.6211 164.86C63.6811 179.93 78.0811 202.52 82.5911 227.18L84.3511 226.85C79.4711 201.77 64.5911 179.09 44.1711 164.12L43.6211 164.86Z" fill="#3EA34C"/>
<path d="M322.37 198.59C293.61 182.15 258.53 172.49 220.66 172.49C165.06 172.49 115.47 193.32 83.08 225.86C78.93 225.29 74.66 224.98 70.31 224.98C38.28 224.97 10.92 241.16 0 264H140.61H385.5H448V153.97C447.16 153.96 446.33 153.95 445.49 153.95C398.09 153.95 354.91 170.85 322.37 198.59Z" fill="#46B755"/>
<path d="M173.62 75.4399C173.86 76.9799 175.16 78.0399 177.08 78.6999C183.12 80.7499 195.34 78.7399 199.95 74.7999C201.26 73.6899 201.95 72.4299 201.74 71.0499C200.52 63.2899 191.37 45.9199 183.6 47.1299C175.84 48.3399 172.41 67.6699 173.62 75.4399Z" fill="#3F8CFF"/>
<path d="M177.08 78.6998C183.12 80.7498 195.34 78.7398 199.95 74.7998C198.72 68.2898 191.43 54.7398 185.24 55.7098C178.94 56.6798 176.14 72.2998 177.08 78.6998Z" fill="#0C6ED6"/>
<path d="M230.749 95.14C229.519 95.99 227.919 95.78 226.209 94.88C220.799 92.03 214.169 82.2 213.869 76.4C213.779 74.76 214.199 73.44 215.299 72.69C221.499 68.42 239.609 63.37 243.879 69.56C248.139 75.77 236.949 90.88 230.749 95.14Z" fill="#3F8CFF"/>
<path d="M226.209 94.8898C220.799 92.0398 214.169 82.2098 213.869 76.4098C219.209 72.9698 233.429 69.1298 236.839 74.0798C240.299 79.0998 231.279 91.3298 226.209 94.8898Z" fill="#86BCFC"/>
<path d="M262.36 196.14C261.96 196.14 261.55 196.13 261.14 196.12C257.16 196 254.02 192.68 254.14 188.69C254.26 184.71 257.59 181.55 261.57 181.69C268.69 181.9 274.39 179.33 276.45 174.99C279.45 168.66 275.24 157.98 265.19 146.44C251.26 130.43 260.37 113.77 267.13 107.19C269.99 104.41 274.56 104.48 277.34 107.34C280.12 110.2 280.05 114.77 277.19 117.55C275.62 119.13 267.99 127.66 276.08 136.96C295.44 159.21 292.79 174.21 289.49 181.17C285.09 190.46 274.76 196.14 262.36 196.14Z" fill="#0C6ED6"/>
<path d="M264.9 180.9C264.18 196.08 251.3 203.54 235.82 206.15C220.3 208.79 202.17 206.53 191.1 202.29C182.71 199.07 176.32 191.97 171.54 183.2C165.35 171.87 161.38 157.81 160.17 145.65C159.67 140.69 159.52 135.84 159.65 131.16C159.89 121.45 161.29 112.46 163.16 104.69C166.54 90.5899 171.45 80.4899 173.75 77.3699C183.72 63.9099 195.3 62.8499 207.54 65.8499C214.38 67.5299 219.26 70.1199 222.69 73.2599C223.09 73.6199 223.47 73.9999 223.83 74.3799C227.49 78.2399 229.16 82.7899 229.67 87.4499C230.6 96.0799 227.49 105.05 225.42 110.52C224.85 112.02 224.55 113.52 224.55 114.96C224.56 117.82 225.81 120.38 228.61 121.97C228.64 121.98 228.67 122 228.7 122.02C234.5 125.31 243.09 127.53 250.45 133.73C259.16 141.09 266.18 154.01 264.9 180.9Z" fill="#3F8CFF"/>
<path d="M235.82 206.16C220.3 208.79 202.17 206.54 191.1 202.3C182.71 199.08 176.32 191.98 171.54 183.21C163.83 147.66 174.39 125.18 190.34 127.12C206.69 129.11 224.72 156 231.14 174.49C235.24 186.3 236.28 198.68 235.82 206.16Z" fill="#86BCFC"/>
<path d="M250.43 133.75C243 142.95 231.92 134.78 228.68 122.04C234.49 125.34 243.07 127.55 250.43 133.75Z" fill="#0C6ED6"/>
<path d="M225.4 110.54C224.83 112.04 224.53 113.54 224.53 114.98C214.84 114.06 200.6 107.59 200.34 100.19C200.04 91.8298 208.01 82.1598 222.67 73.2798C223.07 73.6398 223.45 74.0198 223.81 74.3998C227.47 78.2598 229.14 82.8098 229.65 87.4698C230.58 96.0998 227.47 105.07 225.4 110.54Z" fill="#0C6ED6"/>
<path d="M213.6 206.75C213.6 209.78 207.55 211.26 201.67 211.17C201.28 211.17 200.88 211.16 200.5 211.14C199.6 211.09 198.69 211.01 197.84 210.89L196.68 210.7C195.79 210.53 194.95 210.32 194.2 210.05C193.74 209.89 193.32 209.71 192.94 209.52C191.55 208.82 190.68 207.91 190.68 206.76C190.68 206.49 190.69 206.23 190.71 205.96C191.15 200.43 196.09 196.07 202.14 196.07C208.18 196.07 213.12 200.44 213.56 205.96C213.59 206.21 213.6 206.48 213.6 206.75Z" fill="#86BCFC"/>
<path d="M190.69 205.56C190.69 211.47 213.61 211.47 213.61 205.56C213.61 199.65 208.48 194.86 202.15 194.86C195.82 194.86 190.69 199.65 190.69 205.56Z" fill="#0C6ED6"/>
<path d="M208.81 206.78L201.59 194.28L201.5 194.34C202.13 193.95 216.78 184.46 211.33 155.43C210.59 151.51 213.18 147.74 217.09 147C221.01 146.26 224.78 148.85 225.51 152.76C232.94 192.32 209.8 206.21 208.81 206.78Z" fill="#0C6ED6"/>
<path d="M196.109 206.09C196.089 206.8 196.059 207.49 196.009 208.19C195.999 208.33 195.989 208.47 195.979 208.61C195.949 208.99 195.919 209.38 195.889 209.77C195.429 209.61 195.009 209.43 194.629 209.24C194.609 208.87 194.609 208.49 194.639 208.12C194.639 208.11 194.639 208.09 194.649 208.07C194.709 207.34 194.839 206.63 195.059 205.93C195.289 205.22 195.589 204.54 196.049 203.91C196.129 204.66 196.109 205.38 196.109 206.09Z" fill="#183B59"/>
<path d="M198.359 210.41C198.299 210.01 198.279 209.61 198.279 209.22C198.279 209.01 198.289 208.79 198.299 208.57C198.359 207.83 198.489 207.09 198.709 206.38C198.939 205.67 199.239 204.99 199.699 204.36C199.799 205.13 199.779 205.85 199.779 206.57C199.759 207.28 199.729 207.97 199.679 208.67C199.669 208.93 199.649 209.19 199.619 209.46C199.589 209.84 199.559 210.24 199.529 210.63L198.359 210.41Z" fill="#183B59"/>
<path d="M203.599 207.01C203.569 207.72 203.539 208.42 203.499 209.11C203.489 209.31 203.469 209.5 203.459 209.7C203.429 210.09 203.399 210.49 203.369 210.88C202.979 210.88 202.579 210.87 202.199 210.85C202.139 210.46 202.119 210.06 202.119 209.66C202.119 209.44 202.129 209.23 202.139 209.01C202.199 208.27 202.329 207.53 202.549 206.82C202.779 206.11 203.079 205.43 203.539 204.8C203.619 205.58 203.599 206.29 203.599 207.01Z" fill="#183B59"/>
<path d="M238.799 205.99C235.819 205.99 233.029 204.13 231.989 201.17C230.469 196.83 223.309 174.6 231.969 162.9C234.409 159.61 239.079 155.75 247.479 156.1C253.909 156.37 259.139 159.58 262.199 165.15C267.209 174.28 265.219 188.38 260.379 196.74C258.379 200.19 253.969 201.37 250.519 199.37C247.069 197.37 245.889 192.96 247.889 189.51C250.799 184.48 251.619 175.86 249.549 172.1C249.019 171.13 248.429 170.59 246.879 170.53C244.369 170.42 243.809 171.17 243.579 171.49C240.629 175.46 242.869 188.5 245.619 196.39C246.929 200.15 244.949 204.27 241.189 205.59C240.389 205.86 239.589 205.99 238.799 205.99Z" fill="#0C6ED6"/>
<path d="M246.539 203.27C247.159 206.23 241.449 208.9 235.679 209.97C235.349 210.03 235.02 210.08 234.69 210.13C233.72 210.27 232.77 210.37 231.85 210.42L230.85 210.45C229.87 210.46 228.939 210.4 228.119 210.26C227.669 210.18 227.25 210.08 226.86 209.95C225.6 209.54 224.749 208.86 224.539 207.86C224.479 207.6 224.45 207.34 224.41 207.09C224.41 207.09 224.41 207.09 224.41 207.08C223.73 201.69 227.6 196.51 233.39 195.3C239.18 194.09 244.799 197.29 246.34 202.5C246.34 202.51 246.34 202.51 246.34 202.51C246.42 202.76 246.479 203.01 246.539 203.27Z" fill="#86BCFC"/>
<path d="M246.3 202.14C247.48 207.81 225.5 212.4 224.31 206.73C223.13 201.06 227.09 195.44 233.16 194.17C239.23 192.9 245.11 196.47 246.3 202.14Z" fill="#0C6ED6"/>
<path d="M227.539 206.13C227.669 206.83 227.779 207.52 227.869 208.2C227.909 208.51 227.959 208.82 227.999 209.13C228.049 209.51 228.099 209.88 228.139 210.25C227.689 210.17 227.269 210.07 226.879 209.94C226.749 209.56 226.659 209.18 226.589 208.78C226.559 208.65 226.539 208.51 226.519 208.38C226.419 207.64 226.399 206.9 226.479 206.16C226.559 205.42 226.709 204.68 227.029 203.98C227.269 204.72 227.399 205.43 227.539 206.13Z" fill="#183B59"/>
<path d="M230.859 210.45C230.829 210.39 230.799 210.32 230.769 210.26C230.639 209.95 230.529 209.64 230.439 209.32C230.329 208.92 230.249 208.51 230.179 208.1C230.079 207.36 230.059 206.62 230.139 205.87C230.219 205.13 230.369 204.39 230.689 203.69C230.949 204.43 231.069 205.13 231.219 205.83C231.349 206.53 231.459 207.21 231.549 207.9C231.619 208.36 231.679 208.82 231.729 209.28C231.779 209.66 231.819 210.04 231.859 210.42L230.859 210.45Z" fill="#183B59"/>
<path d="M235.05 205.5C235.18 206.2 235.29 206.89 235.38 207.58C235.44 207.99 235.49 208.4 235.54 208.81C235.58 209.19 235.63 209.58 235.67 209.98C235.34 210.04 235.01 210.09 234.68 210.14C234.64 210.07 234.62 210 234.59 209.93C234.47 209.63 234.36 209.33 234.28 209.02C234.17 208.61 234.08 208.19 234.02 207.77C233.92 207.03 233.89 206.29 233.98 205.55C234.06 204.81 234.21 204.07 234.53 203.37C234.79 204.09 234.91 204.8 235.05 205.5Z" fill="#183B59"/>
<path d="M163.961 127.43C162.741 129.02 161.251 130.24 159.641 131.17C159.881 121.46 161.281 112.47 163.151 104.7C167.981 112.6 168.901 121 163.961 127.43Z" fill="#0C6ED6"/>
<path d="M169.88 200.46C167.17 200.46 164.57 198.93 163.34 196.31C161.64 192.7 163.19 188.4 166.8 186.7C166.91 186.65 180.33 179.93 179.54 170.55C179.02 164.39 173.94 157.49 166.61 152.98C163.21 150.89 162.16 146.45 164.24 143.05C166.33 139.65 170.77 138.6 174.17 140.68C185.45 147.62 193.02 158.6 193.93 169.33C195.58 188.87 173.88 199.32 172.95 199.75C171.96 200.24 170.91 200.46 169.88 200.46Z" fill="#0C6ED6"/>
<path d="M163.13 190.51C158.56 194.25 173.05 212 177.62 208.26C182.19 204.52 182.66 197.52 178.66 192.62C174.66 187.72 167.71 186.78 163.13 190.51Z" fill="#86BCFC"/>
<path d="M164.04 189.77C159.47 193.51 173.96 211.26 178.53 207.52C183.1 203.78 183.57 196.78 179.57 191.88C175.58 186.97 168.62 186.03 164.04 189.77Z" fill="#0C6ED6"/>
<path d="M173.82 208.17C174.1 207.9 174.37 207.64 174.66 207.37C174.77 207.26 174.89 207.14 175.01 207.04C175.51 206.56 176.04 206.09 176.57 205.63C177.12 205.18 177.66 204.71 178.32 204.3C178.13 205.05 177.78 205.71 177.38 206.34C177.01 206.92 176.56 207.44 176.07 207.91C176.03 207.96 175.99 207.99 175.94 208.04C175.7 208.27 175.45 208.47 175.19 208.67L173.82 208.17Z" fill="#183B59"/>
<path d="M170.699 206.06C170.979 205.78 171.259 205.51 171.539 205.24C171.799 204.99 172.059 204.74 172.329 204.49C172.829 204.01 173.349 203.55 173.889 203.08C174.439 202.62 174.979 202.16 175.639 201.75C175.449 202.5 175.099 203.16 174.699 203.79C174.299 204.41 173.809 204.98 173.269 205.49C173.049 205.7 172.819 205.89 172.579 206.07C172.259 206.32 171.919 206.55 171.559 206.75L170.699 206.06Z" fill="#183B59"/>
<path d="M167.949 203.37C168.229 203.09 168.519 202.82 168.799 202.54C169.049 202.29 169.299 202.06 169.549 201.82C170.049 201.34 170.569 200.88 171.109 200.41C171.659 199.95 172.199 199.49 172.869 199.07C172.679 199.82 172.339 200.49 171.929 201.12C171.519 201.75 171.029 202.31 170.489 202.83C170.239 203.06 169.959 203.28 169.689 203.5C169.369 203.74 169.039 203.95 168.679 204.15C168.669 204.16 168.669 204.16 168.669 204.16L167.949 203.37Z" fill="#183B59"/>
<path d="M213.03 108.35C218.62 108.35 223.15 103.82 223.15 98.2299C223.15 92.6399 218.62 88.1099 213.03 88.1099C207.44 88.1099 202.91 92.6399 202.91 98.2299C202.91 103.82 207.44 108.35 213.03 108.35Z" fill="#3F8CFF"/>
<path d="M226.379 87.68C226.879 86.32 224.349 84.15 220.739 82.83C217.129 81.51 213.789 81.54 213.299 82.9C212.799 84.26 215.329 86.43 218.939 87.75C222.549 89.07 225.889 89.04 226.379 87.68Z" fill="#86BCFC"/>
<path d="M186.95 98.8198C192.54 98.8198 197.07 94.2898 197.07 88.6998C197.07 83.1098 192.54 78.5798 186.95 78.5798C181.36 78.5798 176.83 83.1098 176.83 88.6998C176.83 94.2898 181.36 98.8198 186.95 98.8198Z" fill="#0C6ED6"/>
<path d="M186.749 96.5899C191.149 96.5899 194.719 93.0199 194.719 88.6199C194.719 84.2199 191.149 80.6499 186.749 80.6499C182.349 80.6499 178.779 84.2199 178.779 88.6199C178.779 93.0199 182.349 96.5899 186.749 96.5899Z" fill="#3F8CFF"/>
<path d="M196.661 76.8101C197.161 75.4501 194.631 73.2801 191.021 71.9601C187.411 70.6401 184.071 70.6701 183.581 72.0301C183.081 73.3901 185.611 75.5601 189.221 76.8801C192.831 78.2001 196.161 78.1701 196.661 76.8101Z" fill="#86BCFC"/>
<path d="M199.849 105.74C200.609 103.66 199.599 101.38 197.589 100.65C195.579 99.92 193.339 101.01 192.579 103.08C191.819 105.16 192.829 107.44 194.839 108.17C196.849 108.91 199.089 107.82 199.849 105.74Z" fill="#183B59"/>
<path d="M203.14 113.38C202.81 113.68 202.35 113.88 201.88 113.9C201.4 113.93 200.93 113.81 200.49 113.65C199.62 113.3 198.86 112.76 198.17 112.16C197.47 111.57 196.87 110.89 196.29 110.21C195.72 109.51 195.19 108.8 194.69 108.02L195.41 108.27C194.57 108.56 193.75 108.78 192.9 108.94C192.05 109.08 191.19 109.19 190.32 109.15C189.45 109.13 188.57 109.01 187.75 108.7C186.93 108.4 186.17 107.9 185.67 107.21C186.35 107.71 187.11 108.01 187.91 108.14C188.7 108.28 189.5 108.28 190.3 108.22C191.1 108.14 191.9 108.02 192.68 107.82C193.46 107.64 194.26 107.42 194.99 107.14L195.45 106.96L195.71 107.37C196.16 108.08 196.66 108.8 197.19 109.48C197.7 110.18 198.26 110.83 198.84 111.46C199.43 112.08 200.05 112.67 200.76 113.09C201.44 113.54 202.31 113.78 203.14 113.38Z" fill="#183B59"/>
<path d="M213.91 111.86C213.86 111.86 213.81 111.85 213.77 111.82C213.72 111.79 208.89 109.11 203.46 108.58C203.3 108.56 203.17 108.42 203.19 108.25C203.21 108.09 203.35 107.97 203.52 107.98C209.08 108.52 214.01 111.27 214.06 111.3C214.2 111.38 214.25 111.56 214.17 111.71C214.11 111.8 214.01 111.86 213.91 111.86Z" fill="#86BCFC"/>
<path d="M211.609 118.34C211.519 118.34 211.439 118.3 211.379 118.23C211.339 118.19 207.809 113.94 202.929 111.5C202.779 111.42 202.719 111.24 202.799 111.1C202.879 110.95 203.059 110.89 203.199 110.97C208.189 113.48 211.809 117.82 211.839 117.86C211.949 117.99 211.929 118.17 211.799 118.28C211.739 118.33 211.679 118.34 211.609 118.34Z" fill="#86BCFC"/>
<path d="M213.729 115.85C213.639 115.85 213.549 115.81 213.499 115.74C210.509 112.06 203.119 110.17 203.049 110.15C202.889 110.11 202.789 109.95 202.829 109.79C202.869 109.63 203.029 109.53 203.189 109.57C203.499 109.65 210.839 111.54 213.959 115.36C214.069 115.49 214.049 115.68 213.919 115.78C213.859 115.82 213.789 115.85 213.729 115.85Z" fill="#86BCFC"/>
<path d="M187.77 102.83C187.71 102.83 187.65 102.81 187.6 102.78C183.11 99.6798 177.69 98.6098 177.63 98.6098C177.47 98.5798 177.36 98.4198 177.39 98.2598C177.42 98.0998 177.58 97.9898 177.74 98.0198C177.8 98.0298 183.34 99.1098 187.94 102.29C188.08 102.38 188.11 102.57 188.02 102.71C187.96 102.79 187.87 102.83 187.77 102.83Z" fill="#86BCFC"/>
<path d="M186.18 105.36C186.15 105.36 186.14 105.36 186.11 105.35C180.81 104.07 175.36 105.04 175.31 105.05C175.15 105.08 174.99 104.97 174.96 104.8C174.93 104.64 175.04 104.48 175.2 104.45C175.26 104.44 180.82 103.46 186.25 104.76C186.41 104.8 186.51 104.96 186.47 105.12C186.44 105.26 186.31 105.36 186.18 105.36Z" fill="#86BCFC"/>
<path d="M187.03 104.27C186.99 104.27 186.94 104.26 186.9 104.24C186.83 104.21 179.96 100.89 175.31 101.77C175.15 101.8 174.99 101.69 174.96 101.53C174.93 101.37 175.04 101.21 175.2 101.18C180.06 100.26 186.88 103.56 187.17 103.7C187.32 103.78 187.38 103.95 187.31 104.1C187.25 104.21 187.14 104.27 187.03 104.27Z" fill="#86BCFC"/>
<path d="M212.779 76.35C212.719 76.35 212.649 76.33 212.599 76.3C212.439 76.2 212.389 75.99 212.489 75.83C215.809 70.42 223.129 64.47 223.199 64.41C223.339 64.29 223.559 64.32 223.679 64.46C223.799 64.6 223.769 64.82 223.629 64.94C223.549 65 216.329 70.88 213.069 76.19C213.009 76.3 212.889 76.35 212.779 76.35Z" fill="#86BCFC"/>
<path d="M214.209 77.51C214.149 77.51 214.079 77.49 214.019 77.45C213.859 77.34 213.819 77.14 213.929 76.98C214.039 76.82 216.609 72.99 221.309 71.03C221.489 70.95 221.689 71.04 221.759 71.21C221.839 71.39 221.749 71.59 221.579 71.66C217.079 73.54 214.539 77.32 214.509 77.36C214.429 77.46 214.319 77.51 214.209 77.51Z" fill="#86BCFC"/>
<path d="M200.29 72.0699C200.26 72.0699 200.22 72.0599 200.19 72.0599C200.01 71.9999 199.91 71.8099 199.96 71.6299C201.81 65.6799 201.47 56.3699 201.46 56.2799C201.45 56.0899 201.6 55.9299 201.79 55.9299C201.98 55.9099 202.14 56.0699 202.15 56.2599C202.16 56.3499 202.5 65.7799 200.62 71.8399C200.56 71.9699 200.43 72.0699 200.29 72.0699Z" fill="#86BCFC"/>
<path d="M198.47 71.7498C198.44 71.7498 198.41 71.7398 198.38 71.7398C198.2 71.6898 198.09 71.4998 198.14 71.3198C198.15 71.2798 199.31 66.8698 197.77 62.2498C197.71 62.0698 197.81 61.8798 197.98 61.8198C198.16 61.7598 198.35 61.8598 198.41 62.0298C200.02 66.8498 198.84 71.3098 198.79 71.4998C198.76 71.6498 198.62 71.7498 198.47 71.7498Z" fill="#86BCFC"/>
<path d="M191.549 93.5699C191.289 92.0699 191.029 90.6899 190.519 89.4399C189.969 88.2099 189.199 87.1399 188.199 86.3599C187.209 85.5699 185.979 85.0799 184.689 84.9799C183.399 84.8899 182.039 85.1699 180.779 86.0099C181.479 84.6499 183.039 83.7399 184.659 83.5899C186.289 83.3999 187.999 83.9199 189.299 84.9499C190.609 85.9699 191.499 87.4699 191.839 89.0099C192.179 90.5799 192.019 92.1499 191.549 93.5699Z" fill="#183B59"/>
<path d="M206.25 98.07C207 96.78 208.07 95.61 209.46 94.83C210.85 94.06 212.56 93.73 214.19 94.03C215.82 94.31 217.35 95.24 218.29 96.59C219.26 97.9 219.61 99.67 219.06 101.1C218.85 99.6 218.16 98.4 217.23 97.49C216.29 96.59 215.12 96 213.87 95.78C212.62 95.55 211.32 95.69 210.03 96.09C208.75 96.54 207.54 97.27 206.25 98.07Z" fill="#183B59"/>
</g>
<defs>
<clipPath id="clip0_1_2188">
<rect width="448" height="264" fill="white"/>
</clipPath>
</defs>
</svg>
