<svg width="20" height="20" viewBox="0 0 20 20" fill="none" xmlns="http://www.w3.org/2000/svg">
<path d="M7.08366 8.33333C6.75402 8.33333 6.43179 8.43108 6.15771 8.61422C5.88363 8.79735 5.67001 9.05765 5.54386 9.3622C5.41771 9.66674 5.38471 10.0019 5.44902 10.3252C5.51333 10.6485 5.67206 10.9454 5.90515 11.1785C6.13824 11.4116 6.43521 11.5703 6.75851 11.6346C7.08181 11.699 7.41692 11.6659 7.72147 11.5398C8.02601 11.4137 8.28631 11.2 8.46944 10.926C8.65258 10.6519 8.75033 10.3296 8.75033 10C8.75033 9.55797 8.57473 9.13405 8.26217 8.82149C7.94961 8.50893 7.52569 8.33333 7.08366 8.33333ZM7.08366 14.1667C6.75402 14.1667 6.43179 14.2644 6.15771 14.4476C5.88363 14.6307 5.67001 14.891 5.54386 15.1955C5.41771 15.5001 5.38471 15.8352 5.44902 16.1585C5.51333 16.4818 5.67206 16.7788 5.90515 17.0118C6.13824 17.2449 6.43521 17.4037 6.75851 17.468C7.08181 17.5323 7.41692 17.4993 7.72147 17.3731C8.02601 17.247 8.28631 17.0334 8.46944 16.7593C8.65258 16.4852 8.75033 16.163 8.75033 15.8333C8.75033 15.3913 8.57473 14.9674 8.26217 14.6548C7.94961 14.3423 7.52569 14.1667 7.08366 14.1667ZM12.917 5.83333C13.2466 5.83333 13.5689 5.73559 13.8429 5.55245C14.117 5.36931 14.3306 5.10902 14.4568 4.80447C14.5829 4.49993 14.6159 4.16482 14.5516 3.84152C14.4873 3.51822 14.3286 3.22124 14.0955 2.98816C13.8624 2.75507 13.5654 2.59633 13.2421 2.53203C12.9188 2.46772 12.5837 2.50072 12.2792 2.62687C11.9746 2.75301 11.7143 2.96664 11.5312 3.24072C11.3481 3.5148 11.2503 3.83703 11.2503 4.16667C11.2503 4.6087 11.4259 5.03262 11.7385 5.34518C12.051 5.65774 12.475 5.83333 12.917 5.83333ZM7.08366 2.5C6.75402 2.5 6.43179 2.59775 6.15771 2.78088C5.88363 2.96402 5.67001 3.22432 5.54386 3.52886C5.41771 3.83341 5.38471 4.16852 5.44902 4.49182C5.51333 4.81512 5.67206 5.11209 5.90515 5.34518C6.13824 5.57827 6.43521 5.737 6.75851 5.80131C7.08181 5.86562 7.41692 5.83261 7.72147 5.70647C8.02601 5.58032 8.28631 5.3667 8.46944 5.09262C8.65258 4.81854 8.75033 4.4963 8.75033 4.16667C8.75033 3.72464 8.57473 3.30072 8.26217 2.98816C7.94961 2.6756 7.52569 2.5 7.08366 2.5ZM12.917 14.1667C12.5874 14.1667 12.2651 14.2644 11.991 14.4476C11.717 14.6307 11.5033 14.891 11.3772 15.1955C11.251 15.5001 11.218 15.8352 11.2824 16.1585C11.3467 16.4818 11.5054 16.7788 11.7385 17.0118C11.9716 17.2449 12.2685 17.4037 12.5918 17.468C12.9151 17.5323 13.2503 17.4993 13.5548 17.3731C13.8593 17.247 14.1196 17.0334 14.3028 16.7593C14.4859 16.4852 14.5837 16.163 14.5837 15.8333C14.5837 15.3913 14.4081 14.9674 14.0955 14.6548C13.7829 14.3423 13.359 14.1667 12.917 14.1667ZM12.917 8.33333C12.5874 8.33333 12.2651 8.43108 11.991 8.61422C11.717 8.79735 11.5033 9.05765 11.3772 9.3622C11.251 9.66674 11.218 10.0019 11.2824 10.3252C11.3467 10.6485 11.5054 10.9454 11.7385 11.1785C11.9716 11.4116 12.2685 11.5703 12.5918 11.6346C12.9151 11.699 13.2503 11.6659 13.5548 11.5398C13.8593 11.4137 14.1196 11.2 14.3028 10.926C14.4859 10.6519 14.5837 10.3296 14.5837 10C14.5837 9.55797 14.4081 9.13405 14.0955 8.82149C13.7829 8.50893 13.359 8.33333 12.917 8.33333Z" fill="#183B59"/>
</svg>
